<?xml version="1.0" standalone="no"?>
<!DOCTYPE svg PUBLIC "-//W3C//DTD SVG 1.1//EN" "http://www.w3.org/Graphics/SVG/1.1/DTD/svg11.dtd" >
<svg>
<metadata>
Created by FontForge 20090914 at Sat Jun 22 22:48:29 2013
 By www-data
&#194;&#169; 2000 Adobe Systems Incorporated. All Rights Reserved.
</metadata>
<defs>
<font id="ACaslonPro-Regular" horiz-adv-x="500" >
  <font-face 
    font-family="Adobe Caslon Pro"
    font-weight="400"
    font-stretch="normal"
    units-per-em="1000"
    panose-1="2 5 5 2 5 5 10 2 4 3"
    ascent="735"
    descent="-265"
    x-height="419.999"
    cap-height="711.002"
    bbox="-189.999 -700.011 1501 1002"
    underline-thickness="50"
    underline-position="-50"
    unicode-range="U+0020-U+FB06"
  />
<missing-glyph 
d="M50 95l170 255l-170 255v-510zM420 50l-170 255l-170 -255h340zM450 95v510l-170 -255zM420 650h-340l170 -255zM0 700h500v-700h-500v700z" />
    <glyph glyph-name="T_h" unicode="Th" horiz-adv-x="1083" 
d="M642 243l0.00585938 302.002c0 20 -3.66699 40.833 -11 62.5s-21 37.5 -41 47.5c-7.33301 4 -18.166 7 -32.499 9s-29.833 3.66699 -46.5 5s-33.5 2.16602 -50.5 2.49902s-31.5 0.5 -43.5 0.5h-28v-285v-27v-56v-71.5v-71.5c0 -22 0.166992 -41 0.5 -57
s0.5 -25.333 0.5 -28c1.33301 -12.667 4.33301 -22.5 9 -29.5s13 -10.5 25 -10.5h63c4.66699 0 7.5 -0.833008 8.5 -2.5s1.5 -4.16699 1.5 -7.5v-21c0 -2.66699 -0.5 -4.66699 -1.5 -6s-3.83301 -2 -8.5 -2c-2.66699 0 -6.83398 0.166992 -12.501 0.5
s-13.834 0.666016 -24.501 0.999023s-24.334 0.666016 -41.001 0.999023s-37.334 0.5 -62.001 0.5c-48 0 -83.5 -0.5 -106.5 -1.5s-38.167 -1.5 -45.5 -1.5c-4 0 -6.5 0.833008 -7.5 2.5s-1.5 4.16699 -1.5 7.5v19c0 6.66699 2.33301 10 7 10h68c10 0 17.833 2.5 23.5 7.5
s8.83398 10.5 9.50098 16.5c0.666992 4.66699 1.16699 16.334 1.5 35.001s0.5 40.667 0.5 66s0.166992 52.166 0.5 80.499s0.5 54.833 0.5 79.5v63v31v257h-25h-32.5c-13.667 0 -28.167 -0.5 -43.5 -1.5s-30.333 -2.33301 -45 -4s-27 -3.83398 -37 -6.50098
c-11.333 -3.33301 -21.666 -9.83301 -30.999 -19.5s-17.666 -20.334 -24.999 -32.001s-13.833 -23.334 -19.5 -35.001s-10.167 -21.5 -13.5 -29.5c-2 -4 -5.33301 -5.66699 -10 -5l-18 5l-4 2c-1.33301 0.666992 -1.33301 2.66699 0 6
c2.66699 8.66699 6.5 22.334 11.5 41.001l15 56.5l13.5 51.5l7 27c1.33301 6.66699 2.83301 11 4.5 13s3.5 3 5.5 3c4.66699 0 8.66699 -1.33301 12 -4l13 -9c9.33301 -6.66699 17.5 -11 24.5 -13s17.833 -3.33301 32.5 -4l38.5 -2
c12.333 -0.666992 25.833 -1.33398 40.5 -2.00098s30.834 -1.16699 48.501 -1.5s38.167 -0.5 61.5 -0.5h103c27.333 0 50.833 0.166992 70.5 0.5s37.167 0.833008 52.5 1.5s29.166 1.33398 41.499 2.00098l36.5 2c6.66699 0 12.667 0.333008 18 1
s10.166 1.83398 14.499 3.50098s8.83301 3.83398 13.5 6.50098s9.66699 6.33398 15 11.001c6 5.33301 10.167 8 12.5 8h8.5c2.66699 0 5.33398 -1.83301 8.00098 -5.5s3.33398 -10.167 2.00098 -19.5c-0.666992 -2.66699 -1.16699 -10.667 -1.5 -24s-0.5 -29.333 -0.5 -48
s-0.166992 -39 -0.5 -61s-0.5 -43.333 -0.5 -64v-56v-38v-64h5c17.333 21.333 39 37.5 65 48.5s50 16.5 72 16.5c21.333 0 39.666 -3.33301 54.999 -10s30 -16.667 44 -30c11.333 -10.667 20 -21.667 26 -33s10.167 -23.333 12.5 -36s3.66602 -25.5 3.99902 -38.5
s0.5 -26.167 0.5 -39.5v-57c0 -14 0.166992 -28.167 0.5 -42.5s0.5 -27.666 0.5 -39.999s0.166992 -23.333 0.5 -33s0.5 -16.834 0.5 -21.501c0 -6 3.5 -10 10.5 -12s15.833 -3 26.5 -3h17c7.33301 0 11 -3 11 -9v-15c0 -8 -2.66699 -12 -8 -12c-3.33301 0 -13 0.5 -29 1.5
s-38.333 1.5 -67 1.5c-24.667 0 -45.334 -0.5 -62.001 -1.5s-27.334 -1.5 -32.001 -1.5c-6 0 -9 3.66699 -9 11v17c0 5.33301 2.33301 8 7 8h23c8.66699 0 17 1 25 3s12.333 7.33301 13 16v16.5v26v29.5v27v81c0 28 -1.83301 52.167 -5.5 72.5
s-12.834 37.166 -27.501 50.499c-19.333 18.667 -41.333 28 -66 28c-14.667 0 -30.334 -3 -47.001 -9s-32 -17 -46 -33c-4.66699 -5.33301 -9.16699 -12.5 -13.5 -21.5s-6.5 -18.167 -6.5 -27.5v-218c0 -16 1.33301 -26.833 4 -32.5s8.66699 -8.5 18 -8.5h30
c7.33301 0 11 -2.66699 11 -8v-17c0 -7.33301 -2.66699 -11 -8 -11c-4 0 -15 0.5 -33 1.5s-38.667 1.5 -62 1.5c-25.333 0 -46.666 -0.5 -63.999 -1.5s-28.333 -1.5 -33 -1.5s-7 3.33301 -7 10v18c0 5.33301 5 8 15 8h21c8 0 15.167 1.16699 21.5 3.5
s10.166 6.5 11.499 12.5c0.666992 4.66699 1.16699 14.334 1.5 29.001s0.666016 31.5 0.999023 50.5s0.5 38.833 0.5 59.5v55z" />
    <glyph glyph-name="T_h.caron" unicode="&#x164;h" horiz-adv-x="1083" 
d="M358 853l117 55c5.33301 3.33301 8.66602 3.66602 9.99902 0.999023l8 -10c2 -2.66699 1.33301 -5.66699 -2 -9l-126 -111c-2.66699 -2 -5.16699 -4 -7.5 -6s-4.16602 -3 -5.49902 -3c-2 0 -4 0.833008 -6 2.5l-8 6.5l-126 112c-2.66699 2.66699 -3 5.33398 -1 8.00098
l7 9c2 2.66699 5 3 9 1zM642 243l0.00585938 302.002c0 20 -3.66699 40.833 -11 62.5s-21 37.5 -41 47.5c-7.33301 4 -18.166 7 -32.499 9s-29.833 3.66699 -46.5 5s-33.5 2.16602 -50.5 2.49902s-31.5 0.5 -43.5 0.5h-28v-285v-27v-56v-71.5v-71.5
c0 -22 0.166992 -41 0.5 -57s0.5 -25.333 0.5 -28c1.33301 -12.667 4.33301 -22.5 9 -29.5s13 -10.5 25 -10.5h63c4.66699 0 7.5 -0.833008 8.5 -2.5s1.5 -4.16699 1.5 -7.5v-21c0 -2.66699 -0.5 -4.66699 -1.5 -6s-3.83301 -2 -8.5 -2
c-2.66699 0 -6.83398 0.166992 -12.501 0.5s-13.834 0.666016 -24.501 0.999023s-24.334 0.666016 -41.001 0.999023s-37.334 0.5 -62.001 0.5c-48 0 -83.5 -0.5 -106.5 -1.5s-38.167 -1.5 -45.5 -1.5c-4 0 -6.5 0.833008 -7.5 2.5s-1.5 4.16699 -1.5 7.5v19
c0 6.66699 2.33301 10 7 10h68c10 0 17.833 2.5 23.5 7.5s8.83398 10.5 9.50098 16.5c0.666992 4.66699 1.16699 16.334 1.5 35.001s0.5 40.667 0.5 66s0.166992 52.166 0.5 80.499s0.5 54.833 0.5 79.5v63v31v257h-25h-32.5c-13.667 0 -28.167 -0.5 -43.5 -1.5
s-30.333 -2.33301 -45 -4s-27 -3.83398 -37 -6.50098c-11.333 -3.33301 -21.666 -9.83301 -30.999 -19.5s-17.666 -20.334 -24.999 -32.001s-13.833 -23.334 -19.5 -35.001s-10.167 -21.5 -13.5 -29.5c-2 -4 -5.33301 -5.66699 -10 -5l-18 5l-4 2
c-1.33301 0.666992 -1.33301 2.66699 0 6c2.66699 8.66699 6.5 22.334 11.5 41.001l15 56.5l13.5 51.5l7 27c1.33301 6.66699 2.83301 11 4.5 13s3.5 3 5.5 3c4.66699 0 8.66699 -1.33301 12 -4l13 -9c9.33301 -6.66699 17.5 -11 24.5 -13s17.833 -3.33301 32.5 -4l38.5 -2
c12.333 -0.666992 25.833 -1.33398 40.5 -2.00098s30.834 -1.16699 48.501 -1.5s38.167 -0.5 61.5 -0.5h103c27.333 0 50.833 0.166992 70.5 0.5s37.167 0.833008 52.5 1.5s29.166 1.33398 41.499 2.00098l36.5 2c6.66699 0 12.667 0.333008 18 1
s10.166 1.83398 14.499 3.50098s8.83301 3.83398 13.5 6.50098s9.66699 6.33398 15 11.001c6 5.33301 10.167 8 12.5 8h8.5c2.66699 0 5.33398 -1.83301 8.00098 -5.5s3.33398 -10.167 2.00098 -19.5c-0.666992 -2.66699 -1.16699 -10.667 -1.5 -24s-0.5 -29.333 -0.5 -48
s-0.166992 -39 -0.5 -61s-0.5 -43.333 -0.5 -64v-56v-38v-64h5c17.333 21.333 39 37.5 65 48.5s50 16.5 72 16.5c21.333 0 39.666 -3.33301 54.999 -10s30 -16.667 44 -30c11.333 -10.667 20 -21.667 26 -33s10.167 -23.333 12.5 -36s3.66602 -25.5 3.99902 -38.5
s0.5 -26.167 0.5 -39.5v-57c0 -14 0.166992 -28.167 0.5 -42.5s0.5 -27.666 0.5 -39.999s0.166992 -23.333 0.5 -33s0.5 -16.834 0.5 -21.501c0 -6 3.5 -10 10.5 -12s15.833 -3 26.5 -3h17c7.33301 0 11 -3 11 -9v-15c0 -8 -2.66699 -12 -8 -12c-3.33301 0 -13 0.5 -29 1.5
s-38.333 1.5 -67 1.5c-24.667 0 -45.334 -0.5 -62.001 -1.5s-27.334 -1.5 -32.001 -1.5c-6 0 -9 3.66699 -9 11v17c0 5.33301 2.33301 8 7 8h23c8.66699 0 17 1 25 3s12.333 7.33301 13 16v16.5v26v29.5v27v81c0 28 -1.83301 52.167 -5.5 72.5
s-12.834 37.166 -27.501 50.499c-19.333 18.667 -41.333 28 -66 28c-14.667 0 -30.334 -3 -47.001 -9s-32 -17 -46 -33c-4.66699 -5.33301 -9.16699 -12.5 -13.5 -21.5s-6.5 -18.167 -6.5 -27.5v-218c0 -16 1.33301 -26.833 4 -32.5s8.66699 -8.5 18 -8.5h30
c7.33301 0 11 -2.66699 11 -8v-17c0 -7.33301 -2.66699 -11 -8 -11c-4 0 -15 0.5 -33 1.5s-38.667 1.5 -62 1.5c-25.333 0 -46.666 -0.5 -63.999 -1.5s-28.333 -1.5 -33 -1.5s-7 3.33301 -7 10v18c0 5.33301 5 8 15 8h21c8 0 15.167 1.16699 21.5 3.5
s10.166 6.5 11.499 12.5c0.666992 4.66699 1.16699 14.334 1.5 29.001s0.666016 31.5 0.999023 50.5s0.5 38.833 0.5 59.5v55z" />
    <glyph glyph-name="T_h.commaaccent" unicode="&#x162;h" horiz-adv-x="1083" 
d="M340 -60c6.66699 0 13.6738 -1.49902 21.0068 -4.49902s14.166 -7.5 20.499 -13.5s11.666 -13.333 15.999 -22s6.5 -19 6.5 -31c0 -19.333 -3.83301 -37 -11.5 -53s-16.334 -30 -26.001 -42s-19.334 -21.833 -29.001 -29.5s-16.5 -12.5 -20.5 -14.5
c-1.33301 -1.33301 -3.33301 -2.83301 -6 -4.5s-5.33398 -2.5 -8.00098 -2.5c-6 0 -9 2.33301 -9 7c0 3.33301 2.33301 7 7 11l15.5 15.5c6.33301 6.33301 12.166 13.5 17.499 21.5s10 16.833 14 26.5s6 19.5 6 29.5c0 5.33301 -1.5 10.166 -4.5 14.499
s-5.83301 7.16602 -8.5 8.49902l-10 3.5c-4.66699 1.66699 -9.5 4.33398 -14.5 8.00098s-9.33301 8.5 -13 14.5s-5.5 13.667 -5.5 23s3.66699 17.333 11 24s17.666 10 30.999 10zM642.007 243.001l0.00585938 302.002c0 20 -3.66699 40.833 -11 62.5s-21 37.5 -41 47.5
c-7.33301 4 -18.166 7 -32.499 9s-29.833 3.66699 -46.5 5s-33.5 2.16602 -50.5 2.49902s-31.5 0.5 -43.5 0.5h-28v-285v-27v-56v-71.5v-71.5c0 -22 0.166992 -41 0.5 -57s0.5 -25.333 0.5 -28c1.33301 -12.667 4.33301 -22.5 9 -29.5s13 -10.5 25 -10.5h63
c4.66699 0 7.5 -0.833008 8.5 -2.5s1.5 -4.16699 1.5 -7.5v-21c0 -2.66699 -0.5 -4.66699 -1.5 -6s-3.83301 -2 -8.5 -2c-2.66699 0 -6.83398 0.166992 -12.501 0.5s-13.834 0.666016 -24.501 0.999023s-24.334 0.666016 -41.001 0.999023s-37.334 0.5 -62.001 0.5
c-48 0 -83.5 -0.5 -106.5 -1.5s-38.167 -1.5 -45.5 -1.5c-4 0 -6.5 0.833008 -7.5 2.5s-1.5 4.16699 -1.5 7.5v19c0 6.66699 2.33301 10 7 10h68c10 0 17.833 2.5 23.5 7.5s8.83398 10.5 9.50098 16.5c0.666992 4.66699 1.16699 16.334 1.5 35.001s0.5 40.667 0.5 66
s0.166992 52.166 0.5 80.499s0.5 54.833 0.5 79.5v63v31v257h-25h-32.5c-13.667 0 -28.167 -0.5 -43.5 -1.5s-30.333 -2.33301 -45 -4s-27 -3.83398 -37 -6.50098c-11.333 -3.33301 -21.666 -9.83301 -30.999 -19.5s-17.666 -20.334 -24.999 -32.001
s-13.833 -23.334 -19.5 -35.001s-10.167 -21.5 -13.5 -29.5c-2 -4 -5.33301 -5.66699 -10 -5l-18 5l-4 2c-1.33301 0.666992 -1.33301 2.66699 0 6c2.66699 8.66699 6.5 22.334 11.5 41.001l15 56.5l13.5 51.5l7 27c1.33301 6.66699 2.83301 11 4.5 13s3.5 3 5.5 3
c4.66699 0 8.66699 -1.33301 12 -4l13 -9c9.33301 -6.66699 17.5 -11 24.5 -13s17.833 -3.33301 32.5 -4l38.5 -2c12.333 -0.666992 25.833 -1.33398 40.5 -2.00098s30.834 -1.16699 48.501 -1.5s38.167 -0.5 61.5 -0.5h103c27.333 0 50.833 0.166992 70.5 0.5
s37.167 0.833008 52.5 1.5s29.166 1.33398 41.499 2.00098l36.5 2c6.66699 0 12.667 0.333008 18 1s10.166 1.83398 14.499 3.50098s8.83301 3.83398 13.5 6.50098s9.66699 6.33398 15 11.001c6 5.33301 10.167 8 12.5 8h8.5c2.66699 0 5.33398 -1.83301 8.00098 -5.5
s3.33398 -10.167 2.00098 -19.5c-0.666992 -2.66699 -1.16699 -10.667 -1.5 -24s-0.5 -29.333 -0.5 -48s-0.166992 -39 -0.5 -61s-0.5 -43.333 -0.5 -64v-56v-38v-64h5c17.333 21.333 39 37.5 65 48.5s50 16.5 72 16.5c21.333 0 39.666 -3.33301 54.999 -10
s30 -16.667 44 -30c11.333 -10.667 20 -21.667 26 -33s10.167 -23.333 12.5 -36s3.66602 -25.5 3.99902 -38.5s0.5 -26.167 0.5 -39.5v-57c0 -14 0.166992 -28.167 0.5 -42.5s0.5 -27.666 0.5 -39.999s0.166992 -23.333 0.5 -33s0.5 -16.834 0.5 -21.501
c0 -6 3.5 -10 10.5 -12s15.833 -3 26.5 -3h17c7.33301 0 11 -3 11 -9v-15c0 -8 -2.66699 -12 -8 -12c-3.33301 0 -13 0.5 -29 1.5s-38.333 1.5 -67 1.5c-24.667 0 -45.334 -0.5 -62.001 -1.5s-27.334 -1.5 -32.001 -1.5c-6 0 -9 3.66699 -9 11v17c0 5.33301 2.33301 8 7 8
h23c8.66699 0 17 1 25 3s12.333 7.33301 13 16v16.5v26v29.5v27v81c0 28 -1.83301 52.167 -5.5 72.5s-12.834 37.166 -27.501 50.499c-19.333 18.667 -41.333 28 -66 28c-14.667 0 -30.334 -3 -47.001 -9s-32 -17 -46 -33c-4.66699 -5.33301 -9.16699 -12.5 -13.5 -21.5
s-6.5 -18.167 -6.5 -27.5v-218c0 -16 1.33301 -26.833 4 -32.5s8.66699 -8.5 18 -8.5h30c7.33301 0 11 -2.66699 11 -8v-17c0 -7.33301 -2.66699 -11 -8 -11c-4 0 -15 0.5 -33 1.5s-38.667 1.5 -62 1.5c-25.333 0 -46.666 -0.5 -63.999 -1.5s-28.333 -1.5 -33 -1.5
s-7 3.33301 -7 10v18c0 5.33301 5 8 15 8h21c8 0 15.167 1.16699 21.5 3.5s10.166 6.5 11.499 12.5c0.666992 4.66699 1.16699 14.334 1.5 29.001s0.666016 31.5 0.999023 50.5s0.5 38.833 0.5 59.5v55z" />
    <glyph glyph-name="f_f_j" unicode="ffj" horiz-adv-x="825" 
d="M428 603c-17.333 -1.33301 -33.1689 1.66895 -47.502 9.00195s-25.166 16 -32.499 26c-9.33301 12 -26.666 18 -51.999 18c-15.333 0 -30 -2.33301 -44 -7s-26.667 -14 -38 -28c-9.33301 -12 -16.333 -25.833 -21 -41.5s-8 -31.834 -10 -48.501
s-3.16699 -32.334 -3.5 -47.001s-0.5 -27 -0.5 -37v-30h206v19c0 39.333 4 72.5 12 99.5s18.667 48.833 32 65.5zM106.997 436.002c0 40 6.33105 75.832 18.998 107.499s28.667 58.5 48 80.5c26.667 29.333 53.5 49.833 80.5 61.5s54.167 17.5 81.5 17.5
c25.333 0 49.666 -4.83301 72.999 -14.5s41.666 -24.5 54.999 -44.5c12 14.667 25.5 27 40.5 37s30.5 18.167 46.5 24.5s31.833 10.833 47.5 13.5s29.834 4 42.501 4c28 0 51.5 -6.83301 70.5 -20.5s28.833 -29.5 29.5 -47.5c0 -16.667 -5 -29 -15 -37s-20.667 -12 -32 -12
s-21.666 3.16699 -30.999 9.5s-19.333 16.166 -30 29.499c-6.66699 9.33301 -13.834 16.666 -21.501 21.999s-17.5 8 -29.5 8c-13.333 0 -26.666 -2.83301 -39.999 -8.5s-25.333 -14.5 -36 -26.5c-12 -12.667 -21.167 -27.167 -27.5 -43.5s-11.166 -33.333 -14.499 -51
s-5.33301 -35.834 -6 -54.501s-1 -36.667 -1 -54v-20h145c19.333 0 38.166 1.5 56.499 4.5s36.166 6.5 53.499 10.5c4.66699 1.33301 8.33398 2.33301 11.001 3s5.66699 1 9 1s5.16602 -1.16699 5.49902 -3.5s0.5 -5.16602 0.5 -8.49902c-0.666992 -10 -1 -23.167 -1 -39.5
v-53v-60c0 -21 0.166992 -41.167 0.5 -60.5s0.5 -37.166 0.5 -53.499v-40.5c0 -14.667 -0.166992 -31.834 -0.5 -51.501s-1 -39.834 -2 -60.501s-2.5 -40.5 -4.5 -59.5s-4.33301 -35.5 -7 -49.5c-11.333 -57.333 -33 -99.666 -65 -126.999s-67.333 -41 -106 -41
c-15.333 0 -28.833 4.16699 -40.5 12.5s-17.5 19.833 -17.5 34.5c0 8 3.33301 17 10 27s15.334 15 26.001 15c11.333 0 21.333 -2.66699 30 -8s17.667 -13 27 -23s17 -15 23 -15c12.667 0 23.5 7 32.5 21s14.833 36.333 17.5 67c2 29.333 3.33301 63.333 4 102s1 76 1 112
v36v20c0 5.33301 -0.166992 10.666 -0.5 15.999s-0.666016 13.333 -0.999023 24s-0.666016 25.167 -0.999023 43.5s-0.5 43.5 -0.5 75.5c0 16 -1.16699 29.333 -3.5 40s-6.5 19 -12.5 25s-14.333 10.167 -25 12.5s-25 3.5 -43 3.5h-122v-89v-82.5v-68
c0 -19.667 0.166992 -35.667 0.5 -48s0.833008 -19.833 1.5 -22.5c0 -7.33301 1 -13.5 3 -18.5s7 -7.5 15 -7.5h45c6.66699 0 10 -2.66699 10 -8v-16c0 -8 -2 -12 -6 -12c-3.33301 0 -13.166 0.5 -29.499 1.5s-42.5 1.5 -78.5 1.5c-8 0 -17 -0.166992 -27 -0.5
s-19.5 -0.666016 -28.5 -0.999023s-16.833 -0.666016 -23.5 -0.999023s-11 -0.5 -13 -0.5c-5.33301 0 -8 2.33301 -8 7v22c0 4.66699 3.33301 7 10 7h33c9.33301 0 15.666 3 18.999 9s5 14.667 5 26v301h-206v-89v-82.5v-68c0 -19.667 0.166992 -35.667 0.5 -48
s0.5 -19.833 0.5 -22.5c1.33301 -8.66699 3.33301 -15.167 6 -19.5s9.33398 -6.5 20.001 -6.5h27c7.33301 0 11 -2.66699 11 -8v-16c0 -8 -2.33301 -12 -7 -12c-3.33301 0 -13.333 0.5 -30 1.5s-36.667 1.5 -60 1.5c-14 -0 -27.333 -0.166992 -40 -0.5
s-24.167 -0.666016 -34.5 -0.999023s-19 -0.666016 -26 -0.999023s-11.5 -0.5 -13.5 -0.5c-5.33301 0 -8 2.33301 -8 7v22c0 4.66699 3.33301 7 10 7h48c9.33301 0 15.666 3 18.999 9s5 14.667 5 26v301h-67c-6 0 -8.33301 3.66699 -7 11l4 30
c0.666992 4.66699 4.66699 7 12 7h58v19z" />
    <glyph glyph-name="f_j" unicode="fj" horiz-adv-x="547" 
d="M107 434c0 49.333 7.16797 90.1689 21.501 122.502s32.166 60.166 53.499 83.499c27.333 30 58 51.333 92 64s63.667 19 89 19c14 0 27 -2 39 -6s22.5 -9.16699 31.5 -15.5s16.167 -13.833 21.5 -22.5s8 -17.334 8 -26.001c0 -16.667 -5 -29 -15 -37s-20.667 -12 -32 -12
s-21.666 3.16699 -30.999 9.5s-19.333 16.166 -30 29.499c-6.66699 9.33301 -13.834 16.666 -21.501 21.999s-17.5 8 -29.5 8c-13.333 0 -26.666 -2.83301 -39.999 -8.5s-25.333 -14.5 -36 -26.5c-12 -12.667 -21.167 -27.167 -27.5 -43.5s-11.166 -33.333 -14.499 -51
s-5.33301 -35.667 -6 -54s-1 -35.833 -1 -52.5v-20h145c19.333 0 38.166 1.5 56.499 4.5s36.166 6.5 53.499 10.5c4.66699 1.33301 8.33398 2.33301 11.001 3s5.66699 1 9 1c5.33301 0 7.33301 -4 6 -12c-2 -12.667 -3.33301 -26.667 -4 -42
s-0.833984 -31.166 -0.500977 -47.499l1 -48.5c0.333008 -16 0.5 -30.667 0.5 -44v-125c0 -14.667 -0.166992 -31.834 -0.5 -51.501s-1 -39.834 -2 -60.501s-2.5 -40.5 -4.5 -59.5s-4.33301 -35.5 -7 -49.5c-11.333 -57.333 -33 -99.666 -65 -126.999s-67.333 -41 -106 -41
c-15.333 0 -28.833 4.16699 -40.5 12.5s-17.5 19.833 -17.5 34.5c0 8 3.33301 17 10 27s15.334 15 26.001 15c11.333 0 21.333 -2.66699 30 -8s17.667 -13 27 -23s17 -15 23 -15c12.667 0 23.5 7 32.5 21s14.833 36.333 17.5 67c2 29.333 3.33301 63.333 4 102s1 76 1 112
v221c0 14.667 -1 26.834 -3 36.501s-6 17.334 -12 23.001s-14.5 9.66699 -25.5 12s-25.5 3.5 -43.5 3.5h-122v-89v-82.5v-68c0 -19.667 0.166992 -35.667 0.5 -48s0.833008 -19.833 1.5 -22.5c0 -7.33301 1 -13.5 3 -18.5s7 -7.5 15 -7.5h45c6.66699 0 10 -2.66699 10 -8
v-18c0 -6.66699 -2 -10 -6 -10c-3.33301 0 -12.833 0.5 -28.5 1.5s-39.834 1.5 -72.501 1.5c-34 0 -60.5 -0.5 -79.5 -1.5s-30.5 -1.5 -34.5 -1.5c-5.33301 0 -8 2.33301 -8 7v22c0 4.66699 3.33301 7 10 7h52c13.333 0 20 11.667 20 35v301h-67
c-6 0 -8.33301 3.33301 -7 10l4 31c0.666992 4.66699 4.66699 7 12 7h58v17z" />
    <glyph glyph-name="ff" unicode="ff" horiz-adv-x="588" 
d="M179 417l205.997 0.00195312v19c0 39.333 3.83301 73 11.5 101s17.5 50.333 29.5 67l-1 2c-15.333 -2 -30.166 0.5 -44.499 7.5s-25.166 15.167 -32.499 24.5c-9.33301 12 -26.666 18 -51.999 18c-15.333 0 -30 -2.33301 -44 -7s-26.667 -14 -38 -28
c-9.33301 -12 -16.333 -25.833 -21 -41.5s-8 -31.834 -10 -48.501s-3.16699 -32.334 -3.5 -47.001s-0.5 -27 -0.5 -37v-30zM106.997 369.002l-67.0039 -0.00488281c-6 0 -8.33301 3.66699 -7 11l4 30c0.666992 4.66699 4.66699 7 12 7h58v19c0 40 6.33301 75.833 19 107.5
s28.667 58.5 48 80.5c26.667 29.333 53.5 49.833 80.5 61.5s54.167 17.5 81.5 17.5c24.667 0 48 -4.66699 70 -14s38.667 -23 50 -41c26 28.667 52.667 48.334 80 59.001s54 16 80 16c12 0 23.333 -1.16699 34 -3.5s20.334 -5.83301 29.001 -10.5s15.5 -10.5 20.5 -17.5
s7.5 -15.167 7.5 -24.5c0 -12 -5 -22.167 -15 -30.5s-19 -12.5 -27 -12.5c-10.667 0 -20 2 -28 6c-4.66699 2.66699 -9.33398 6.5 -14.001 11.5s-8 8.83301 -10 11.5c-12.667 15.333 -28 23 -46 23c-13.333 0 -26.333 -2.33301 -39 -7s-24.667 -14 -36 -28
c-9.33301 -12 -16.333 -26 -21 -42s-8 -33.167 -10 -51.5s-3.16699 -37 -3.5 -56s-0.5 -37.167 -0.5 -54.5v-20h121c3.33301 0 5.5 -1.16699 6.5 -3.5s1.16699 -4.5 0.5 -6.5l-5 -33c-0.666992 -3.33301 -5 -5 -13 -5h-110v-89v-82.5v-68
c0 -19.667 0.166992 -35.667 0.5 -48s0.5 -19.833 0.5 -22.5c1.33301 -8.66699 3.33301 -15.167 6 -19.5s9.33398 -6.5 20.001 -6.5h57c7.33301 0 11 -2.66699 11 -8v-16c0 -8 -2.33301 -12 -7 -12c-3.33301 0 -14.666 0.5 -33.999 1.5s-49.666 1.5 -90.999 1.5
c-8.66699 0 -18.167 -0.166992 -28.5 -0.5s-20 -0.666016 -29 -0.999023s-16.833 -0.666016 -23.5 -0.999023s-11 -0.5 -13 -0.5c-5.33301 0 -8 2.33301 -8 7v22c0 4.66699 3.33301 7 10 7h33c9.33301 0 15.5 3 18.5 9s4.83301 14.667 5.5 26v188v113h-206v-89v-82.5v-68
c0 -19.667 0.166992 -35.667 0.5 -48s0.5 -19.833 0.5 -22.5c1.33301 -8.66699 3.33301 -15.167 6 -19.5s9.33398 -6.5 20.001 -6.5h27c7.33301 0 11 -2.66699 11 -8v-16c0 -8 -2.33301 -12 -7 -12c-3.33301 0 -13.333 0.5 -30 1.5s-36.667 1.5 -60 1.5
c-14 -0 -27.333 -0.166992 -40 -0.5s-24.167 -0.666016 -34.5 -0.999023s-19 -0.666016 -26 -0.999023s-11.5 -0.5 -13.5 -0.5c-5.33301 0 -8 2.33301 -8 7v22c0 4.66699 3.33301 7 10 7h48c9.33301 0 15.5 3 18.5 9s4.83301 14.667 5.5 26v188v113z" />
    <glyph glyph-name="fi" unicode="fi" horiz-adv-x="547" 
d="M107 369l-67.002 0.00292969c-6 0 -8.33301 3.33301 -7 10l4 31c0.666992 4.66699 4.66699 7 12 7h58v17c0 49.333 7.16699 90.166 21.5 122.499s32.166 60.166 53.499 83.499c27.333 30 58 51.333 92 64s63.667 19 89 19c14 0 27 -2 39 -6s22.5 -9.16699 31.5 -15.5
s16.167 -13.833 21.5 -22.5s8 -17.334 8 -26.001c0.666992 -16.667 -4.16602 -29 -14.499 -37s-21.166 -12 -32.499 -12s-21.666 3.16699 -30.999 9.5s-19.333 16.166 -30 29.499c-6.66699 9.33301 -13.834 16.666 -21.501 21.999s-17.5 8 -29.5 8
c-13.333 0 -26.666 -2.83301 -39.999 -8.5s-25.333 -14.5 -36 -26.5c-12 -12.667 -21.167 -27.167 -27.5 -43.5s-11.166 -33.333 -14.499 -51s-5.33301 -35.667 -6 -54s-1 -35.833 -1 -52.5v-20h145c19.333 0 38.166 1.5 56.499 4.5s36.166 6.5 53.499 10.5
c4.66699 1.33301 8.33398 2.33301 11.001 3s5.66699 1 9 1c5.33301 0 7.33301 -4 6 -12c-1.33301 -8.66699 -2.16602 -27.834 -2.49902 -57.501s-0.5 -67.167 -0.5 -112.5v-109v-53.5c0 -16.333 0.333008 -27.166 1 -32.499c0 -9.33301 1.33301 -16 4 -20s7.66699 -6 15 -6
h43c6 0 9 -3 9 -9v-18c0 -6 -2.66699 -9 -8 -9c-4 0 -13 0.5 -27 1.5s-37 1.5 -69 1.5c-30 0 -52.5 -0.5 -67.5 -1.5s-25.167 -1.5 -30.5 -1.5s-8 2.66699 -8 8v20c0 5.33301 3.33301 8 10 8h40c5.33301 0 9.16602 1.5 11.499 4.5s3.83301 9.16699 4.5 18.5v88v150
c0 14.667 -1 26.834 -3 36.501s-6 17.334 -12 23.001s-14.5 9.66699 -25.5 12s-25.5 3.5 -43.5 3.5h-122v-89v-82.5v-68c0 -19.667 0.166992 -35.667 0.5 -48s0.833008 -19.833 1.5 -22.5c0 -7.33301 1 -13.5 3 -18.5s7 -7.5 15 -7.5h45c6.66699 0 10 -2.66699 10 -8v-18
c0 -6.66699 -2 -10 -6 -10c-3.33301 0 -12.833 0.5 -28.5 1.5s-39.834 1.5 -72.501 1.5c-34 0 -60.5 -0.5 -79.5 -1.5s-30.5 -1.5 -34.5 -1.5c-5.33301 0 -8 2.33301 -8 7v22c0 4.66699 3.33301 7 10 7h52c7.33301 0 12.333 2.66699 15 8s4.33398 14.333 5.00098 27v188v113
z" />
    <glyph glyph-name="fl" unicode="fl" horiz-adv-x="545" 
d="M179 417h205.998v36.5c0 11.667 -0.166992 24 -0.5 37s-0.666016 26.833 -0.999023 41.5s-0.833008 31.667 -1.5 51c-1.33301 30 -8.5 52.5 -21.5 67.5s-31.167 22.5 -54.5 22.5c-18.667 0 -35 -2.66699 -49 -8s-27 -14.333 -39 -27c-10.667 -11.333 -18.667 -25 -24 -41
s-9.16602 -33 -11.499 -51s-3.5 -36.5 -3.5 -55.5v-53.5v-20zM106.998 369h-66.998c-6 0 -8.33301 3.33301 -7 10l4 31c0.666992 4.66699 4.66699 7 12 7h58v17c0 50 6 91.5 18 124.5s27.333 61.167 46 84.5c23.333 29.333 50 50 80 62s59.667 18 89 18
c22 0 43.5 -2.66699 64.5 -8s36.167 -10.666 45.5 -15.999c6 -3.33301 9 -10.333 9 -21c-0.666992 -5.33301 -1 -14.833 -1 -28.5s-0.166992 -29.834 -0.5 -48.501s-0.5 -38.667 -0.5 -60v-61.5v-54.5v-38v-89v-54.5v-70c0 -23.667 0.166992 -45.5 0.5 -65.5
s0.5 -33.333 0.5 -40c1.33301 -15.333 3.66602 -25 6.99902 -29s8.66602 -6 15.999 -6h47c5.33301 0 8.66602 -0.666992 9.99902 -2s2 -3.66602 2 -6.99902v-17c0 -6.66699 -2.33301 -10 -7 -10c-3.33301 0 -14.333 0.5 -33 1.5s-45 1.5 -79 1.5
c-32.667 0 -56.834 -0.5 -72.501 -1.5s-25.834 -1.5 -30.501 -1.5s-7 3.33301 -7 10v17c0 3.33301 0.833008 5.66602 2.5 6.99902s5.16699 2 10.5 2h39c7.33301 0 12.5 2.33301 15.5 7s4.83301 9.66699 5.5 15c0 8.66699 0.166992 24.5 0.5 47.5s0.5 48.167 0.5 75.5v80v61
v50h-206v-89v-82.5v-68.5c0 -20 0.166992 -36.333 0.5 -49s0.5 -21 0.5 -25c0.666992 -6.66699 2.33398 -12 5.00098 -16s7.66699 -6 15 -6h49c6.66699 0 10 -2.66699 10 -8v-16c0 -8 -2.33301 -12 -7 -12c-2.66699 0 -12.667 0.5 -30 1.5s-42.333 1.5 -75 1.5
c-36 0 -63 -0.5 -81 -1.5s-29 -1.5 -33 -1.5c-5.33301 0 -8 2.33301 -8 7v22c0 4.66699 3.33301 7 10 7h50c8.66699 0 14.334 2.5 17.001 7.5s4.33398 12.833 5.00098 23.5v192v113z" />
    <glyph glyph-name="ffi" unicode="ffi" horiz-adv-x="825" 
d="M179 417l205.997 0.00195312v19c0 39.333 4 72.5 12 99.5s18.667 48.833 32 65.5l-1 2c-17.333 -1.33301 -33.166 1.66699 -47.499 9s-25.166 16 -32.499 26c-9.33301 12 -26.666 18 -51.999 18c-15.333 0 -30 -2.33301 -44 -7s-26.667 -14 -38 -28
c-9.33301 -12 -16.333 -25.833 -21 -41.5s-8 -31.834 -10 -48.501s-3.16699 -32.334 -3.5 -47.001s-0.5 -27 -0.5 -37v-30zM106.997 369.002l-67.0039 -0.00195312c-6 0 -8.33301 3.66699 -7 11l4 30c0.666992 4.66699 4.66699 7 12 7h58v19c0 40 6.33301 75.833 19 107.5
s28.667 58.5 48 80.5c26.667 29.333 53.5 49.833 80.5 61.5s54.167 17.5 81.5 17.5c25.333 0 49.666 -4.83301 72.999 -14.5s41.666 -24.5 54.999 -44.5c12 14.667 25.5 27 40.5 37s30.5 18.167 46.5 24.5s31.833 10.833 47.5 13.5s29.834 4 42.501 4
c14 0 27 -1.83301 39 -5.5s22.5 -8.66699 31.5 -15s16.167 -13.666 21.5 -21.999s8 -16.833 8 -25.5c0.666992 -16.667 -4.16602 -29 -14.499 -37s-21.166 -12 -32.499 -12s-21.666 3.16699 -30.999 9.5s-19.333 16.166 -30 29.499
c-6.66699 9.33301 -13.834 16.666 -21.501 21.999s-17.5 8 -29.5 8c-13.333 0 -26.666 -2.83301 -39.999 -8.5s-25.333 -14.5 -36 -26.5c-12 -12.667 -21.167 -27.167 -27.5 -43.5s-11.166 -33.333 -14.499 -51s-5.33301 -35.834 -6 -54.501s-1 -36.667 -1 -54v-20h145
c19.333 0 38.166 1.5 56.499 4.5s36.166 6.5 53.499 10.5c4.66699 1.33301 8.33398 2.33301 11.001 3s5.66699 1 9 1c5.33301 0 7.33301 -4 6 -12c-1.33301 -8.66699 -2.16602 -27.834 -2.49902 -57.501s-0.5 -67.167 -0.5 -112.5v-109v-53.5
c0 -16.333 0.333008 -27.166 1 -32.499c0 -9.33301 1.33301 -16 4 -20s7.66699 -6 15 -6h43c6 0 9 -3 9 -9v-17c0 -6.66699 -2.66699 -10 -8 -10c-4 0 -13 0.5 -27 1.5s-37 1.5 -69 1.5c-30 0 -52.5 -0.5 -67.5 -1.5s-25.167 -1.5 -30.5 -1.5s-8 2.66699 -8 8v20
c0 5.33301 3.33301 8 10 8h40c5.33301 0 9.16602 1.5 11.499 4.5s3.83301 9.16699 4.5 18.5v88v144c0 16 -1 29.333 -3 40s-6 19 -12 25s-14.5 10.167 -25.5 12.5s-25.5 3.5 -43.5 3.5h-122v-89v-82.5v-68c0 -19.667 0.166992 -35.667 0.5 -48s0.833008 -19.833 1.5 -22.5
c0 -7.33301 1 -13.5 3 -18.5s7 -7.5 15 -7.5h45c6.66699 0 10 -2.66699 10 -8v-16c0 -8 -2 -12 -6 -12c-3.33301 0 -13.166 0.5 -29.499 1.5s-42.5 1.5 -78.5 1.5c-8 0 -17 -0.166992 -27 -0.5s-19.5 -0.666016 -28.5 -0.999023s-16.833 -0.666016 -23.5 -0.999023
s-11 -0.5 -13 -0.5c-5.33301 0 -8 2.33301 -8 7v22c0 4.66699 3.33301 7 10 7h33c9.33301 0 15.5 3 18.5 9s4.83301 14.667 5.5 26v188v113h-206v-89v-82.5v-68c0 -19.667 0.166992 -35.667 0.5 -48s0.5 -19.833 0.5 -22.5c1.33301 -8.66699 3.33301 -15.167 6 -19.5
s9.33398 -6.5 20.001 -6.5h27c7.33301 0 11 -2.66699 11 -8v-16c0 -8 -2.33301 -12 -7 -12c-3.33301 0 -13.333 0.5 -30 1.5s-36.667 1.5 -60 1.5c-14 -0 -27.333 -0.166992 -40 -0.5s-24.167 -0.666016 -34.5 -0.999023s-19 -0.666016 -26 -0.999023s-11.5 -0.5 -13.5 -0.5
c-5.33301 0 -8 2.33301 -8 7v22c0 4.66699 3.33301 7 10 7h48c9.33301 0 15.5 3 18.5 9s4.83301 14.667 5.5 26v188v113z" />
    <glyph glyph-name="ffl" unicode="ffl" horiz-adv-x="823" 
d="M663 417l-0.000976562 38c0 12 -0.166992 24.333 -0.5 37l-1 40c-0.333008 14 -0.833008 30 -1.5 48c-1.33301 29.333 -8.5 52.5 -21.5 69.5s-31.167 25.5 -54.5 25.5c-18.667 0 -35 -2.66699 -49 -8s-27 -14.333 -39 -27c-10.667 -11.333 -18.667 -25 -24 -41
s-9.16602 -33 -11.499 -51s-3.5 -36.667 -3.5 -56v-55v-20h206zM178.999 417l205.997 0.00195312v19c0 39.333 3.83301 73 11.5 101s17.5 50.667 29.5 68l-1 2c-15.333 -2 -30.166 0.333008 -44.499 7s-25.166 14.667 -32.499 24c-9.33301 12 -26.666 18 -51.999 18
c-15.333 0 -30 -2.33301 -44 -7s-26.667 -14 -38 -28c-9.33301 -12 -16.333 -25.833 -21 -41.5s-8 -31.834 -10 -48.501s-3.16699 -32.334 -3.5 -47.001s-0.5 -27 -0.5 -37v-30zM106.996 369.002l-64.9941 -0.00292969c-6 0 -8.66699 4.33301 -8 13l3 28
c0.666992 4.66699 4.66699 7 12 7h58v19c0 40 6.33301 75.833 19 107.5s28.667 58.5 48 80.5c26.667 29.333 53.5 49.833 80.5 61.5s54.167 17.5 81.5 17.5c24 0 47.333 -4.66699 70 -14s39.667 -23.333 51 -42c23.333 29.333 49 49.333 77 60s56 16 84 16
c22 0 43.5 -2.33301 64.5 -7s36.167 -9.66699 45.5 -15c5.33301 -2.66699 8.16602 -5.5 8.49902 -8.5s0.5 -7.16699 0.5 -12.5c-0.666992 -5.33301 -1 -14.833 -1 -28.5s-0.166992 -29.834 -0.5 -48.501s-0.5 -38.667 -0.5 -60v-62v-55v-39v-89v-54.5v-70
c0 -23.667 0.166992 -45.5 0.5 -65.5s0.5 -33.333 0.5 -40c1.33301 -15.333 3.66602 -25 6.99902 -29s8.66602 -6 15.999 -6h47c5.33301 0 8.66602 -0.666992 9.99902 -2s2 -3.66602 2 -6.99902v-17c0 -6.66699 -2.33301 -10 -7 -10c-3.33301 0 -14.333 0.5 -33 1.5
s-45 1.5 -79 1.5c-32.667 0 -56.834 -0.5 -72.501 -1.5s-25.834 -1.5 -30.501 -1.5s-7 3.33301 -7 10v17c0 3.33301 0.833008 5.66602 2.5 6.99902s5.16699 2 10.5 2h39c7.33301 0 12.5 2.33301 15.5 7s4.83301 9.66699 5.5 15c0 8.66699 0.166992 24.5 0.5 47.5
s0.5 48.167 0.5 75.5v80v61v50h-206v-89v-82.5v-68c0 -19.667 0.166992 -35.667 0.5 -48s0.5 -19.833 0.5 -22.5c1.33301 -8.66699 3.33301 -15.167 6 -19.5s9.33398 -6.5 20.001 -6.5h42c7.33301 0 11 -2.66699 11 -8v-16c0 -8 -2.33301 -12 -7 -12
c-3.33301 0 -13.833 0.5 -31.5 1.5s-42.167 1.5 -73.5 1.5c-10 0 -20.333 -0.166992 -31 -0.5s-20.834 -0.666016 -30.501 -0.999023s-17.834 -0.666016 -24.501 -0.999023s-11 -0.5 -13 -0.5c-5.33301 0 -8 2.33301 -8 7v22c0 4.66699 3.33301 7 10 7h33
c9.33301 0 15.5 3 18.5 9s4.83301 14.667 5.5 26v188v113h-206v-89v-82.5v-68c0 -19.667 0.166992 -35.667 0.5 -48s0.5 -19.833 0.5 -22.5c1.33301 -8.66699 3.33301 -15.167 6 -19.5s9.33398 -6.5 20.001 -6.5h27c7.33301 0 11 -2.66699 11 -8v-16
c0 -8 -2.33301 -12 -7 -12c-3.33301 0 -13.333 0.5 -30 1.5s-36.667 1.5 -60 1.5c-14 -0 -27.333 -0.166992 -40 -0.5s-24.167 -0.666016 -34.5 -0.999023s-19 -0.666016 -26 -0.999023s-11.5 -0.5 -13.5 -0.5c-5.33301 0 -8 2.33301 -8 7v22c0 4.66699 3.33301 7 10 7h48
c9.33301 0 15.5 3 18.5 9s4.83301 14.667 5.5 26v188v113z" />
    <glyph glyph-name=".notdef" 
d="M50 95l170 255l-170 255v-510zM420 50l-170 255l-170 -255h340zM450 95v510l-170 -255zM420 650h-340l170 -255zM0 700h500v-700h-500v700z" />
    <glyph glyph-name="space" unicode=" " horiz-adv-x="254" 
 />
    <glyph glyph-name="exclam" unicode="!" horiz-adv-x="254" 
d="M129 683c13.333 0 25.332 -4.50098 35.999 -13.501s15.334 -24.167 14.001 -45.5c0 -4 -0.833008 -14.5 -2.5 -31.5l-6.5 -63.5l-8.5 -83c-3 -30 -5.83301 -59.667 -8.5 -89s-5 -56.666 -7 -81.999s-3 -46 -3 -62c0 -4.66699 -2.33301 -7 -7 -7h-18
c-4.66699 0 -7 3.33301 -7 10c-0.666992 16 -1.66699 36.167 -3 60.5s-3.16602 50.5 -5.49902 78.5s-4.83301 56.5 -7.5 85.5s-5 56 -7 81s-3.66699 46.667 -5 65s-2 30.833 -2 37.5c0 15.333 4.66699 29 14 41s20.666 18 33.999 18zM130.999 -12.001
c-5.33301 0 -11.667 0.833008 -19 2.5s-14.333 4.83398 -21 9.50098s-12.167 10.667 -16.5 18s-6.5 17 -6.5 29c0 4 1 9.16699 3 15.5s5.33301 12.5 10 18.5s11 11.167 19 15.5s18.333 6.5 31 6.5c14 0 26.833 -5.33301 38.5 -16s17.5 -25.334 17.5 -44.001
c0 -16.667 -5.5 -30 -16.5 -40s-24.167 -15 -39.5 -15z" />
    <glyph glyph-name="quotedbl" unicode="&#x22;" horiz-adv-x="370" 
d="M249 461c-0.666992 12.667 -2.5 29.8311 -5.5 51.498s-6.33301 43.834 -10 66.501l-10 62.5c-3 19 -4.5 32.167 -4.5 39.5c0 14 4.33301 24.5 13 31.5s19.667 10.5 33 10.5c31.333 0 47 -13.667 47 -41c0 -7.33301 -1.5 -20.666 -4.5 -39.999l-10 -62.5
c-3.66699 -22.333 -7 -44.5 -10 -66.5s-4.83301 -39.333 -5.5 -52h-33zM89 460.997c-0.666992 12.667 -2.5 29.8311 -5.5 51.498s-6.33301 43.834 -10 66.501l-10 62.5c-3 19 -4.5 32.167 -4.5 39.5c0 14 4.33301 24.5 13 31.5s20 10.5 34 10.5c30.667 0 46 -13.667 46 -41
c0 -7.33301 -1.5 -20.666 -4.5 -39.999l-9.5 -62.5l-9.5 -66.5c-3 -22 -4.83301 -39.333 -5.5 -52h-34z" />
    <glyph glyph-name="numbersign" unicode="#" 
d="M278 210l-109.002 -0.00195312l-45 -209c-2 -10.667 -5.33301 -16 -10 -16h-45c-4.66699 0 -6 4.66699 -4 14l46 211h-113c-6 0 -8 3 -6 9l10 37c0.666992 4.66699 4.33398 7 11.001 7h109l32 155h-104c-6 0 -10 0.5 -12 1.5s-2.66699 2.83301 -2 5.5l8 39
c1.33301 4.66699 5.66602 7 12.999 7h108l45 203c0.666992 2.66699 1.33398 4.83398 2.00098 6.50098s2.66699 2.5 6 2.5h44c4.66699 0 6 -3.33301 4 -10l-42 -202h108l42 203c1.33301 2.66699 2.5 4.83398 3.5 6.50098s3.16699 2.5 6.5 2.5h44
c4.66699 0 6.33398 -3.66699 5.00098 -11l-42 -201h109c6.66699 0 9.66699 -2.33301 9 -7l-9 -39c-0.666992 -4.66699 -5.66699 -7 -15 -7h-105l-33 -155h111c8 0 11.667 -2.66699 11 -8l-10 -40c-0.666992 -3.33301 -4.66699 -5 -12 -5h-111l-44 -213
c-2 -8 -5.33301 -12 -10 -12h-45c-4.66699 0 -6 3.66699 -4 11zM320.998 417.998h-108l-33 -155h109z" />
    <glyph glyph-name="dollar" unicode="$" 
d="M299 57c8.66699 3.33301 17.167 8.00098 25.5 14.001s15.833 13.5 22.5 22.5s12.167 19.667 16.5 32s6.5 26.166 6.5 41.499c0 33.333 -6 59.833 -18 79.5s-27.667 34.167 -47 43.5zM212 57.001c3.33301 -3.33301 10.834 -5.5 22.501 -6.5s22.167 -1.16699 31.5 -0.5
l6 251l-31.5 8c-7.66699 2 -14.834 3.66699 -21.501 5zM192.001 603.001c-9.33301 -4.66699 -17.5 -10.835 -24.5 -18.502s-12.833 -16 -17.5 -25s-8 -18.333 -10 -28s-3 -18.5 -3 -26.5c0 -15.333 1.33301 -29.666 4 -42.999s8 -25.666 16 -36.999
c5.33301 -8 11 -13.5 17 -16.5s10.667 -5.83301 14 -8.5zM280.001 605c-7.33301 3.33301 -16.166 5.66699 -26.499 7s-19.166 1.33301 -26.499 0l-6 -224c5.33301 -2.66699 12.666 -5 21.999 -7s19.666 -4 30.999 -6zM271.001 -42.999
c-4.66699 0 -7.00391 3.33105 -7.00391 9.99805l1 49h-11.5c-5 0 -10.167 0.166992 -15.5 0.5s-10.5 0.833008 -15.5 1.5s-8.83301 1.33398 -11.5 2.00098l-2 -54c0 -6 -2.33301 -9 -7 -9h-20c-4.66699 0 -7 3.33301 -7 10l2 61c-6 2 -13.5 5.5 -22.5 10.5
s-18.167 11.167 -27.5 18.5c-10 7.33301 -17 11 -21 11c-4.66699 0 -9.66699 -4.66699 -15 -14c-3.33301 -5.33301 -6.16602 -8.33301 -8.49902 -9s-5.16602 -1 -8.49902 -1c-6.66699 0 -9.66699 4.33301 -9 13c0.666992 5.33301 1.83398 15.333 3.50098 30
s3.33398 30.167 5.00098 46.5s3.16699 31.833 4.5 46.5s2.33301 25 3 31c0 4.66699 2.33301 7 7 7l15 -1c4 0 6 -2.33301 6 -7c0.666992 -13.333 2 -27.666 4 -42.999s9.66699 -33.666 23 -54.999c7.33301 -11.333 14.833 -20.333 22.5 -27s14.167 -11.667 19.5 -15l7 255
c-8 2.66699 -18.333 7.16699 -31 13.5s-24.334 14.833 -35.001 25.5c-15.333 14.667 -27 31.834 -35 51.501s-12 43.167 -12 70.5c0 28 6.5 51.5 19.5 70.5s27.167 35.167 42.5 48.5c10 9.33301 20.333 16.666 31 21.999s20 9.33301 28 12l2 57c0 6.66699 2.33301 10 7 10
h20c4.66699 0 7 -3.33301 7 -10l-1 -52c8.66699 1.33301 17.667 1.66602 27 0.999023s18 -1.66699 26 -3l1 54c0 4.66699 0.5 7.5 1.5 8.5s2.83301 1.5 5.5 1.5h20c4.66699 0 7 -4 7 -12l-2 -58c8.66699 -2 16 -4.16699 22 -6.5l14 -5.5c6.66699 -3.33301 12.667 -3 18 1
l10 10c4.66699 4 9.33398 6 14.001 6c4 0 6.33301 -1.83301 7 -5.5s1 -6.83398 1 -9.50098c0 -7.33301 0.166992 -17.666 0.5 -30.999l1 -41c0.333008 -14 0.666016 -27.167 0.999023 -39.5s0.5 -20.833 0.5 -25.5c0 -3.33301 -1.66699 -5.66602 -5 -6.99902l-14 -3
c-3.33301 0 -5.33301 1 -6 3c-2.66699 13.333 -7 28.666 -13 45.999s-15.667 32.333 -29 45l-11 9c-3.33301 2.66699 -6.66602 5.66699 -9.99902 9l-8 -223c39.333 -11.333 70.5 -30.666 93.5 -57.999s34.5 -65 34.5 -113c0 -20 -3.16699 -39.5 -9.5 -58.5
s-15.5 -36.5 -27.5 -52.5s-26.5 -29.833 -43.5 -41.5s-35.833 -19.834 -56.5 -24.501l-1 -53c0 -6.66699 -2.33301 -10 -7 -10h-19z" />
    <glyph glyph-name="percent" unicode="%" horiz-adv-x="750" 
d="M580 410c28.667 0 52.502 -6.82812 71.502 -20.4951s34.167 -30.834 45.5 -51.501s19.333 -43.167 24 -67.5s7.66699 -47.5 9 -69.5c-1.33301 -66.667 -15 -118.334 -41 -155.001s-60.667 -55 -104 -55c-32.667 0 -58.834 7.83301 -78.501 23.5
s-34.834 34.167 -45.501 55.5s-17.667 43.5 -21 66.5s-5 41.5 -5 55.5c0 27.333 2.83301 54.166 8.5 80.499s14.334 49.666 26.001 69.999s26.667 36.666 45 48.999s40.166 18.5 65.499 18.5zM585.002 21.0049c9.33301 0 19.6689 2.16797 31.002 6.50098
s20.333 15.833 27 34.5c9.33301 29.333 14 74 14 134c0 20 -1 40.833 -3 62.5s-5.83301 41.5 -11.5 59.5s-13.667 32.833 -24 44.5s-24.166 17.5 -41.499 17.5c-8.66699 0 -17.834 -2.66699 -27.501 -8s-17.5 -14.333 -23.5 -27c-4.66699 -10 -8.33398 -21.667 -11.001 -35
s-4.83398 -27 -6.50098 -41s-2.66699 -27.833 -3 -41.5s-0.5 -25.834 -0.5 -36.501c0 -26 1.66699 -49.167 5 -69.5s7.66602 -37.5 12.999 -51.5c7.33301 -16.667 17.333 -29 30 -37s23.334 -12 32.001 -12zM192.005 -1.99414
c-4.66699 -8.66699 -8.00195 -12.9971 -10.002 -12.9971c-1.33301 0 -3.16602 0.5 -5.49902 1.5s-6.5 3.16699 -12.5 6.5s-9.83301 5.66602 -11.5 6.99902s-2.5 3 -2.5 5c0 2.66699 1.66699 6.66699 5 12l406 658c2.66699 5.33301 5.33398 8 8.00098 8
c1.33301 0 3 -0.333008 5 -1s5.66699 -2.33398 11 -5.00098c8 -4.66699 12.833 -7.83398 14.5 -9.50098s2.5 -3.16699 2.5 -4.5c0 -0.666992 -1.33301 -3.66699 -4 -9zM165.003 683.009c28.667 0 52.502 -6.82812 71.502 -20.4951s34.167 -30.834 45.5 -51.501
s19.333 -43.167 24 -67.5s7.66699 -47.5 9 -69.5c-1.33301 -66.667 -15 -118.334 -41 -155.001s-60.667 -55 -104 -55c-32.667 0 -58.834 7.83301 -78.501 23.5s-34.834 34.167 -45.501 55.5s-17.667 43.5 -21 66.5s-5 41.5 -5 55.5c0 27.333 2.83301 54.166 8.5 80.499
s14.334 49.666 26.001 69.999s26.667 36.666 45 48.999s40.166 18.5 65.499 18.5zM170.005 294.014c9.33301 0 19.6689 2.16797 31.002 6.50098s20.333 15.833 27 34.5c9.33301 29.333 14 74 14 134c0 20 -1 40.833 -3 62.5s-5.83301 41.5 -11.5 59.5
s-13.667 32.833 -24 44.5s-24.166 17.5 -41.499 17.5c-8.66699 0 -17.834 -2.66699 -27.501 -8s-17.5 -14.333 -23.5 -27c-4.66699 -10 -8.33398 -21.667 -11.001 -35s-4.83398 -27 -6.50098 -41s-2.66699 -27.833 -3 -41.5s-0.5 -25.834 -0.5 -36.501
c0 -26 1.66699 -49.167 5 -69.5s7.66602 -37.5 12.999 -51.5c7.33301 -16.667 17.333 -29 30 -37s23.334 -12 32.001 -12z" />
    <glyph glyph-name="ampersand" unicode="&#x26;" horiz-adv-x="825" 
d="M291 672c-12 0 -23.667 -3.33203 -35 -9.99902s-21.333 -15.5 -30 -26.5s-15.5 -23.333 -20.5 -37s-7.5 -27.834 -7.5 -42.501c0 -9.33301 3.16699 -19 9.5 -29s14.333 -19.667 24 -29s20.5 -18.5 32.5 -27.5s24 -17.167 36 -24.5l21.5 17
c8.33301 6.66699 16.333 14.834 24 24.501s14 21.334 19 35.001s7.5 30.167 7.5 49.5c0 8.66699 -1.83301 18.667 -5.5 30s-9 22.166 -16 32.499s-15.5 19.166 -25.5 26.499s-21.333 11 -34 11zM284 45.001c24.667 0 47.168 4.99902 67.501 14.999s38.333 21.667 54 35
s29.167 26.833 40.5 40.5s20.333 24.167 27 31.5l-40.5 55c-15.667 20.667 -32.834 41.167 -51.501 61.5s-38.834 40 -60.501 59s-44.167 35.167 -67.5 48.5c-18 -10 -35.333 -22 -52 -36s-31.167 -29.5 -43.5 -46.5s-22.166 -35 -29.499 -54
s-10.666 -38.833 -9.99902 -59.5s6 -40.167 16 -58.5s23 -34.166 39 -47.499s33.667 -24 53 -32s38.666 -12 57.999 -12zM710.001 -15c-27.333 0 -51.8281 5.67188 -73.4951 17.0049s-41.167 25.333 -58.5 42s-32.833 34 -46.5 52l-36.5 48
c-12 -15.333 -25.833 -32.166 -41.5 -50.499s-33.5 -35.5 -53.5 -51.5s-42.667 -29.5 -68 -40.5s-54 -16.5 -86 -16.5c-24 0 -48.5 3.83301 -73.5 11.5s-47.5 18.834 -67.5 33.501s-36.5 33 -49.5 55s-19.5 47.333 -19.5 76c0 36 8.5 68.333 25.5 97s35.5 52.667 55.5 72
c17.333 16.667 35.833 31.667 55.5 45s39.834 25.666 60.501 36.999c-34.667 20 -60.667 41.333 -78 64s-26 43 -26 61c0 20 5.66699 40 17 60s25.333 38.333 42 55s34.334 30.167 53.001 40.5s35.334 15.5 50.001 15.5c18.667 0 36.5 -4.16699 53.5 -12.5s32 -19 45 -32
s23.333 -27.833 31 -44.5s11.167 -33.334 10.5 -50.001c-0.666992 -13.333 -4.66699 -26.833 -12 -40.5s-16.5 -26.834 -27.5 -39.501s-22.833 -24.167 -35.5 -34.5s-24.334 -18.166 -35.001 -23.499c17.333 -9.33301 35.666 -21.333 54.999 -36s38.5 -30.667 57.5 -48
s37 -35.666 54 -54.999s31.833 -38 44.5 -56c8 10 17.5 22.833 28.5 38.5l32 47.5c10.333 16 19.166 31 26.499 45s11.333 24.667 12 32c1.33301 8 -0.833984 15.167 -6.50098 21.5s-13.834 9.5 -24.501 9.5h-17c-4.66699 0 -7 2.33301 -7 7v22c0 3.33301 2.33301 5 7 5
c2 0 6.66699 -0.166992 14 -0.5s15.666 -0.666016 24.999 -0.999023s19.166 -0.666016 29.499 -0.999023s19.833 -0.5 28.5 -0.5c9.33301 0 19.666 0.166992 30.999 0.5s22 0.666016 32 0.999023s18.833 0.666016 26.5 0.999023s12.167 0.5 13.5 0.5
c4.66699 0 7 -2.33301 7 -7v-21c0 -4.66699 -2.33301 -7 -7 -7h-17c-12.667 0 -23 -0.333008 -31 -1s-14.667 -2 -20 -4s-9.83301 -5 -13.5 -9s-7.5 -9 -11.5 -15l-11 -16l-22 -32l-28.5 -41l-30.5 -42.5l-27 -36.5c-8 -10.667 -14.333 -18.334 -19 -23.001
c4 -4 9.5 -10.167 16.5 -18.5l22 -25l22 -24c7 -7.66699 12.167 -13.167 15.5 -16.5c6 -6.66699 13.5 -14.334 22.5 -23.001s19.167 -16.834 30.5 -24.501s23.833 -14.167 37.5 -19.5s28.5 -8 44.5 -8c15.333 0 29.5 3.66699 42.5 11s24.333 15.666 34 24.999
s17.334 18.166 23.001 26.499l10.5 15.5c2 3.33301 4.66699 3.66602 8 0.999023l15 -9c2 -1.33301 2 -4.33301 0 -9c-4 -8 -10.5 -19.167 -19.5 -33.5s-21 -28.333 -36 -42s-33.333 -25.5 -55 -35.5s-46.834 -15 -75.501 -15z" />
    <glyph glyph-name="quotesingle" unicode="'" horiz-adv-x="206" 
d="M87 461c-0.666992 12.667 -2.5 29.8311 -5.5 51.498s-6.33301 43.834 -10 66.501l-10 62.5c-3 19 -4.5 32.167 -4.5 39.5c0 14 4.33301 24.5 13 31.5s20 10.5 34 10.5c30.667 0 46 -13.667 46 -41c0 -7.33301 -1.5 -20.666 -4.5 -39.999l-9.5 -62.5l-9.5 -66.5
c-3 -22 -4.83301 -39.333 -5.5 -52h-34z" />
    <glyph glyph-name="parenleft" unicode="(" horiz-adv-x="330" 
d="M60 287c0 53.333 6.16504 101.502 18.498 144.502s28.5 85.833 48.5 128.5c18 40 39.333 75.167 64 105.5s47.334 55.166 68.001 74.499c6.66699 4.66699 13 7 19 7c4.66699 0 9.16699 -1.66699 13.5 -5s6.5 -6.33301 6.5 -9c0 -2 -0.666992 -4.66699 -2 -8
s-3.66602 -6.66602 -6.99902 -9.99902c-24 -24.667 -45.833 -51.667 -65.5 -81s-36.5 -61.5 -50.5 -96.5s-25 -73.333 -33 -115s-12 -86.834 -12 -135.501c0 -97.333 15 -180.666 45 -249.999s69 -128.333 117 -177c5.33301 -6.66699 8 -12.667 8 -18
c0 -2.66699 -2.16699 -5.83398 -6.5 -9.50098s-8.83301 -5.5 -13.5 -5.5c-6.66699 0 -13 2.66699 -19 8c-20.667 19.333 -44 43.166 -70 71.499s-49.667 64.5 -71 108.5c-18.667 38 -33 79.667 -43 125s-15 94.333 -15 147z" />
    <glyph glyph-name="parenright" unicode=")" horiz-adv-x="330" 
d="M270 287c0 -53.333 -6.16602 -101.5 -18.499 -144.5s-28.5 -85.833 -48.5 -128.5c-18 -40 -39.333 -75 -64 -105s-47.334 -54.667 -68.001 -74c-6 -5.33301 -12.333 -8 -19 -8c-4.66699 0 -9.16699 1.83301 -13.5 5.5s-6.5 6.83398 -6.5 9.50098c0 5.33301 3 11 9 17
c24 24.667 45.833 51.667 65.5 81s36.5 61.5 50.5 96.5s25 73.167 33 114.5s12 86.666 12 135.999c0 48.667 -4 93.667 -12 135s-19 79.5 -33 114.5s-31 67.167 -51 96.5s-42 56.333 -66 81c-5.33301 6.66699 -8 13 -8 19c0 2.66699 2.16699 5.66699 6.5 9s8.83301 5 13.5 5
c6 0 12.333 -2.33301 19 -7c20.667 -19.333 44 -43.333 70 -72s49.667 -65 71 -109c18.667 -38 33 -79.667 43 -125s15 -94.333 15 -147z" />
    <glyph glyph-name="asterisk" unicode="*" horiz-adv-x="328" 
d="M164 399c-11.333 0 -19.4971 3.50098 -24.4971 10.501s-7.5 15.167 -7.5 24.5c0 2.66699 1.5 10.334 4.5 23.001l9.5 40c3.33301 14 6.66602 26.667 9.99902 38s5 17.666 5 18.999h-2l-17 -16.5l-27 -26.5l-26.5 -26c-8.33301 -8 -13.833 -12.667 -16.5 -14
c-8.66699 -5.33301 -17.5 -7.66602 -26.5 -6.99902s-16.167 5.66699 -21.5 15c-4 6 -5.83301 11.667 -5.5 17s1.66602 9.83301 3.99902 13.5s5.16602 6.83398 8.49902 9.50098s6 4.66699 8 6c2.66699 2 10.167 5 22.5 9s25.333 8 39 12s26.334 7.5 38.001 10.5
s18.167 4.5 19.5 4.5v2c-1.33301 0 -7.83301 1.5 -19.5 4.5l-39 10.5l-40.5 11c-12.667 3.33301 -20.334 5.66602 -23.001 6.99902c-6.66699 3.33301 -12.334 8.66602 -17.001 15.999s-4 16.333 2 27c6 11.333 13.667 16.833 23 16.5s17.666 -2.5 24.999 -6.5
c2.66699 -1.33301 8.83398 -6.16602 18.501 -14.499l30 -27l28 -26.5l13.5 -13l2 2c0 0.666992 -1.66699 6.83398 -5 18.501s-6.66602 24.5 -9.99902 38.5l-9.5 40c-3 12.667 -4.5 20.334 -4.5 23.001c0 9.33301 2.5 17.166 7.5 23.499s13.167 9.5 24.5 9.5
c12.667 0 21.167 -2.83301 25.5 -8.5s6.5 -13.834 6.5 -24.501c0 -3.33301 -1.5 -11.333 -4.5 -24l-9.5 -40l-9.5 -38.5c-3 -11.667 -4.83301 -17.834 -5.5 -18.501l2 -2l13.5 14c8.33301 8.66699 17.833 18 28.5 28l30 28c9.33301 8.66699 15.333 13.667 18 15
c7.33301 4 15.166 5.5 23.499 4.5s15.166 -6.16699 20.499 -15.5c7.33301 -11.333 9 -20.5 5 -27.5s-10 -12.833 -18 -17.5c-3.33301 -2 -11 -4.83301 -23 -8.5s-25 -7.33398 -39 -11.001s-26.667 -6.83398 -38 -9.50098s-17.666 -4 -18.999 -4v-2
c0.666992 0 7 -1.66699 19 -5l39.5 -11l40.5 -11.5c12.667 -3.66699 20.334 -6.16699 23.001 -7.5c3.33301 -1.33301 6.66602 -3.16602 9.99902 -5.49902s5.83301 -5.33301 7.5 -9s2.33398 -8.16699 2.00098 -13.5s-2.83301 -11.666 -7.5 -18.999
c-5.33301 -9.33301 -12.833 -14 -22.5 -14s-18.5 2.33301 -26.5 7c-2.66699 1.33301 -8.66699 6.33301 -18 15l-29 27.5l-27 27c-8 8.33301 -12.333 13.166 -13 14.499l-2 -2c0.666992 -1.33301 2.5 -7.5 5.5 -18.5s6.16699 -23.5 9.5 -37.5l9.5 -40
c3 -12.667 4.5 -20.667 4.5 -24c0 -7.33301 -2 -15 -6 -23s-12.667 -12 -26 -12z" />
    <glyph glyph-name="plus" unicode="+" 
d="M221 40v172h-165v56h165v172h60v-172h163v-56h-163v-172h-60z" />
    <glyph glyph-name="comma" unicode="," horiz-adv-x="254" 
d="M115 115c8.66699 0 18.1621 -2.00098 28.4951 -6.00098s19.833 -10 28.5 -18s15.834 -18 21.501 -30s8.5 -26 8.5 -42c0 -26 -5.16699 -50 -15.5 -72s-22.166 -41 -35.499 -57s-26.5 -29.167 -39.5 -39.5s-21.833 -16.833 -26.5 -19.5
c-3.33301 -1.33301 -6.66602 -3.16602 -9.99902 -5.49902s-6.66602 -3.5 -9.99902 -3.5c-8 0 -12 3 -12 9c0 3.33301 0.5 5.83301 1.5 7.5s3.5 4.16699 7.5 7.5c6 5.33301 13 12.333 21 21s15.833 18.5 23.5 29.5s14 22.833 19 35.5s7.5 26 7.5 40
c0 6.66699 -1.83301 13 -5.5 19s-7.5 9.66699 -11.5 11c-2.66699 0.666992 -7.16699 2.16699 -13.5 4.5s-12.666 6 -18.999 11s-12 11.5 -17 19.5s-7.5 18.333 -7.5 31s4.83301 23.667 14.5 33s23.5 14 41.5 14z" />
    <glyph glyph-name="hyphen" unicode="-" horiz-adv-x="404" 
d="M52 287c0 4.66699 3 7 9 7h280c7.33301 0 11 -3.66699 11 -11v-38c0 -4.66699 -4 -7 -12 -7h-279c-6 -0.666992 -9 1 -9 5v44z" />
    <glyph glyph-name="period" unicode="." horiz-adv-x="254" 
d="M130 -12c-5.33301 0 -11.6699 0.833008 -19.0029 2.5s-14.166 4.83398 -20.499 9.50098s-11.666 10.667 -15.999 18s-6.5 17 -6.5 29c0 4 0.833008 9.16699 2.5 15.5s4.83398 12.5 9.50098 18.5s11 11.167 19 15.5s18.333 6.5 31 6.5c14.667 0 27.667 -5.33301 39 -16
s17 -25.334 17 -44.001c0 -16.667 -5.5 -30 -16.5 -40s-24.167 -15 -39.5 -15z" />
    <glyph glyph-name="slash" unicode="/" horiz-adv-x="350" 
d="M300 719c2.66699 6 7 8 13 6l32 -13c5.33301 -2 6.66602 -6.66699 3.99902 -14l-299 -704c-3.33301 -8 -7.66602 -10.667 -12.999 -8l-34 17c-4 2 -4.33301 6.33301 -1 13z" />
    <glyph glyph-name="zero" unicode="0" 
d="M256 21c15.333 0 31.8369 4.50098 49.5039 13.501s33.167 28.167 46.5 57.5c5.33301 12 10 26 14 42s7.16699 34.833 9.5 56.5s4.16602 46.5 5.49902 74.5s2 60.333 2 97s-3 72.167 -9 106.5s-14.833 64.666 -26.5 90.999s-25.834 47.5 -42.501 63.5s-35.667 24 -57 24
c-19.333 0 -36.333 -4.33301 -51 -13s-27.667 -24.334 -39 -47.001c-9.33301 -17.333 -16.5 -37.333 -21.5 -60s-9 -46 -12 -70s-4.83301 -48.167 -5.5 -72.5s-1 -46.833 -1 -67.5c0 -93.333 11.333 -163.666 34 -210.999c15.333 -33.333 32.166 -55.833 50.499 -67.5
s36.166 -17.5 53.499 -17.5zM255.004 -14.999c-40.667 0 -75.168 10.667 -103.501 32s-51.5 48 -69.5 80s-31 66.333 -39 103s-12 70 -12 100c0 57.333 5.66699 109.5 17 156.5s26.833 87.333 46.5 121s43.167 59.667 70.5 78s57 27.5 89 27.5
c36.667 0 68.5 -10.667 95.5 -32s49.333 -48.833 67 -82.5s30.834 -70.667 39.501 -111s13 -79.5 13 -117.5c0 -57.333 -5.16699 -108 -15.5 -152s-24.833 -81 -43.5 -111s-41.167 -52.833 -67.5 -68.5s-55.5 -23.5 -87.5 -23.5z" />
    <glyph glyph-name="one" unicode="1" 
d="M226 361c0 6.66699 0.163086 21.502 0.496094 44.502s0.166016 54.5 -0.500977 94.5c-0.666992 17.333 -2.5 31 -5.5 41s-9.16699 15 -18.5 15s-22.666 -2.66699 -39.999 -8l-70 -23c-5.33301 -1.33301 -8.66602 -0.333008 -9.99902 3l-8 18c-2 4.66699 0 8.66699 6 12
l207 119c2.66699 1.33301 5 2.66602 7 3.99902s4.33301 2 7 2c4.66699 0 7 -4.66699 7 -14c0 -2 -0.166992 -12.5 -0.5 -31.5s-0.666016 -42.667 -0.999023 -71s-0.666016 -59.5 -0.999023 -93.5s-0.5 -67 -0.5 -99v-42v-21v-43c0 -16.667 0.166992 -34.667 0.5 -54
s0.5 -37.5 0.5 -54.5v-43.5v-21c0 -13.333 0.666992 -23.833 2 -31.5s4.33301 -13.5 9 -17.5s11.667 -6.66699 21 -8s22 -2 38 -2h36c6.66699 0 10 -2.66699 10 -8v-23c0 -5.33301 -3 -8 -9 -8c-2 0 -10.833 0.166992 -26.5 0.5s-32.5 0.666016 -50.5 0.999023
s-34.833 0.666016 -50.5 0.999023s-24.5 0.5 -26.5 0.5s-11 -0.166992 -27 -0.5s-33.333 -0.666016 -52 -0.999023s-35.667 -0.666016 -51 -0.999023s-23.666 -0.5 -24.999 -0.5c-5.33301 0 -8 2.66699 -8 8v25c0 4 4.66699 6 14 6h46c16 0 28.5 0.5 37.5 1.5
s15.833 3.33301 20.5 7s7.5 9.16699 8.5 16.5s1.83301 17.666 2.5 30.999c0 2 0.166992 8.83301 0.5 20.5s0.5 25.667 0.5 42v52.5v52.5v42.5v23v36z" />
    <glyph glyph-name="two" unicode="2" 
d="M98 0c-8.66699 0 -17.334 -0.164062 -26.001 -0.49707s-16.667 -0.833008 -24 -1.5s-13.833 -1.16699 -19.5 -1.5s-9.5 -0.5 -11.5 -0.5c-2.66699 0 -4.83398 0.166992 -6.50098 0.5s-3.16699 2.16602 -4.5 5.49902c-2.66699 5.33301 -1.66699 10.333 3 15l42.5 38.5
l53 49l59 57l60.5 62.5c40 43.333 70.833 84.833 92.5 124.5s31.834 81.5 30.501 125.5c-1.33301 44.667 -14.166 79.5 -38.499 104.5s-54.5 37.167 -90.5 36.5c-21.333 0 -39.5 -3.66699 -54.5 -11s-27.667 -16.166 -38 -26.499s-18.833 -21 -25.5 -32
s-12 -20.167 -16 -27.5c-3.33301 -6 -7.33301 -7.66699 -12 -5l-14 6c-3.33301 2 -3.33301 6.66699 0 14c4 10 10.333 23.333 19 40s20.834 33.167 36.501 49.5s35.167 30.5 58.5 42.5s52 18 86 18c20.667 0 41.5 -4.16699 62.5 -12.5s39.833 -20.333 56.5 -36
s30.167 -34.834 40.5 -57.501s15.5 -48 15.5 -76c0 -21.333 -2.16699 -42 -6.5 -62s-11.5 -40.333 -21.5 -61s-22.833 -42 -38.5 -64s-34.834 -45.667 -57.501 -71c-17.333 -19.333 -34.833 -37.5 -52.5 -54.5s-35 -32.833 -52 -47.5l-48 -40c-15 -12 -27.833 -23 -38.5 -33
h203c16.667 0 31.167 2.66699 43.5 8s23 12 32 20s16.667 17 23 27s12.166 19.667 17.499 29c2.66699 4.66699 5 7.33398 7 8.00098s5.66699 -0.333008 11 -3c8.66699 -4.66699 11.334 -9.33398 8.00098 -14.001l-65 -156c-1.33301 -2.66699 -2 -4.83398 -2 -6.50098
s-0.166992 -2.83398 -0.5 -3.50098s-1.33301 -1 -3 -1h-9.5c-4.66699 0 -7.5 0.5 -8.5 1.5s-2.5 3.83301 -4.5 8.5c-3.33301 6.66699 -9.5 10.667 -18.5 12s-21.167 2 -36.5 2h-217z" />
    <glyph glyph-name="three" unicode="3" 
d="M185 -15c-29.333 0 -53.6699 2.83203 -73.0029 8.49902s-34.666 12.5 -45.999 20.5s-19.333 16.5 -24 25.5s-7 17.167 -7 24.5c0 13.333 3.33301 23.833 10 31.5s14.334 11.5 23.001 11.5c8 0 14.667 -2 20 -6s9.5 -8.66699 12.5 -14s5 -10.333 6 -15
s1.83301 -7.66699 2.5 -9c1.33301 -2.66699 3.66602 -6.33398 6.99902 -11.001s8.5 -9.16699 15.5 -13.5s16.167 -8.16602 27.5 -11.499s25.666 -5 42.999 -5c22.667 0 43.167 3.83301 61.5 11.5s33.833 17.834 46.5 30.501s22.334 27.334 29.001 44.001s10 33.667 10 51
c0 25.333 -3.66699 48 -11 68s-17.5 37.5 -30.5 52.5s-28.333 27.333 -46 37s-36.5 16.834 -56.5 21.501c-9.33301 2 -14.666 3.16699 -15.999 3.5s-2 4.16602 -2 11.499c0 5.33301 0.833008 8.66602 2.5 9.99902s4.83398 2.66602 9.50098 3.99902
c16 2.66699 31.833 8 47.5 16s29.5 18.167 41.5 30.5s21.833 26.5 29.5 42.5s11.5 33.667 11.5 53c0 32 -9 58.667 -27 80s-43 32 -75 32c-18.667 0 -35 -3 -49 -9s-26.333 -14 -37 -24s-19.834 -21.667 -27.501 -35s-14.167 -27 -19.5 -41
c-2.66699 -7.33301 -6 -10.666 -10 -9.99902l-18 4c-2.66699 1.33301 -3 6.33301 -1 15c3.33301 17.333 9.83301 35.5 19.5 54.5s22.167 36.5 37.5 52.5s34 29.167 56 39.5s47 15.5 75 15.5c27.333 0 50.333 -4.5 69 -13.5s33.834 -20 45.501 -33s20.167 -27.167 25.5 -42.5
s8 -29.333 8 -42c0 -21.333 -3.33301 -40.833 -10 -58.5s-15.5 -33.5 -26.5 -47.5s-23.167 -26.5 -36.5 -37.5s-26.333 -20.5 -39 -28.5c16.667 -4 33.667 -11.333 51 -22s33 -23.667 47 -39s25.5 -32.666 34.5 -51.999s13.5 -40 13.5 -62c0 -32 -6.66699 -61.5 -20 -88.5
s-31.5 -50.333 -54.5 -70s-49.5 -34.834 -79.5 -45.501s-62 -16 -96 -16z" />
    <glyph glyph-name="four" unicode="4" 
d="M314 523c0 8 -1.99902 12.668 -5.99902 14.001s-8.33301 -1.33398 -13 -8.00098l-184 -254c-12.667 -18 -10.334 -27 6.99902 -27h196v275zM325.001 0.000976562c-8 0 -12 3.66797 -12 11.001v176h-279c-10 0 -15 4 -15 12c0 3.33301 0.833008 6.16602 2.5 8.49902
s4.16699 6.16602 7.5 11.499l325 448c3.33301 4 6.83301 7.66699 10.5 11s7.5 5 11.5 5c4.66699 0 8 -2.16699 10 -6.5s3 -12.166 3 -23.499v-400h81c8 0 12 -2.66699 12 -8v-48c0 -3.33301 -1 -5.83301 -3 -7.5s-6.33301 -2.5 -13 -2.5h-77v-173
c0 -5.33301 -0.833008 -9 -2.5 -11s-5.5 -3 -11.5 -3h-50z" />
    <glyph glyph-name="five" unicode="5" 
d="M141 430c6 0.666992 14.3369 0.667969 25.0039 0.000976562s21.667 -1.5 33 -2.5s22.166 -2.33301 32.499 -4s18.166 -3.16699 23.499 -4.5c49.333 -13.333 87.333 -36.333 114 -69s40 -71.667 40 -117c0 -36 -6.66699 -69.167 -20 -99.5s-31.5 -56.5 -54.5 -78.5
s-49.833 -39.167 -80.5 -51.5s-63 -18.5 -97 -18.5c-18.667 0 -35.834 1.5 -51.501 4.5s-29.334 7.16699 -41.001 12.5s-20.834 11.333 -27.501 18s-10 13.667 -10 21s2 13.5 6 18.5s9.33301 7.5 16 7.5c9.33301 0 18.166 -2.16699 26.499 -6.5
s16.166 -8.83301 23.499 -13.5s18.5 -9 33.5 -13s30.167 -6 45.5 -6c19.333 0 38.333 3.83301 57 11.5s35.334 18.5 50.001 32.5s26.5 30.333 35.5 49s13.5 39 13.5 61c0 35.333 -6.5 66.166 -19.5 92.499s-35.833 46.5 -68.5 60.5c-27.333 12 -52.5 19 -75.5 21
s-41.167 2.33301 -54.5 1c-3.33301 -0.666992 -6.33301 -1 -9 -1s-5.66699 1 -9 3c-4 2 -5.66699 5.66699 -5 11l36 282c0.666992 6 1.83398 10.167 3.50098 12.5s5.83398 3.5 12.501 3.5h214c17.333 0 29.666 4.16699 36.999 12.5s15.333 20.833 24 37.5
c2.66699 5.33301 6.66699 7 12 5c5.33301 -2.66699 9.33301 -4.5 12 -5.5s3.33398 -3.16699 2.00098 -6.5l-36 -100c-3.33301 -8 -7.5 -13.333 -12.5 -16s-15.167 -4 -30.5 -4h-208z" />
    <glyph glyph-name="six" unicode="6" 
d="M258 17c5.33301 0 14.3301 1.33301 26.9971 4s25.334 9.66699 38.001 21s23.834 28.333 33.501 51s14.5 53.667 14.5 93c0 22 -2.66699 43 -8 63s-13.166 37.5 -23.499 52.5s-23 26.833 -38 35.5s-32.167 13 -51.5 13c-30 0 -52.5 -5 -67.5 -15s-25.5 -21.333 -31.5 -34
c-7.33301 -13.333 -12.833 -29.5 -16.5 -48.5s-5.5 -39.167 -5.5 -60.5c0 -12.667 1 -29 3 -49s7.33301 -39.333 16 -58s21.667 -34.667 39 -48s41 -20 71 -20zM251.997 -15c-65.333 0 -113.331 18.3311 -143.998 54.998c-12.667 13.333 -23 28 -31 44
s-14.5 32.167 -19.5 48.5s-8.5 32.333 -10.5 48s-3 30.167 -3 43.5c0 62.667 12 123.834 36 183.501s62.667 115.5 116 167.5c24 23.333 48.833 43 74.5 59s49.834 28.667 72.501 38c16.667 7.33301 29 11 37 11c3.33301 0 6.16602 -0.833008 8.49902 -2.5
s3.5 -4.16699 3.5 -7.5c0 -8 -3 -13.333 -9 -16c-20 -9.33301 -42.5 -23 -67.5 -41s-49 -40 -72 -66s-43.5 -56.167 -61.5 -90.5s-30 -71.833 -36 -112.5c16 14 34.833 25.167 56.5 33.5s47.167 12.5 76.5 12.5c31.333 0 58.166 -6.16699 80.499 -18.5
s40.666 -27.5 54.999 -45.5s24.833 -37.167 31.5 -57.5s10 -38.5 10 -54.5c0 -23.333 -1.66699 -43.666 -5 -60.999s-7.66602 -32.833 -12.999 -46.5s-11.833 -25.667 -19.5 -36s-15.834 -19.833 -24.501 -28.5c-18.667 -20 -39 -35 -61 -45s-49 -15 -81 -15z" />
    <glyph glyph-name="seven" unicode="7" 
d="M476 668c6.66699 0 10.002 -3 10.002 -9c0 -2.66699 -0.333008 -5 -1 -7s-2.66699 -5.66699 -6 -11c-1.33301 -2.66699 -6.83301 -13 -16.5 -31l-34 -65l-40.5 -82c-14 -29.333 -26 -56.333 -36 -81l-19.5 -44.5l-36 -85.5l-42.5 -107c-14.667 -38 -27 -74.333 -37 -109
c-6 -20.667 -13.5 -34.334 -22.5 -41.001s-18.167 -10 -27.5 -10c-12.667 0 -22.334 3.33301 -29.001 10s-10 15.667 -10 27c0 6 1.16699 13 3.5 21s5.33301 16.167 9 24.5l11.5 25l11 22.5l20 39l39 75l50 96l53 102.5l49 94.5l37 72h-237
c-15.333 0 -27.833 -1.66699 -37.5 -5s-18 -8 -25 -14s-13.5 -13.333 -19.5 -22l-20 -29c-4.66699 -6 -11 -6.66699 -19 -2c-4.66699 2.66699 -7.16699 4.66699 -7.5 6s0.166992 4.33301 1.5 9l62 161c1.33301 3.33301 2.83301 5.33301 4.5 6s5.5 1 11.5 1
c5.33301 0 9.16602 -1.16699 11.499 -3.5s2.83301 -7.16602 1.5 -14.499s1.5 -12.333 8.5 -15s23.167 -4 48.5 -4h281z" />
    <glyph glyph-name="eight" unicode="8" 
d="M257 642c-18 0 -34.334 -3.33496 -49.001 -10.002s-27.167 -15.834 -37.5 -27.501s-18.5 -25.167 -24.5 -40.5s-9 -31.666 -9 -48.999c0 -18 2.83301 -33.667 8.5 -47s14.334 -25.666 26.001 -36.999s25.834 -22.5 42.501 -33.5s36 -22.833 58 -35.5
c12 8 24.167 17.5 36.5 28.5s23.333 23.167 33 36.5s17.667 27.833 24 43.5s10.166 31.834 11.499 48.501c0.666992 18 -2 34.667 -8 50s-14.333 28.333 -25 39s-23.5 19 -38.5 25s-31.167 9 -48.5 9zM254.999 18.998c36 0 64.832 9.83496 86.499 29.502
s32.5 50.5 32.5 92.5c0 20 -3.83301 37.667 -11.5 53s-18.167 29.166 -31.5 41.499s-28.666 23.666 -45.999 33.999s-36 20.833 -56 31.5c-32 -18 -56.667 -40.667 -74 -68s-26 -57 -26 -89c0 -22 3.83301 -40.833 11.5 -56.5s17.5 -28.5 29.5 -38.5s25.5 -17.5 40.5 -22.5
s29.833 -7.5 44.5 -7.5zM248.998 -15c-34 0 -62.667 4.5 -86 13.5s-42.166 20.333 -56.499 34s-24.666 29 -30.999 46s-9.5 33.5 -9.5 49.5c0 42.667 11 78.5 33 107.5s54.333 57.167 97 84.5c-18.667 10.667 -36.334 21.834 -53.001 33.501s-31.167 24.5 -43.5 38.5
s-22.166 29.167 -29.499 45.5s-11 34.166 -11 53.499c0 22 4.5 44.333 13.5 67s22.5 43.167 40.5 61.5s40.333 33.5 67 45.5s57.667 18 93 18c22.667 0 44.334 -3.66699 65.001 -11s38.834 -17 54.501 -29s28 -25.667 37 -41s13.5 -31.333 13.5 -48
c0 -24 -2.16699 -45 -6.5 -63s-11.833 -35 -22.5 -51s-24.834 -31.833 -42.501 -47.5s-39.834 -32.834 -66.501 -51.501c20 -9.33301 38.667 -19.666 56 -30.999s32.166 -24.333 44.499 -39s22.166 -31 29.499 -49s11 -38.333 11 -61c0 -19.333 -4.66699 -39.5 -14 -60.5
s-22.5 -40 -39.5 -57s-37.667 -31 -62 -42s-51.5 -16.5 -81.5 -16.5z" />
    <glyph glyph-name="nine" unicode="9" 
d="M249 651c-14.667 0 -29.333 -3.49902 -44 -10.499s-28 -17.667 -40 -32s-21.667 -32 -29 -53s-11 -45.5 -11 -73.5c0 -23.333 3.33301 -45 10 -65s15.5 -37.167 26.5 -51.5s24 -25.5 39 -33.5s31.167 -12 48.5 -12c29.333 0 51.833 6.16699 67.5 18.5
s26.834 25.166 33.501 38.499c6 12.667 10 27.167 12 43.5s3 34.833 3 55.5c0 22 -1.83301 43.5 -5.5 64.5s-9.83398 39.667 -18.501 56s-20.5 29.5 -35.5 39.5s-33.833 15 -56.5 15zM246.001 683.001c18 0 33.9971 -1.33301 47.9971 -4s27 -6.83398 39 -12.501
s23.5 -13 34.5 -22s22.167 -19.5 33.5 -31.5c11.333 -12.667 20.5 -26.834 27.5 -42.501s12.5 -31 16.5 -46s6.66699 -28.833 8 -41.5s2 -23 2 -31c0 -67.333 -12.5 -133.833 -37.5 -199.5s-66.833 -124.5 -125.5 -176.5c-12.667 -11.333 -24.667 -21.166 -36 -29.499
s-22.666 -15.833 -33.999 -22.5s-23 -12.5 -35 -17.5s-25 -9.83301 -39 -14.5c-5.33301 -1.33301 -11 -2.83301 -17 -4.5s-10.667 -2.5 -14 -2.5c-4 0 -7.5 1 -10.5 3s-4.5 5.66699 -4.5 11c0 6.66699 3 11.334 9 14.001c22 8.66699 45.833 22 71.5 40s50.334 40 74.001 66
s44.334 56.167 62.001 90.5s29.167 72.5 34.5 114.5l-1 2c-13.333 -12.667 -29.5 -24 -48.5 -34s-43.5 -15 -73.5 -15c-34.667 0 -63.834 6 -87.501 18s-42.667 27.5 -57 46.5s-24.666 40.333 -30.999 64s-9.5 47.5 -9.5 71.5c0 9.33301 2 21.166 6 35.499
s9.5 28.833 16.5 43.5s15 28.834 24 42.501s18.167 24.5 27.5 32.5c19.333 17.333 40 30.333 62 39s43.667 13 65 13z" />
    <glyph glyph-name="colon" unicode=":" horiz-adv-x="254" 
d="M130 314c-5.33301 0 -11.6699 0.833008 -19.0029 2.5s-14.166 4.83398 -20.499 9.50098s-11.666 10.667 -15.999 18s-6.5 17 -6.5 29c0 4 0.833008 9.16699 2.5 15.5s4.83398 12.5 9.50098 18.5s11 11.167 19 15.5s18.333 6.5 31 6.5c14.667 0 27.667 -5.33301 39 -16
s17 -25.334 17 -44.001c0 -16.667 -5.5 -30 -16.5 -40s-24.167 -15 -39.5 -15zM129.996 -12c-5.33301 0 -11.6699 0.833008 -19.0029 2.5s-14.166 4.83398 -20.499 9.50098s-11.666 10.667 -15.999 18s-6.5 17 -6.5 29c0 4 0.833008 9.16699 2.5 15.5
s4.83398 12.5 9.50098 18.5s11 11.167 19 15.5s18.333 6.5 31 6.5c14.667 0 27.667 -5.33301 39 -16s17 -25.334 17 -44.001c0 -16.667 -5.5 -30 -16.5 -40s-24.167 -15 -39.5 -15z" />
    <glyph glyph-name="semicolon" unicode=";" horiz-adv-x="254" 
d="M115 314c-5.33301 0 -11.6689 0.833008 -19.002 2.5s-14.166 4.83398 -20.499 9.50098s-11.666 10.667 -15.999 18s-6.5 17 -6.5 29c0 4 1 9.16699 3 15.5s5.33301 12.5 10 18.5s11 11.167 19 15.5s18 6.5 30 6.5c14.667 0 27.667 -5.33301 39 -16s17 -25.334 17 -44.001
c0 -16.667 -5.5 -30 -16.5 -40s-24.167 -15 -39.5 -15zM114.997 115c8.66699 0 18.1621 -2.00098 28.4951 -6.00098s19.833 -10 28.5 -18s15.834 -18 21.501 -30s8.5 -26 8.5 -42c0 -26 -5.16699 -50 -15.5 -72s-22.166 -41 -35.499 -57s-26.5 -29.167 -39.5 -39.5
s-21.833 -16.833 -26.5 -19.5c-3.33301 -1.33301 -6.66602 -3.16602 -9.99902 -5.49902s-6.66602 -3.5 -9.99902 -3.5c-8 0 -12 3 -12 9c0 3.33301 0.5 5.83301 1.5 7.5s3.5 4.16699 7.5 7.5c6 5.33301 13 12.333 21 21s15.833 18.5 23.5 29.5s14 22.833 19 35.5
s7.5 26 7.5 40c0 6.66699 -1.83301 13 -5.5 19s-7.5 9.66699 -11.5 11c-2.66699 0.666992 -7.16699 2.16699 -13.5 4.5s-12.666 6 -18.999 11s-12 11.5 -17 19.5s-7.5 18.333 -7.5 31s4.83301 23.667 14.5 33s23.5 14 41.5 14z" />
    <glyph glyph-name="less" unicode="&#x3c;" 
d="M84 225v32l311 183v-66l-221 -128v-5l221 -133v-68z" />
    <glyph glyph-name="equal" unicode="=" 
d="M444 196v-56h-388v56h388zM444 347v-56h-388v56h388z" />
    <glyph glyph-name="greater" unicode="&#x3e;" 
d="M416 255v-32l-311 -183v66l221 128v5l-221 133v68z" />
    <glyph glyph-name="question" unicode="?" horiz-adv-x="370" 
d="M136 -12c-14.667 0 -27.334 4.83398 -38.001 14.501s-16 22.167 -16 37.5s5 28.333 15 39s23.667 16 41 16c14 0 26.667 -5.33301 38 -16s17 -23.334 17 -38.001c0 -13.333 -5.16699 -25.5 -15.5 -36.5s-24.166 -16.5 -41.499 -16.5zM144 183.001
c0 -4.66699 -2.3291 -7 -6.99609 -7h-19c-4.66699 0 -7 2.33301 -7 7v189c0 5.33301 0.833008 8.5 2.5 9.5s4.5 0.833008 8.5 -0.5c11.333 -2 22.833 -3 34.5 -3h31.5c8 0 18 1.16699 30 3.5s23.5 6.5 34.5 12.5s20.5 14 28.5 24s12 23 12 39c0 20 -5.5 37.167 -16.5 51.5
s-23.5 27.166 -37.5 38.499c-12.667 10 -23.834 18.167 -33.501 24.5s-18.834 11.333 -27.501 15s-17.334 6 -26.001 7s-18.334 1.5 -29.001 1.5c-20.667 0 -37.667 4.83301 -51 14.5s-20 21.167 -20 34.5c0 2 0.5 5 1.5 9s3.33301 8.33301 7 13s8.66699 8.66699 15 12
s14.5 5 24.5 5c20.667 0 44.5 -7.83301 71.5 -23.5s52.667 -36 77 -61s44.833 -53 61.5 -84s25 -61.833 25 -92.5c0 -31.333 -6.83301 -55.333 -20.5 -72s-30.167 -28.667 -49.5 -36s-39.5 -11.666 -60.5 -12.999s-38.5 -2.33301 -52.5 -3c-5.33301 0 -8 -2.66699 -8 -8
v-107z" />
    <glyph glyph-name="at" unicode="@" horiz-adv-x="786" 
d="M560 40c-8 -7.33301 -19.4932 -14.1699 -34.4932 -20.5029s-32.167 -12.166 -51.5 -17.499s-40.333 -9.5 -63 -12.5s-45.667 -4.5 -69 -4.5c-48.667 0 -92.334 6.83301 -131.001 20.5s-71.334 33 -98.001 58s-47 54.5 -61 88.5s-21 71.667 -21 113
c0 59.333 12.833 116.5 38.5 171.5s59.667 103.833 102 146.5s90.333 76.667 144 102s108.5 38 164.5 38c43.333 0 81.666 -6.33301 114.999 -19s61.166 -30.5 83.499 -53.5s39.166 -51 50.499 -84s17 -69.833 17 -110.5c0 -32.667 -6.5 -65.5 -19.5 -98.5
s-31.667 -63 -56 -90s-54.166 -49 -89.499 -66s-75 -25.5 -119 -25.5c-9.33301 0 -17.833 3.33301 -25.5 10s-11.5 14.334 -11.5 23.001c0 7.33301 2.5 20.5 7.5 39.5s14.167 45.5 27.5 79.5l-4 2c-10 -14 -23 -29.833 -39 -47.5s-33.333 -34.5 -52 -50.5
s-38.334 -29.333 -59.001 -40s-40.334 -16 -59.001 -16c-12.667 0 -24.334 4.83301 -35.001 14.5s-16 24.167 -16 43.5c0 22 4.33301 45.5 13 70.5s20.334 49.5 35.001 73.5s31.5 47.167 50.5 69.5s39 41.833 60 58.5s42.333 30 64 40s42.167 15 61.5 15s33.5 -4 42.5 -12
s15.167 -15.667 18.5 -23l13 19c3.33301 4.66699 6.66602 7 9.99902 7h38c4 0 6.16699 -1.16699 6.5 -3.5s-0.166992 -4.5 -1.5 -6.5c-3.33301 -6 -8.83301 -17.5 -16.5 -34.5l-23 -53.5l-21.5 -52l-12 -29c-3.33301 -7.33301 -7.33301 -17.166 -12 -29.499l-14 -38.5
c-4.66699 -13.333 -8.5 -26.333 -11.5 -39s-4.5 -23 -4.5 -31c0 -13.333 9.66699 -20 29 -20c13.333 0 29.5 5.16699 48.5 15.5s37 25.833 54 46.5s31.5 46.834 43.5 78.501s18 68.834 18 111.501c0 74 -19 129.167 -57 165.5s-91 54.5 -159 54.5
c-51.333 0 -99 -12.167 -143 -36.5s-82.5 -56 -115.5 -95s-58.833 -82.667 -77.5 -131s-28 -96.833 -28 -145.5c0 -40.667 6.5 -76.834 19.5 -108.501s30.667 -58.334 53 -80.001s48.833 -38.167 79.5 -49.5s64 -17 100 -17c32 0 64.5 2.33301 97.5 7s63.833 16 92.5 34z
M266.007 252.996c0 -21.333 8.00195 -31.999 24.002 -31.999c15.333 0 33.166 7.83301 53.499 23.5s40.166 33.667 59.499 54s36.333 40.5 51 60.5s24 34 28 42c18 34.667 27 60.667 27 78c0 14 -3.66699 26.333 -11 37s-17.666 16 -30.999 16
c-14 0 -28.667 -4.83301 -44 -14.5s-30.333 -22.5 -45 -38.5s-28.834 -34 -42.501 -54s-25.667 -40.333 -36 -61s-18.5 -40.834 -24.5 -60.501s-9 -36.5 -9 -50.5z" />
    <glyph glyph-name="A" unicode="A" horiz-adv-x="743" 
d="M453 314c-1.33301 4.66699 -4.50098 15 -9.50098 31l-18 55.5l-21.5 66.5l-21 65.5l-17 51.5c-4.66699 14 -7.33398 22.333 -8.00098 25c-1.33301 3.33301 -2.66602 6.5 -3.99902 9.5s-2.66602 4.5 -3.99902 4.5c-2 0 -4 -1.5 -6 -4.5s-3.66699 -6.5 -5 -10.5
c-0.666992 -2 -3.66699 -10.167 -9 -24.5l-19.5 -52l-24.5 -66l-24.5 -67l-19.5 -55l-10 -29.5h221zM218.999 278c-2.66699 -6 -7.50195 -18.834 -14.502 -38.501l-22.5 -62c-8 -21.667 -15.167 -42 -21.5 -61s-10.166 -31.167 -11.499 -36.5
c-0.666992 -3.33301 -1.33398 -7.16602 -2.00098 -11.499s-1 -7.83301 -1 -10.5c0 -14.667 11.333 -22 34 -22h47c6.66699 0 10 -2.33301 10 -7v-23c0 -6 -2.66699 -9 -8 -9c-7.33301 0 -20.666 0.5 -39.999 1.5s-44 1.5 -74 1.5c-18 -0 -33.167 -0.166992 -45.5 -0.5
s-22.666 -0.666016 -30.999 -0.999023s-15 -0.666016 -20 -0.999023s-9.16699 -0.5 -12.5 -0.5c-4.66699 0 -7 2.66699 -7 8v24c0 4.66699 2.66699 7 8 7h35c15.333 0 27 3.66699 35 11s15.667 19 23 35c2 4 7.33301 17.167 16 39.5l30 77.5l34.5 89.5l28.5 76.5
c1.33301 3.33301 4.33301 11.5 9 24.5l17 46.5l21.5 57.5l22 58l18 48c5 13.667 8.16699 22.834 9.5 27.501c1.33301 5.33301 2.66602 11 3.99902 17s0.333008 11.667 -3 17l-4.5 6.5c-1.66699 2.33301 -2.5 4.5 -2.5 6.5c0 4 3 7 9 9c6.66699 1.33301 14.334 4 23.001 8
s17 8.5 25 13.5s15.167 10.167 21.5 15.5s10.833 9.66602 13.5 12.999l6.5 6.5c1.66699 1.66699 3.83398 2.5 6.50098 2.5c3.33301 0 5.66602 -1.5 6.99902 -4.5s2.66602 -7.16699 3.99902 -12.5c4.66699 -16 12.5 -40.167 23.5 -72.5l34.5 -102.5l34.5 -103
c11 -32.667 18.833 -57 23.5 -73l24 -74.5l30.5 -90.5l29 -81c9 -24 15.167 -39.667 18.5 -47c8.66699 -16.667 19 -28.334 31 -35.001s24.333 -10 37 -10h33c5.33301 0 8 -2.33301 8 -7v-25c0 -4.66699 -3.33301 -7 -10 -7c-4.66699 0 -9.66699 0.166992 -15 0.5
s-12.5 0.666016 -21.5 0.999023s-20.167 0.666016 -33.5 0.999023s-30 0.5 -50 0.5c-41.333 0 -72.333 -0.5 -93 -1.5s-36.667 -1.5 -48 -1.5c-5.33301 0 -8 3 -8 9v23c0 4.66699 3 7 9 7h25c14 0 23.333 2.83301 28 8.5s5.33398 15.5 2.00098 29.5
c-2 8.66699 -5.83301 22.334 -11.5 41.001l-18 59.5l-19 60l-14.5 43.5h-246z" />
    <glyph glyph-name="B" unicode="B" horiz-adv-x="660" 
d="M226 396c9.33301 -1.33301 18.3301 -2.00098 26.9971 -2.00098h26c28.667 0 53.834 2.16699 75.501 6.5s38.5 10.833 50.5 19.5c20.667 15.333 35.167 33.666 43.5 54.999s12.5 43 12.5 65c0 19.333 -3.5 38.333 -10.5 57s-19.833 34.667 -38.5 48
c-18 12.667 -39 21.5 -63 26.5s-48.667 7.5 -74 7.5c-7.33301 0 -13.666 0.166992 -18.999 0.5s-10 -0.166992 -14 -1.5c-9.33301 -2.66699 -14 -8.66699 -14 -18c0 -5.33301 -0.166992 -14.166 -0.5 -26.499s-0.666016 -27.166 -0.999023 -44.499s-0.5 -36.333 -0.5 -57
v-62v-74zM225.997 299.999v-137.999c0 -46 7.16699 -79.667 21.5 -101s42.166 -32 83.499 -32c20.667 0 40.834 2.66699 60.501 8s36.834 14.333 51.501 27s26.5 29 35.5 49s13.5 45 13.5 75c0 40.667 -9.16699 74.167 -27.5 100.5s-42.5 45.166 -72.5 56.499
c-20.667 8 -42.334 12.833 -65.001 14.5s-45.667 2.5 -69 2.5h-32v-62zM137.997 435c0 9.33301 -0.169922 23.001 -0.50293 41.001l-1 55c-0.333008 18.667 -0.666016 35.667 -0.999023 51s-0.5 25.333 -0.5 30c-0.666992 14.667 -2.33398 26 -5.00098 34s-6.5 14 -11.5 18
s-11.5 6.33301 -19.5 7s-17.667 1 -29 1h-31c-5.33301 0 -8 2.33301 -8 7v25c0 4.66699 2.66699 7 8 7c8 0 23.167 -0.5 45.5 -1.5s51.5 -1.5 87.5 -1.5c8 0 17.5 0.166992 28.5 0.5l34 1l34.5 1c11.333 0.333008 21.333 0.5 30 0.5c39.333 0 74.333 -2 105 -6
s54.667 -11 72 -21c28.667 -15.333 48.667 -34.333 60 -57s17 -49 17 -79c0 -24.667 -2.66699 -45.167 -8 -61.5s-13.166 -30.5 -23.499 -42.5s-23.166 -22.667 -38.499 -32s-32.666 -19 -51.999 -29l3 -2c48.667 -16 87.834 -39.833 117.501 -71.5
s44.5 -73.834 44.5 -126.501c0 -12.667 -1.83301 -26.334 -5.5 -41.001s-8.83398 -28.834 -15.501 -42.501s-14.834 -26.334 -24.501 -38.001s-20.167 -21.167 -31.5 -28.5c-21.333 -13.333 -47 -22.666 -77 -27.999s-68 -8 -114 -8c-34.667 0 -63 0.5 -85 1.5
s-43.667 1.5 -65 1.5c-12.667 0 -25.5 -0.166992 -38.5 -0.5s-25.333 -0.666016 -37 -0.999023s-22.167 -0.666016 -31.5 -0.999023s-16.333 -0.5 -21 -0.5c-6 0 -9.83301 0.5 -11.5 1.5s-2.5 2.5 -2.5 4.5v26c0 4.66699 3 7 9 7h48c15.333 0 25.333 3.33301 30 10
s8 18 10 34c0.666992 6 1.33398 17.833 2.00098 35.5s1.16699 38 1.5 61l1 72c0.333008 25 0.5 47.833 0.5 68.5v118z" />
    <glyph glyph-name="C" unicode="C" horiz-adv-x="746" 
d="M408 -15c-59.333 0 -108.836 8.50586 -148.503 25.5059s-74.5 39.167 -104.5 66.5c-18 16.667 -33.667 36.167 -47 58.5s-24.5 46 -33.5 71s-15.667 50.333 -20 76s-6.5 50.5 -6.5 74.5c0 46.667 8 93 24 139s42 88 78 126c12.667 13.333 27.667 26.166 45 38.499
s36.666 23.166 57.999 32.499s44.333 16.666 69 21.999s50.667 8 78 8c22.667 0 44.334 -1.83301 65.001 -5.5s39.667 -8.33398 57 -14.001s32.666 -11.667 45.999 -18s24.666 -12.166 33.999 -17.499c6.66699 -4 11.334 -5.83301 14.001 -5.5s4.66699 2.16602 6 5.49902
l8 29c1.33301 3.33301 2.66602 5.16602 3.99902 5.49902s4.33301 0.5 9 0.5s7.66699 -0.833008 9 -2.5s2 -6.16699 2 -13.5c0 -3.33301 0.5 -9.66602 1.5 -18.999s2.33301 -20.5 4 -33.5l5.5 -41.5l5.5 -41.5c1.66699 -13 3.33398 -24.833 5.00098 -35.5
s2.83398 -18.334 3.50098 -23.001c1.33301 -6 0 -9.33301 -4 -10l-15 -4c-2.66699 -0.666992 -4.66699 -0.5 -6 0.5s-2.66602 3.5 -3.99902 7.5c-7.33301 16.667 -16.833 36.167 -28.5 58.5s-28.167 44.166 -49.5 65.499s-45.666 39.5 -72.999 54.5s-61 22.5 -101 22.5
c-44.667 0 -82.834 -9 -114.501 -27s-57.667 -41.5 -78 -70.5s-35 -61.667 -44 -98s-13.5 -72.833 -13.5 -109.5c0 -14.667 1.33301 -32.167 4 -52.5s7.5 -42.166 14.5 -65.499s16.833 -47 29.5 -71s28.667 -46.667 48 -68c16.667 -19.333 33 -34.5 49 -45.5
s31.833 -19.333 47.5 -25s31.334 -9.33398 47.001 -11.001s31.834 -2.5 48.501 -2.5c28 0 54.5 3.5 79.5 10.5s48 16.5 69 28.5s39.833 25.667 56.5 41s30.667 31 42 47c2.66699 4.66699 5.33398 5.66699 8.00098 3l13 -10c1.33301 -1.33301 2.33301 -2.5 3 -3.5
s0.333984 -2.83301 -0.999023 -5.5c-15.333 -22 -32.833 -43 -52.5 -63s-41.834 -37.833 -66.501 -53.5s-51.834 -28.167 -81.501 -37.5s-62.167 -14 -97.5 -14z" />
    <glyph glyph-name="D" unicode="D" horiz-adv-x="813" 
d="M235 362v-34.999c0 -20 0.166992 -43 0.5 -69l1 -78.5c0.333008 -26.333 0.5 -47.166 0.5 -62.499c0 -10 1.16699 -19.333 3.5 -28s6.83301 -18 13.5 -28c8 -10.667 21.333 -18.667 40 -24s40.667 -8 66 -8c51.333 0 97 10 137 30s72.667 46 98 78
c21.333 26 38.833 58.5 52.5 97.5s20.5 81.5 20.5 127.5c0 19.333 -2 39.333 -6 60s-9.66699 40.667 -17 60s-16 37.666 -26 54.999s-21 32.666 -33 45.999c-26 28.667 -60.333 51.834 -103 69.501s-92 26.5 -148 26.5c-11.333 0 -25.333 -0.5 -42 -1.5
s-29.334 -3.83301 -38.001 -8.5c-7.33301 -4.66699 -12.166 -10.834 -14.499 -18.501s-3.83301 -17.167 -4.5 -28.5c0 -10.667 -0.166992 -25.667 -0.5 -45s-0.5 -39 -0.5 -59v-54.5v-30.5v-71zM143 459.001c0 6.66699 -0.167969 19.1699 -0.500977 37.5029
s-0.833008 37.833 -1.5 58.5s-1.16699 39.667 -1.5 57s-0.833008 28 -1.5 32c-1.33301 12 -5.5 19.667 -12.5 23s-17.167 5 -30.5 5h-55c-5.33301 0 -8 2.33301 -8 7v27c0 3.33301 2.33301 5 7 5c6.66699 0 21.5 -0.5 44.5 -1.5s57.167 -1.5 102.5 -1.5
c6.66699 0 17 0.166992 31 0.5s28.833 0.666016 44.5 0.999023s30.334 0.666016 44.001 0.999023s23.5 0.5 29.5 0.5c32 0 62.833 -1.16699 92.5 -3.5s58 -6.83301 85 -13.5s52.833 -15.834 77.5 -27.501s48 -26.834 70 -45.501c32.667 -28 59.334 -62.833 80.001 -104.5
s31 -91.834 31 -150.501c0 -57.333 -8.33301 -106.5 -25 -147.5s-41.334 -79.5 -74.001 -115.5c-24 -26.667 -50.167 -47.167 -78.5 -61.5s-56.5 -24.833 -84.5 -31.5s-54.833 -10.5 -80.5 -11.5s-48.167 -1.5 -67.5 -1.5c-32 0 -65 0.5 -99 1.5s-62.333 1.5 -85 1.5
c-44 0 -76.667 -0.5 -98 -1.5s-35.666 -1.5 -42.999 -1.5c-4.66699 0 -7 2.33301 -7 7v26c0 4 2.66699 6 8 6h67c19.333 0 30 8 32 24c0.666992 3.33301 1.16699 11.833 1.5 25.5s0.833008 30.334 1.5 50.001s1.16699 41.334 1.5 65.001l1 69.5
c0.333008 22.667 0.666016 44.167 0.999023 64.5s0.5 36.833 0.5 49.5v75z" />
    <glyph glyph-name="E" unicode="E" horiz-adv-x="690" 
d="M238 383c2 0 9.16113 0.167969 21.4941 0.500977s25.833 0.833008 40.5 1.5s28.334 1.33398 41.001 2.00098s20.667 1.33398 24 2.00098c14.667 2.66699 24.834 6.83398 30.501 12.501s10.834 16.167 15.501 31.5c1.33301 5.33301 2.83301 12.5 4.5 21.5
s2.83398 18.167 3.50098 27.5c0 4.66699 2.33301 7 7 7l25 -1c5.33301 0 7.33301 -2.66699 6 -8c-0.666992 -4 -1.16699 -11.5 -1.5 -22.5s-0.666016 -22.667 -0.999023 -35s-0.5 -23.833 -0.5 -34.5v-22c0 -8.66699 0.166992 -18 0.5 -28s0.833008 -19.833 1.5 -29.5
s1.33398 -18.5 2.00098 -26.5s1.33398 -14.667 2.00098 -20c0 -4.66699 -2 -7.33398 -6 -8.00098l-22 -3c-4.66699 -0.666992 -7.33398 2.33301 -8.00098 9c-1.33301 6.66699 -3.16602 14.834 -5.49902 24.501l-5.5 22.5c-3.33301 10.667 -8 19.5 -14 26.5
s-15.667 11.167 -29 12.5c-12 1.33301 -24.833 2.33301 -38.5 3s-26.667 1.16699 -39 1.5s-23.5 0.5 -33.5 0.5h-21v-62c0 -13.333 0.166992 -28.833 0.5 -46.5s0.5 -34.834 0.5 -51.501s0.166992 -31.834 0.5 -45.501s0.5 -22.834 0.5 -27.501
c0.666992 -26 6.5 -44.667 17.5 -56s24.167 -18.666 39.5 -21.999c10 -2 21.667 -3.66699 35 -5s26.333 -2 39 -2h18c8 0 16.167 0.166992 24.5 0.5l25 1c8.33301 0.333008 15.166 0.833008 20.499 1.5c8.66699 1.33301 22 4.66602 40 9.99902s33.667 13.666 47 24.999
c2.66699 2.66699 7.83398 8.5 15.501 17.5l24.5 30l25 32.5c8 10.667 13.667 19 17 25c1.33301 2.66699 2.83301 4.66699 4.5 6s4.16699 1.33301 7.5 0l16 -9c4 -2.66699 4.66699 -7.33398 2 -14.001l-53 -147c-3.33301 -10 -10.666 -15 -21.999 -15
c-2.66699 0 -10.334 0.166992 -23.001 0.5s-34 0.833008 -64 1.5c-30 0 -70.167 0.166992 -120.5 0.5s-114.5 0.5 -192.5 0.5c-18.667 0 -35 -0.166992 -49 -0.5s-26 -0.5 -36 -0.5c-10.667 -0.666992 -19.334 -1.16699 -26.001 -1.5s-12.334 -0.5 -17.001 -0.5
c-6 0 -9 2.33301 -9 7v27c0 3.33301 3.33301 5 10 5h40c11.333 0 20.333 0.5 27 1.5s11.667 3.16699 15 6.5s5.5 7.83301 6.5 13.5s1.5 13.167 1.5 22.5v237v98c0 20.667 -0.166992 43.167 -0.5 67.5s-0.666016 47.333 -0.999023 69s-0.666016 40 -0.999023 55
s-0.5 23.833 -0.5 26.5c-2 16 -6.33301 26.5 -13 31.5s-19.334 7.5 -38.001 7.5h-36c-5.33301 0 -8 2.33301 -8 7v27c0 3.33301 2.33301 5 7 5c11.333 0 26.333 -0.5 45 -1.5s44.667 -1.5 78 -1.5h44c50 0 99.5 0.166992 148.5 0.5s98.5 0.5 148.5 0.5c8 0 16 0.333008 24 1
s13.333 1 16 1c4 0 6.66699 -1.66699 8 -5c0.666992 -3.33301 3.66699 -13.166 9 -29.499l17 -52.5l16.5 -51.5c5 -15.667 7.83301 -24.834 8.5 -27.501c1.33301 -4.66699 0.333008 -7.66699 -3 -9l-15 -8c-1.33301 -1.33301 -2.83301 -1.5 -4.5 -0.5
s-2.83398 2.16699 -3.50098 3.5c-0.666992 0.666992 -5 6.33398 -13 17.001s-17.5 22.5 -28.5 35.5l-33 37.5c-11 12 -19.5 20 -25.5 24c-10.667 7.33301 -22.667 13.5 -36 18.5s-26.666 7.83301 -39.999 8.5l-178 4v-293z" />
    <glyph glyph-name="F" unicode="F" horiz-adv-x="598" 
d="M140 446c0 10.667 -0.161133 26.5029 -0.494141 47.5029s-0.5 42 -0.5 63s-0.166992 39.833 -0.5 56.5s-0.5 26.667 -0.5 30c0 19.333 -13.667 29 -41 29h-58c-4.66699 0 -7 2 -7 6v27c0 4 2.33301 6 7 6c3.33301 0 8.16602 -0.166992 14.499 -0.5
s15.166 -0.5 26.499 -0.5c11.333 -0.666992 25.666 -1.16699 42.999 -1.5s38 -0.5 62 -0.5h33h70.5h89c31.667 0 61.167 0.166992 88.5 0.5s50.666 0.833008 69.999 1.5s30.333 1.33398 33 2.00098c0.666992 -4 2.83398 -14.333 6.50098 -31l12 -54.5l12.5 -56
c4 -17.667 7 -29.834 9 -36.501c0.666992 -3.33301 0 -5.66602 -2 -6.99902l-18 -7c-2.66699 -0.666992 -5.33398 1.66602 -8.00098 6.99902c-4.66699 8 -12.834 20.5 -24.501 37.5s-24.834 35.167 -39.501 54.5c-8.66699 11.333 -18.834 21.166 -30.501 29.499
s-24.834 14.166 -39.501 17.499c-6 1.33301 -19.167 2.66602 -39.5 3.99902s-42.166 2.33301 -65.499 3s-45.5 1.16699 -66.5 1.5s-35.167 0.5 -42.5 0.5v-20.5v-43c0 -17 -0.166992 -35.667 -0.5 -56s-0.5 -40.333 -0.5 -60v-55v-40.5v-50
c3.33301 0 11.5 0.166992 24.5 0.5s26.833 0.666016 41.5 0.999023s28.334 0.833008 41.001 1.5s20.667 1.33398 24 2.00098c11.333 2 20.333 6 27 12s12.334 16.667 17.001 32c1.33301 5.33301 3 12.5 5 21.5s3.66699 18.167 5 27.5c1.33301 4.66699 3.66602 7 6.99902 7
l20 -1c4 0 6 -2.33301 6 -7c-0.666992 -4 -1.16699 -11.667 -1.5 -23s-0.5 -23.166 -0.5 -35.499v-34.5v-21c0 -18 0.5 -37.333 1.5 -58s2.16699 -36 3.5 -46c0 -4.66699 -2.33301 -7.33398 -7 -8.00098l-19 -4c-3.33301 -0.666992 -5.66602 1.66602 -6.99902 6.99902
c0 2 -0.5 5.16699 -1.5 9.5s-2 9 -3 14s-2.16699 9.83301 -3.5 14.5s-2.33301 8.33398 -3 11.001c-6.66699 23.333 -20.334 36.333 -41.001 39c-12 1.33301 -25 2.5 -39 3.5s-27.5 1.66699 -40.5 2s-24.667 0.5 -35 0.5h-21.5v-37v-25.5v-40c0 -15 0.166992 -30.667 0.5 -47
s0.5 -31.5 0.5 -45.5v-36v-19c0 -13.333 2.16699 -22 6.5 -26s15.166 -6 32.499 -6h49c6 0 9 -2 9 -6v-25c0 -5.33301 -2.66699 -8 -8 -8s-18.5 0.5 -39.5 1.5s-53.167 1.5 -96.5 1.5c-39.333 0 -69.166 -0.5 -89.499 -1.5s-34.166 -1.5 -41.499 -1.5c-4 0 -6 2.33301 -6 7
v27c0 3.33301 2.33301 5 7 5h45c13.333 0 22.333 1.33301 27 4s7.33398 8.66699 8.00098 18c0.666992 4.66699 1.16699 15.834 1.5 33.501s0.666016 40.5 0.999023 68.5s0.666016 60.167 0.999023 96.5s0.5 76.166 0.5 119.499v70z" />
    <glyph glyph-name="G" unicode="G" horiz-adv-x="818" 
d="M613 221c0 18 -2.99707 30.1709 -8.99707 36.5039s-16.667 9.5 -32 9.5h-42c-4.66699 0 -7 2 -7 6v25c0 5.33301 2 8 6 8c7.33301 0 21.833 -0.5 43.5 -1.5s49.5 -1.5 83.5 -1.5c36 0 62.833 0.5 80.5 1.5s30.167 1.5 37.5 1.5c5.33301 0 8 -2.33301 8 -7v-24
c0 -5.33301 -2.33301 -8 -7 -8h-39c-9.33301 0 -16.833 -2.5 -22.5 -7.5s-8.5 -15.167 -8.5 -30.5v-132c0 -7.33301 0.666992 -13.5 2 -18.5s2 -9.5 2 -13.5c0 -6.66699 -5.33301 -12 -16 -16c-40.667 -20.667 -82.334 -36.5 -125.001 -47.5s-92 -16.5 -148 -16.5
c-22 0 -45.833 2.16699 -71.5 6.5s-51 11 -76 20s-49 20.833 -72 35.5s-43.167 32 -60.5 52c-30.667 34.667 -53.667 74 -69 118s-23 96.333 -23 157c0 46 9.5 91.5 28.5 136.5s47.167 84.167 84.5 117.5c36 30.667 76.667 54.167 122 70.5s98.333 24.5 159 24.5
c21.333 0 42 -1.83301 62 -5.5s38.667 -8.33398 56 -14.001s32.666 -11.834 45.999 -18.501s24.333 -13.334 33 -20.001c5.33301 -4.66699 9.66602 -6.66699 12.999 -6s6.66602 3 9.99902 7l15 18l6 6c2 2 4.66699 3 8 3c6 0 9 -4 9 -12l3 -191c0 -6 -1.66699 -9 -5 -9
l-18 -2c-4 0 -6.66699 2.66699 -8 8c-4 14 -10.667 31.833 -20 53.5s-22.666 43.167 -39.999 64.5c-7.33301 9.33301 -16.833 18.833 -28.5 28.5s-25 18.5 -40 26.5s-32 14.5 -51 19.5s-39.833 7.5 -62.5 7.5c-34.667 0 -67.667 -5.5 -99 -16.5s-62 -32.5 -92 -64.5
c-27.333 -28.667 -48.833 -62.834 -64.5 -102.501s-23.5 -82.167 -23.5 -127.5c0 -59.333 8 -113.333 24 -162s39.667 -88 71 -118c25.333 -24 52.833 -41.833 82.5 -53.5s60.834 -17.5 93.501 -17.5c40 0 73 3.16699 99 9.5s47.667 14.5 65 24.5
c11.333 7.33301 18.666 17.333 21.999 30s5 32 5 58v74z" />
    <glyph glyph-name="H" unicode="H" horiz-adv-x="853" 
d="M134 394c0 15.333 -0.170898 34.3242 -0.503906 56.9912s-0.5 44.834 -0.5 66.501s-0.166992 41 -0.5 58s-0.5 27.5 -0.5 31.5c0 25.333 -2.66699 42.5 -8 51.5s-17.333 13.5 -36 13.5h-47c-4 0 -6 2.66699 -6 8v24c0 4.66699 2.66699 7 8 7c10 0 24.833 -0.5 44.5 -1.5
s51.5 -1.5 95.5 -1.5c39.333 0 69 0.5 89 1.5s34.667 1.5 44 1.5c6.66699 0 10 -1.66699 10 -5v-26c0 -5.33301 -2.66699 -8 -8 -8h-51c-17.333 0 -28.166 -4.5 -32.499 -13.5s-6.5 -23.5 -6.5 -43.5c0 -3.33301 -0.166992 -13.166 -0.5 -29.499s-0.5 -35 -0.5 -56
s-0.166992 -42.167 -0.5 -63.5s-0.5 -39 -0.5 -53v-17c0 -5.33301 4 -8 12 -8h370c7.33301 0 12.5 0.833008 15.5 2.5s4.5 5.83398 4.5 12.501v10c0 14 -0.166992 32.167 -0.5 54.5l-1 66c-0.333008 21.667 -0.666016 40.834 -0.999023 57.501s-0.5 26.667 -0.5 30
c0 16 -1.83301 28.5 -5.5 37.5s-12.834 13.5 -27.501 13.5h-52c-4.66699 0 -7 2.33301 -7 7v26c0 4 2 6 6 6c10.667 0 26.834 -0.5 48.501 -1.5s49.5 -1.5 83.5 -1.5s61.5 0.5 82.5 1.5s36.167 1.5 45.5 1.5c5.33301 0 8 -2.66699 8 -8v-24c0 -4.66699 -2.66699 -7 -8 -7
h-45c-14.667 0 -23.667 -4.33301 -27 -13s-5 -22 -5 -40c0 -3.33301 -0.166992 -15 -0.5 -35s-0.5 -42.167 -0.5 -66.5s-0.166992 -47.833 -0.5 -70.5s-0.5 -38.667 -0.5 -48v-34v-28c0 -13.333 0.166992 -28.666 0.5 -45.999s0.5 -36 0.5 -56s0.166992 -39.5 0.5 -58.5
s0.666016 -36.5 0.999023 -52.5s0.5 -28.667 0.5 -38c0 -18 2.83301 -30.833 8.5 -38.5s16.167 -11.5 31.5 -11.5h44c6 0 9 -2.33301 9 -7v-24c0 -5.33301 -2.66699 -8 -8 -8c-9.33301 0 -23.5 0.5 -42.5 1.5s-46.833 1.5 -83.5 1.5c-22 0 -40.667 -0.166992 -56 -0.5
s-28.666 -0.666016 -39.999 -0.999023s-21.166 -0.666016 -29.499 -0.999023s-16.166 -0.5 -23.499 -0.5c-4 0 -6 2.33301 -6 7v25c0 4.66699 2.66699 7 8 7h63c12 0 19.5 4.33301 22.5 13s4.5 19.667 4.5 33c0 12 0.166992 29.667 0.5 53l1 73
c0.333008 25.333 0.666016 49 0.999023 71s0.5 37.667 0.5 47v14c0 5.33301 -1.5 8.66602 -4.5 9.99902s-8.83301 2 -17.5 2h-366c-9.33301 0 -14 -3.33301 -14 -10v-21v-40.5c0 -20.333 0.166992 -43.166 0.5 -68.499l1 -77c0.333008 -26 0.5 -47.667 0.5 -65
c0.666992 -22.667 11.334 -34 32.001 -34h49c5.33301 0 8 -2.33301 8 -7v-25c0 -4.66699 -2.66699 -7 -8 -7c-9.33301 0 -23.666 0.5 -42.999 1.5s-47 1.5 -83 1.5c-21.333 0 -39.5 -0.166992 -54.5 -0.5s-27.833 -0.666016 -38.5 -0.999023
s-19.5 -0.666016 -26.5 -0.999023s-13.5 -0.5 -19.5 -0.5c-4.66699 0 -7 2.33301 -7 7v26c0 4 2.33301 6 7 6h59c12.667 0 20.5 5 23.5 15s4.5 21 4.5 33s0.166992 31.333 0.5 58l1 83.5c0.333008 29 0.666016 55.5 0.999023 79.5s0.5 39.333 0.5 46v43z" />
    <glyph glyph-name="I" unicode="I" horiz-adv-x="371" 
d="M140 419l-0.00292969 23.501c0 11.667 -0.166992 25.167 -0.5 40.5s-0.666016 31.666 -0.999023 48.999s-0.666016 33.333 -0.999023 48s-0.666016 27.334 -0.999023 38.001s-0.5 17.334 -0.5 20.001c-1.33301 12 -5.16602 20.667 -11.499 26s-19.166 8 -38.499 8h-58
c-5.33301 0 -8 2 -8 6v27c0 4 2.33301 6 7 6c6 0 21.833 -0.5 47.5 -1.5s61.834 -1.5 108.501 -1.5c22 0 40.833 0.166992 56.5 0.5s28.667 0.666016 39 0.999023s18.666 0.666016 24.999 0.999023s11.166 0.5 14.499 0.5c4.66699 0 7 -2.33301 7 -7v-25
c0 -4.66699 -2.66699 -7 -8 -7h-47c-10 0 -18.333 -2.16699 -25 -6.5s-10 -11.5 -10 -21.5v-21c0 -12 -0.166992 -26.667 -0.5 -44s-0.666016 -36 -0.999023 -56s-0.666016 -38.667 -0.999023 -56s-0.5 -32.166 -0.5 -44.499v-21.5v-77v-21.5
c0 -12.333 0.166992 -27.5 0.5 -45.5s0.666016 -37.5 0.999023 -58.5s0.666016 -40.5 0.999023 -58.5s0.5 -33.333 0.5 -46v-22c0 -15.333 3.83301 -25.166 11.5 -29.499s19.5 -6.5 35.5 -6.5h41c5.33301 0 8 -2.33301 8 -7v-26c0 -4 -3 -6 -9 -6s-19.667 0.5 -41 1.5
s-54 1.5 -98 1.5c-48 0 -83.5 -0.5 -106.5 -1.5s-37.167 -1.5 -42.5 -1.5s-8 2 -8 6v27c0 4 2.66699 6 8 6h56c10 0 19.5 1.5 28.5 4.5s14.5 11.167 16.5 24.5c0 2.66699 0.333008 10.167 1 22.5s1.16699 27.666 1.5 45.999s0.666016 38.166 0.999023 59.499l1 62
c0.333008 20 0.5 38.5 0.5 55.5v38.5v70z" />
    <glyph glyph-name="J" unicode="J" horiz-adv-x="332" 
d="M126 402l-0.00292969 37.501c0 21 -0.166992 44.5 -0.5 70.5l-1 75.5c-0.333008 24.333 -0.833008 41.833 -1.5 52.5c-0.666992 11.333 -4.16699 19.833 -10.5 25.5s-19.166 8.5 -38.499 8.5h-44c-4.66699 0 -7 1.66699 -7 5v27c0 4.66699 2.33301 7 7 7
c5.33301 0 18.666 -0.5 39.999 -1.5s55.666 -1.5 102.999 -1.5c42.667 0 74 0.5 94 1.5s33.667 1.5 41 1.5c5.33301 0 8 -2 8 -6v-25c0 -5.33301 -2.66699 -8 -8 -8h-50c-13.333 0 -22.666 -2.16699 -27.999 -6.5s-8.33301 -11.833 -9 -22.5
c0 -4 -0.166992 -14.333 -0.5 -31s-0.666016 -37.334 -0.999023 -62.001s-0.666016 -52 -0.999023 -82s-0.5 -60 -0.5 -90v-46c0 -32 -0.166992 -61.833 -0.5 -89.5s-0.833008 -52.167 -1.5 -73.5s-1.16699 -39.333 -1.5 -54s-0.5 -25 -0.5 -31
c0 -33.333 -2.33301 -63.166 -7 -89.499s-14.667 -52.166 -30 -77.499c-10 -18 -21.833 -35.167 -35.5 -51.5s-28.5 -30.666 -44.5 -42.999s-33 -22.333 -51 -30s-36.333 -11.5 -55 -11.5c-4.66699 0 -10.834 1 -18.501 3s-15.167 5.16699 -22.5 9.5
s-13.666 10.166 -18.999 17.499s-8 16.666 -8 27.999c0 15.333 5.33301 27.166 16 35.499s24 12.5 40 12.5c17.333 0 33.333 -5 48 -15s24.667 -22.667 30 -38c11.333 3.33301 22 10.5 32 21.5s17.667 24.833 23 41.5c4 12 7.16699 29.333 9.5 52s4 48.167 5 76.5
s1.5 57.833 1.5 88.5s-0.166992 60.167 -0.5 88.5s-0.666016 54 -0.999023 77s-0.5 40.5 -0.5 52.5v70z" />
    <glyph glyph-name="K" unicode="K" horiz-adv-x="712" 
d="M134 427l0.00585938 22.0039c0 12 -0.166992 25.833 -0.5 41.5s-0.666016 32.5 -0.999023 50.5s-0.666016 34.667 -0.999023 50s-0.5 28.333 -0.5 39v18c0 5.33301 -1.83301 10.666 -5.5 15.999s-11.834 8 -24.501 8h-35c-5.33301 0 -8 2.33301 -8 7v26
c0 4 2.66699 6 8 6c6 0 17.667 -0.5 35 -1.5s44.666 -1.5 81.999 -1.5c34 0 59.667 0.5 77 1.5s29.333 1.5 36 1.5c5.33301 0 8 -2 8 -6v-26c0 -4.66699 -2.33301 -7 -7 -7h-42c-10 0 -17.167 -2.16699 -21.5 -6.5s-6.5 -12.5 -6.5 -24.5c0 -4 -0.166992 -15.333 -0.5 -34
s-0.666016 -39.834 -0.999023 -63.501l-1 -70c-0.333008 -23 -0.5 -40.5 -0.5 -52.5v-50h18c8 0 15 1 21 3s12.667 5.66699 20 11c3.33301 2.66699 11 10.834 23 24.501l41 48.5l49 60.5l48 60.5l37.5 48c10.333 13.333 16.166 21 17.499 23
c4.66699 7.33301 6 13.166 4 17.499s-6.33301 6.5 -13 6.5h-14c-3.33301 0 -5 2.33301 -5 7v23c0 4.66699 2 7 6 7c6 0 18.167 -0.5 36.5 -1.5s39.166 -1.5 62.499 -1.5c14.667 0 29.5 0.5 44.5 1.5s25.5 1.5 31.5 1.5c4.66699 0 7 -1.66699 7 -5v-27
c0 -4.66699 -2.66699 -7 -8 -7h-21c-7.33301 0 -16 -1.5 -26 -4.5s-19.667 -7.83301 -29 -14.5c-6 -4.66699 -15 -13 -27 -25l-40.5 -42l-47 -52l-47.5 -54.5l-41.5 -49.5l-29.5 -37c1.33301 -2 8.66602 -11.333 21.999 -28l49.5 -60.5l62.5 -77.5l62.5 -77.5l49.5 -60.5
c13.333 -16.667 20.666 -26 21.999 -28c8.66699 -10.667 19.5 -17.5 32.5 -20.5s25.5 -4.5 37.5 -4.5h35c4.66699 0 7 -2.33301 7 -7v-25c0 -4.66699 -2.66699 -7 -8 -7s-17.666 0.5 -36.999 1.5s-48 1.5 -86 1.5c-42 0 -73.333 -0.5 -94 -1.5s-34.667 -1.5 -42 -1.5
c-4 0 -6 2 -6 6v26c0 4 2 6 6 6h15c9.33301 0 15 3.16699 17 9.5s1.66699 12.166 -1 17.499c-1.33301 3.33301 -7 12 -17 26l-36 49.5l-45 60.5l-45.5 59.5l-37 47c-10.333 13 -16.5 20.167 -18.5 21.5c-8 6.66699 -15.5 10.834 -22.5 12.501s-14.167 2.5 -21.5 2.5h-19v-72
c0 -12.667 0.166992 -30 0.5 -52l1 -67c0.333008 -22.667 0.666016 -42.834 0.999023 -60.501s0.5 -28.167 0.5 -31.5c1.33301 -14.667 9 -22 23 -22h44c5.33301 0 8 -2 8 -6v-26c0 -4.66699 -2 -7 -6 -7c-6 0 -17.333 0.5 -34 1.5s-43 1.5 -79 1.5
c-40 0 -68.833 -0.5 -86.5 -1.5s-28.834 -1.5 -33.501 -1.5s-7 2.33301 -7 7v26c0 4 2.33301 6 7 6h41c9.33301 0 15.833 1.66699 19.5 5s6.16699 7.66602 7.5 12.999c0 2 0.166992 13.667 0.5 35s0.666016 47.5 0.999023 78.5s0.666016 64.5 0.999023 100.5
s0.5 69.667 0.5 101v58z" />
    <glyph glyph-name="L" unicode="L" horiz-adv-x="662" 
d="M140 448c0 16 -0.168945 34.002 -0.501953 54.002l-1 57.5c-0.333008 18.333 -0.666016 34.5 -0.999023 48.5s-0.5 23.333 -0.5 28c-1.33301 13.333 -4 22.666 -8 27.999s-13.667 8 -29 8h-47c-4.66699 0 -7 3.33301 -7 10v22c0 4.66699 2.33301 7 7 7
c5.33301 0 17.833 -0.5 37.5 -1.5s50.5 -1.5 92.5 -1.5c48.667 0 84.334 0.5 107.001 1.5s36.334 1.5 41.001 1.5c4 0 6.5 -0.666992 7.5 -2s1.5 -3.33301 1.5 -6v-23c0 -5.33301 -3.33301 -8 -10 -8h-60c-15.333 0 -25 -2.83301 -29 -8.5s-6 -15.834 -6 -30.501
c0 -3.33301 -0.166992 -14.166 -0.5 -32.499s-0.666016 -39.5 -0.999023 -63.5l-1 -74c-0.333008 -25.333 -0.5 -46.666 -0.5 -63.999v-86v-23v-46.5c0 -18.333 0.166992 -37.833 0.5 -58.5s0.5 -40.834 0.5 -60.501s0.166992 -37.167 0.5 -52.5s0.833008 -26.333 1.5 -33
c3.33301 -0.666992 11.333 -1 24 -1s27.334 -0.166992 44.001 -0.5s34.667 -0.5 54 -0.5h55c17.333 0 32.666 0.166992 45.999 0.5s22.666 0.833008 27.999 1.5c14.667 2 29.167 10.167 43.5 24.5s27.5 30.5 39.5 48.5s22.5 35.833 31.5 53.5s15.167 31.5 18.5 41.5
c2 4 4.66699 5.33301 8 4l16 -6c2 -1.33301 2.66699 -4.33301 2 -9c-0.666992 -2 -3.33398 -12.167 -8.00098 -30.5l-15.5 -61.5l-16 -65.5c-5 -21 -8.16699 -34.833 -9.5 -41.5c-3.33301 0 -10.333 0.166992 -21 0.5s-24.167 0.666016 -40.5 0.999023
s-34.666 0.5 -54.999 0.5h-63.5c-22 0 -44.5 0.166992 -67.5 0.5s-45 0.5 -66 0.5h-59.5h-48c-19.333 -0 -36.333 -0.166992 -51 -0.5s-27.334 -0.5 -38.001 -0.5c-10 -0.666992 -18.167 -1.16699 -24.5 -1.5s-11.166 -0.5 -14.499 -0.5c-5.33301 0 -8 2.33301 -8 7v25
c0 4.66699 2.33301 7 7 7h48c18.667 0 30.5 2.83301 35.5 8.5s7.5 11.834 7.5 18.501v27c0 14.667 0.166992 32.5 0.5 53.5s0.666016 43.833 0.999023 68.5l1 72c0.333008 23.333 0.5 44.666 0.5 63.999v44v56z" />
    <glyph glyph-name="M" unicode="M" horiz-adv-x="981" 
d="M487 160c2 2.66699 6.33691 10.6689 13.0039 24.002s14.334 29.666 23.001 48.999l27.5 61.5l26.5 61l21 48.5c6 13.333 9.66699 21 11 23s5 9.66699 11 23l22 48.5l28 61l27.5 61l21 49.5c5.66699 14 8.83398 22.667 9.50098 26
c1.33301 5.33301 4.16602 8.66602 8.49902 9.99902s9.16602 2 14.499 2c33.333 0 60.833 0.166992 82.5 0.5s39.167 0.666016 52.5 0.999023s23.166 0.666016 29.499 0.999023s10.833 0.5 13.5 0.5c4 0 6 -2.33301 6 -7v-23c0 -6 -2.66699 -9 -8 -9h-44
c-15.333 0 -24.666 -4 -27.999 -12s-5 -17.667 -5 -29c0 -7.33301 -0.166992 -20.666 -0.5 -39.999s-0.666016 -41 -0.999023 -65l-1 -72.5c-0.333008 -24.333 -0.5 -44.833 -0.5 -61.5v-70c0 -12.667 0.166992 -30.834 0.5 -54.501l1 -72.5
c0.333008 -24.667 0.666016 -47.167 0.999023 -67.5s0.5 -32.833 0.5 -37.5c0 -19.333 2.5 -33.166 7.5 -41.499s13.833 -12.5 26.5 -12.5h59c4.66699 0 7 -2.33301 7 -7v-23c0 -3.33301 -0.5 -5.66602 -1.5 -6.99902s-3.5 -2 -7.5 -2
c-3.33301 0 -7.16602 0.166992 -11.499 0.5s-11.5 0.666016 -21.5 0.999023s-23.5 0.666016 -40.5 0.999023s-39.167 0.5 -66.5 0.5c-46 0 -79.833 -0.5 -101.5 -1.5s-35.834 -1.5 -42.501 -1.5c-5.33301 0 -8 3 -8 9v23c0 4.66699 2.66699 7 8 7h68
c8.66699 0 15.167 2.16699 19.5 6.5s7.16602 14.166 8.49902 29.499c0 2 0.166992 8.16699 0.5 18.5s0.5 23 0.5 38s0.166992 31.667 0.5 50s0.5 36.833 0.5 55.5v53.5v44.5v64v66c0 27.333 -0.166992 54.5 -0.5 81.5s-0.666016 50.833 -0.999023 71.5s-0.833008 32 -1.5 34
h-2c-2 -2 -7 -11.5 -15 -28.5l-29 -62.5l-36.5 -79l-36 -78.5l-28 -62c-7.66699 -17 -11.834 -26.167 -12.501 -27.5c-1.33301 -2 -5 -10 -11 -24l-22 -51l-28 -64l-28 -64l-22 -50.5c-6 -13.667 -9.33301 -21.167 -10 -22.5c-2 -4.66699 -4.83301 -9.83398 -8.5 -15.501
s-7.5 -8.5 -11.5 -8.5c-3.33301 0 -6.16602 1.66699 -8.49902 5s-4.5 7.66602 -6.5 12.999c-0.666992 1.33301 -4.33398 10.166 -11.001 26.499l-24.5 61l-31.5 78.5l-32 78.5l-25.5 62c-7 17 -10.833 26.5 -11.5 28.5c-3.33301 7.33301 -8.33301 19.333 -15 36l-22.5 55
l-26.5 62.5l-26 60c-8 18.333 -15.167 33.833 -21.5 46.5s-10.5 20 -12.5 22c-0.666992 -2.66699 -1.33398 -11 -2.00098 -25s-1.16699 -31 -1.5 -51s-0.666016 -41.5 -0.999023 -64.5s-0.666016 -44.333 -0.999023 -64s-0.5 -36.5 -0.5 -50.5v-24v-21v-43.5v-56v-58
c0 -18.333 0.166992 -34.666 0.5 -48.999s0.833008 -24.5 1.5 -30.5c2.66699 -28.667 7 -48 13 -58s17 -15 33 -15h50c4.66699 0 7 -2.33301 7 -7v-25c0 -2 -0.5 -3.66699 -1.5 -5s-3.5 -2 -7.5 -2c-5.33301 0 -16.5 0.5 -33.5 1.5s-46.167 1.5 -87.5 1.5
c-42.667 0 -73.667 -0.5 -93 -1.5s-31.333 -1.5 -36 -1.5c-4 0 -6.5 0.5 -7.5 1.5s-1.5 3.5 -1.5 7.5v24c0 4 2 6 6 6h53c19.333 0 32.166 5.66699 38.499 17s11.166 25.666 14.499 42.999c2 12 3.83301 28.333 5.5 49s3 43.334 4 68.001s1.83301 49.834 2.5 75.501
s1.16699 49.334 1.5 71.001s0.666016 39.834 0.999023 54.501s0.5 23.667 0.5 27v32v59.5c0 21.667 -0.166992 42.334 -0.5 62.001s-0.5 33.167 -0.5 40.5c0 6 -0.333008 11.167 -1 15.5s-2.16699 8.16602 -4.5 11.499s-6.33301 5.83301 -12 7.5s-13.5 2.5 -23.5 2.5h-61
c-4.66699 0 -7 2.33301 -7 7v26c0 4 2.33301 6 7 6c2.66699 0 6.5 -0.166992 11.5 -0.5s12.167 -0.666016 21.5 -0.999023s21.166 -0.666016 35.499 -0.999023s32.166 -0.5 53.499 -0.5c23.333 0 41.833 0.5 55.5 1.5s23.5 1.5 29.5 1.5
c7.33301 0 12.833 -1.16699 16.5 -3.5s6.83398 -6.83301 9.50098 -13.5z" />
    <glyph glyph-name="N" unicode="N" horiz-adv-x="795" 
d="M135 578c0 30 -6.49902 52.8359 -19.499 68.5029s-28.5 23.834 -46.5 24.501l-41 1c-4 0 -6 2.33301 -6 7v26c0 4 2 6 6 6c2.66699 0 6.16699 -0.166992 10.5 -0.5s10.166 -0.5 17.499 -0.5c7.33301 -0.666992 16.666 -1.16699 27.999 -1.5s25.666 -0.5 42.999 -0.5
s31.333 0.333008 42 1s19 1 25 1c11.333 0 21 -4.33301 29 -13c0.666992 -1.33301 6.16699 -8.5 16.5 -21.5l38 -48.5l48.5 -63l49 -63.5l39 -51c10.667 -14.333 17 -22.5 19 -24.5c2 -2.66699 7.83301 -9.83398 17.5 -21.501l35 -43l44.5 -55l46 -56.5l38.5 -48l22.5 -29h4
v119v59.5c0 17.667 -0.166992 34 -0.5 49s-0.666016 28.833 -0.999023 41.5s-0.833008 25.334 -1.5 38.001c0 10 -0.5 22.833 -1.5 38.5l-3 47c-1 15.667 -2.16699 30 -3.5 43s-2.66602 21.5 -3.99902 25.5c-8 26 -26.333 39 -55 39h-32c-4 0 -6 2.33301 -6 7v26
c0 4 2 6 6 6c7.33301 0 19.5 -0.5 36.5 -1.5s41.5 -1.5 73.5 -1.5c30 0 52 0.5 66 1.5s24.333 1.5 31 1.5c5.33301 0 8 -2.33301 8 -7v-25c0 -4.66699 -2 -7 -6 -7h-27c-13.333 0 -22.833 -4.33301 -28.5 -13s-9.16699 -22.667 -10.5 -42
c-1.33301 -16.667 -2.16602 -35 -2.49902 -55l-1 -61c-0.333008 -20.667 -0.5 -41 -0.5 -61v-54v-374c0 -7.33301 -0.333008 -13.166 -1 -17.499s-2 -6.5 -4 -6.5c-6 0 -11.167 2.16699 -15.5 6.5s-7.16602 7.5 -8.49902 9.5c0 0.666992 -3.5 5.33398 -10.5 14.001
l-27.5 34.5l-39 49l-45 56.5l-52 65l-46.5 58l-34.5 43c-9.33301 11.333 -14.666 17.666 -15.999 18.999c-2 1.33301 -8.16699 8.33301 -18.5 21l-37.5 46l-46.5 58l-46 58l-36.5 45.5c-10 12.333 -15.333 19.166 -16 20.499h-6v-222c0 -23.333 0.5 -49.833 1.5 -79.5l3 -86
c1 -27.667 2 -51.834 3 -72.501s1.83301 -33.334 2.5 -38.001c2 -19.333 5.33301 -33.833 10 -43.5s13.667 -14.5 27 -14.5h30c5.33301 0 8 -3 8 -9v-22c0 -5.33301 -2.66699 -8 -8 -8c-2.66699 0 -7.83398 0.166992 -15.501 0.5s-16.5 0.666016 -26.5 0.999023l-30 1
c-10 0.333008 -18.333 0.5 -25 0.5c-5.33301 0 -13 -0.166992 -23 -0.5l-31 -1c-10.667 -0.333008 -20.334 -0.666016 -29.001 -0.999023s-14.334 -0.5 -17.001 -0.5c-3.33301 0 -5 2.33301 -5 7v26c0 4 2 6 6 6h34c14.667 0 25.167 4 31.5 12s10.833 24.333 13.5 49
c1.33301 9.33301 2.33301 41.166 3 95.499s1 126.166 1 215.499v170z" />
    <glyph glyph-name="O" unicode="O" horiz-adv-x="821" 
d="M418 23c36.667 0 68.499 5.66992 95.499 17.0029s50 26.166 69 44.499s34.5 39 46.5 62s21.333 46.167 28 69.5s11.334 45.666 14.001 66.999s4 39.333 4 54c0 54.667 -8.66699 103.5 -26 146.5s-39.333 79.5 -66 109.5s-55.5 52.833 -86.5 68.5s-60.5 23.5 -88.5 23.5
c-4 0 -10.833 0.333008 -20.5 1s-21.667 -0.5 -36 -3.5s-30.166 -8.66699 -47.499 -17s-35.333 -21.5 -54 -39.5c-16.667 -16 -31.334 -34 -44.001 -54s-23.167 -40.833 -31.5 -62.5s-14.5 -43.667 -18.5 -66s-6 -43.833 -6 -64.5c0 -44 4.66699 -83.333 14 -118
s21.5 -65.167 36.5 -91.5s32.167 -48.833 51.5 -67.5s39 -33.834 59 -45.501s39.333 -20.167 58 -25.5s35 -8 49 -8zM409.999 -14.9971c-12 0 -26.3311 1.16602 -42.998 3.49902s-34.5 6 -53.5 11s-38.5 11.667 -58.5 20s-40 18.5 -60 30.5
c-18 10.667 -35.667 25.334 -53 44.001s-33 40.667 -47 66s-25.333 53.666 -34 84.999s-13 65.333 -13 102c0 15.333 1.16699 32.5 3.5 51.5s7 39.333 14 61s16.5 44 28.5 67s27.667 46.167 47 69.5c22 26.667 44.5 48.334 67.5 65.001s46.167 29.5 69.5 38.5
s46.166 15.167 68.499 18.5s44.166 5 65.499 5c16 0 32.833 -1 50.5 -3s36.167 -5.83301 55.5 -11.5s38.833 -13.667 58.5 -24s39.5 -23.833 59.5 -40.5c18 -16 35.333 -34 52 -54s31.334 -42.5 44.001 -67.5s22.667 -52.167 30 -81.5s11 -61.333 11 -96
c0 -36.667 -6 -73.5 -18 -110.5s-31 -73.167 -57 -108.5c-15.333 -20 -32.5 -38.667 -51.5 -56s-40.167 -32.333 -63.5 -45s-49.333 -22.5 -78 -29.5s-60.334 -10.5 -95.001 -10.5z" />
    <glyph glyph-name="P" unicode="P" horiz-adv-x="607" 
d="M225 353c10 -3.33301 23.001 -5.66797 39.001 -7.00098s33.667 -2 53 -2c30.667 0 58.5 7 83.5 21s44.167 29.667 57.5 47c11.333 14.667 18.5 30.834 21.5 48.501s4.5 35.167 4.5 52.5c0 32.667 -6.66699 59.667 -20 81s-29.5 38.333 -48.5 51s-38.833 21.5 -59.5 26.5
s-38.334 7.5 -53.001 7.5h-16.5c-7 0 -14.167 -0.333008 -21.5 -1l-22 -2c-7.33301 -0.666992 -13.333 -2 -18 -4v-319zM225.001 264.998l-0.00195312 -48.9941c0 -20.667 0.166992 -41.334 0.5 -62.001s0.666016 -39.334 0.999023 -56.001s0.5 -26.667 0.5 -30
c2 -21.333 13 -32 33 -32h64c5.33301 0 8 -2.33301 8 -7v-24c0 -2.66699 -0.5 -4.66699 -1.5 -6s-3.5 -2 -7.5 -2c-3.33301 0 -8.16602 0.166992 -14.499 0.5s-14.666 0.666016 -24.999 0.999023s-23.666 0.666016 -39.999 0.999023s-36.166 0.5 -59.499 0.5
c-44 0 -76.667 -0.5 -98 -1.5s-34.666 -1.5 -39.999 -1.5s-8 2.33301 -8 7v25c0 4.66699 2 7 6 7h43c17.333 0 28.666 2 33.999 6s8.66602 12.667 9.99902 26c0 2.66699 0.333008 13.334 1 32.001s1.16699 41.667 1.5 69s0.666016 57 0.999023 89s0.5 62.667 0.5 92v115
v55.5c0 20.333 -0.166992 39.666 -0.5 57.999s-0.666016 34.166 -0.999023 47.499s-0.5 21.333 -0.5 24c-1.33301 10 -4.83301 16.167 -10.5 18.5s-15.167 3.5 -28.5 3.5h-57c-4 0 -6 2.66699 -6 8v24c0 4.66699 2 7 6 7c5.33301 0 18.5 -0.5 39.5 -1.5
s55.167 -1.5 102.5 -1.5c4.66699 0 11.5 0.166992 20.5 0.5s18.667 0.666016 29 0.999023l32 1c11 0.333008 20.5 0.5 28.5 0.5c28 0 52.833 -0.833008 74.5 -2.5s41 -4.33398 58 -8.00098s32.833 -8.66699 47.5 -15s29 -14.5 43 -24.5c23.333 -16 41.833 -37 55.5 -63
s20.5 -53.333 20.5 -82c0 -63.333 -22.333 -113.166 -67 -149.499s-107 -54.5 -187 -54.5c-18.667 0 -37.5 0.333008 -56.5 1s-36.5 2 -52.5 4v-52z" />
    <glyph glyph-name="Q" unicode="Q" horiz-adv-x="815" 
d="M411 17c33.333 0 62.999 5.83496 88.999 17.502s48.5 26.834 67.5 45.501s34.833 39.667 47.5 63s22.834 46.666 30.501 69.999s13.167 45.666 16.5 66.999s5 39 5 53c0 60.667 -7.66699 114.334 -23 161.001s-36.333 82.667 -63 108c-30.667 29.333 -60 50.833 -88 64.5
s-60.333 20.5 -97 20.5c-23.333 0 -48.833 -3.83301 -76.5 -11.5s-55.5 -25.5 -83.5 -53.5c-16.667 -16.667 -30.5 -35 -41.5 -55s-19.833 -40.833 -26.5 -62.5s-11.5 -43.667 -14.5 -66s-4.5 -43.833 -4.5 -64.5c0 -33.333 3.33301 -64.333 10 -93
s15.167 -54.834 25.5 -78.501s21.833 -44.334 34.5 -62.001s25 -32.5 37 -44.5c18.667 -18 36 -32.167 52 -42.5s30.5 -18.333 43.5 -24s24.333 -9.16699 34 -10.5s18.167 -2 25.5 -2zM401.999 723.002c58.667 1.33301 110.334 -8.00586 155.001 -28.0059
s82.667 -46.333 114 -79c34 -36 58.833 -75.667 74.5 -119s22.834 -87.666 21.501 -132.999c0.666992 -26.667 -1.5 -52.667 -6.5 -78s-12.167 -49.166 -21.5 -71.499s-20.5 -43.166 -33.5 -62.499s-26.833 -36.333 -41.5 -51c-29.333 -29.333 -57.833 -52 -85.5 -68
s-57.167 -29.333 -88.5 -40v-4c52 -19.333 99 -34.5 141 -45.5s80.333 -20.167 115 -27.5c63.333 -14 114.166 -24.333 152.499 -31s68.5 -11.167 90.5 -13.5s37.667 -3.16602 47 -2.49902s16.333 1 21 1c14 0 26.333 2.5 37 7.5s19 9.83301 25 14.5c4 4 7 4.33301 9 1
l7 -10c2 -3.33301 1 -6.66602 -3 -9.99902l-18.5 -18c-9 -8.66699 -19.833 -17.667 -32.5 -27s-26.167 -17.666 -40.5 -24.999s-28.5 -11 -42.5 -11c-7.33301 0 -17.166 0.333008 -29.499 1s-28.833 2.5 -49.5 5.5s-46.167 7.66699 -76.5 14s-67.5 15.166 -111.5 26.499
c-25.333 6 -53 13.833 -83 23.5s-61.5 20.667 -94.5 33s-67 25.833 -102 40.5l-104.5 46c-5.33301 2 -14.5 4.66699 -27.5 8s-28.5 9.33301 -46.5 18s-38.167 20.334 -60.5 35.001s-44.833 34.334 -67.5 59.001c-27.333 28 -50.333 63.833 -69 107.5s-28 95.834 -28 156.501
c0 48 10 95 30 141s48.333 86 85 120c19.333 17.333 40.166 32.166 62.499 44.499s44.333 22.5 66 30.5s42.167 13.667 61.5 17s35.666 4.66602 48.999 3.99902z" />
    <glyph glyph-name="R" unicode="R" horiz-adv-x="697" 
d="M229 356c7.33301 -1.33301 14.333 -2.33203 21 -2.99902s14.667 -1 24 -1c45.333 0 82.166 6.66699 110.499 20s50.333 29.166 66 47.499s26.334 36.833 32.001 55.5s8.5 33.334 8.5 44.001c0 23.333 -4.66699 45.166 -14 65.499s-21.333 36.5 -36 48.5
c-19.333 15.333 -41.5 26.833 -66.5 34.5s-58.167 11.5 -99.5 11.5c-6 0 -12 -0.5 -18 -1.5s-11.333 -3.16699 -16 -6.5c-8 -6 -12 -16.667 -12 -32v-283zM139 455.001l0.00292969 100.5c0 29.667 -0.333008 51.834 -1 66.501c-1.33301 33.333 -14 50 -38 50h-40
c-4 0 -6 2.33301 -6 7v25c0 4.66699 2 7 6 7c4.66699 0 16 -0.5 34 -1.5s48 -1.5 90 -1.5c14 0 29.667 0.166992 47 0.5l50.5 1c16.333 0.333008 30.833 0.666016 43.5 0.999023s21.334 0.5 26.001 0.5c42 0 78.833 -5.66699 110.5 -17s57.167 -26 76.5 -44
c16.667 -16 29.5 -34.333 38.5 -55s13.5 -40.334 13.5 -59.001c0 -31.333 -3.66699 -58 -11 -80s-18.5 -40.833 -33.5 -56.5s-34.167 -28.5 -57.5 -38.5s-51 -18.333 -83 -25v-2c12 -4.66699 21.667 -10.834 29 -18.501s13 -14.167 17 -19.5l18 -23.5
c9.33301 -12.333 19 -25.833 29 -40.5l28 -40.5c8.66699 -12.333 14 -20.166 16 -23.499c1.33301 -2.66699 5.66602 -9.5 12.999 -20.5s15.833 -22.833 25.5 -35.5l28.5 -36.5c9.33301 -11.667 16.333 -19.167 21 -22.5c10.667 -7.33301 21.834 -12 33.501 -14
s24.5 -3 38.5 -3c5.33301 0 8 -2.66699 8 -8v-22c0 -6 -2.66699 -9 -8 -9c-4 0 -12.5 0.5 -25.5 1.5s-30.5 1.5 -52.5 1.5c-14.667 0 -30 -0.333008 -46 -1s-27.667 -1.33398 -35 -2.00098c-2.66699 2.66699 -6 6.5 -10 11.5s-8 10.333 -12 16l-11.5 16.5
c-3.66699 5.33301 -6.5 9.66602 -8.5 12.999c-2 2.66699 -6.33301 9.83398 -13 21.501l-21.5 37.5l-21 36.5c-6.33301 11 -10.166 17.5 -11.499 19.5l-10.5 15.5l-19 28l-20.5 30c-6.66699 9.66699 -11.334 16.167 -14.001 19.5c-6.66699 8 -13.334 15.5 -20.001 22.5
s-14 13.167 -22 18.5s-17.333 9.5 -28 12.5s-23.334 4.5 -38.001 4.5c-4.66699 0 -9.5 -0.166992 -14.5 -0.5s-11.167 -1.16602 -18.5 -2.49902v-56v-52c0 -20 0.166992 -39.167 0.5 -57.5s0.666016 -34.666 0.999023 -48.999s0.5 -23.5 0.5 -27.5
c1.33301 -10.667 4 -19.834 8 -27.501s9.66699 -11.5 17 -11.5h63c5.33301 0 8 -2.66699 8 -8v-22c0 -3.33301 -0.5 -5.66602 -1.5 -6.99902s-4.16699 -2 -9.5 -2c-2.66699 0 -6.5 0.166992 -11.5 0.5s-12.5 0.666016 -22.5 0.999023s-22.667 0.666016 -38 0.999023
s-35 0.5 -59 0.5c-22.667 0 -41.5 -0.166992 -56.5 -0.5s-27 -0.666016 -36 -0.999023s-16 -0.666016 -21 -0.999023s-8.83301 -0.5 -11.5 -0.5c-4 0 -6.33301 0.666992 -7 2s-1 3.33301 -1 6v23c0 5.33301 1.66699 8 5 8h41c11.333 0 20.666 2.33301 27.999 7
s11 13.667 11 27c1.33301 50 2 98.5 2 145.5v142.5v97z" />
    <glyph glyph-name="S" unicode="S" horiz-adv-x="548" 
d="M292 -15c-35.333 0 -65.6699 4.83203 -91.0029 14.499s-48 22.167 -68 37.5c-10.667 8 -18.334 12 -23.001 12c-3.33301 0 -6 -1.5 -8 -4.5l-8 -12.5c-3.33301 -5.33301 -6.33301 -8.66602 -9 -9.99902s-5.66699 -2 -9 -2s-6 1.33301 -8 4s-2.33301 6.66699 -1 12
c0.666992 6 1.83398 17.5 3.50098 34.5s3.33398 35.167 5.00098 54.5s3.33398 37.666 5.00098 54.999l3.5 37c0.666992 3.33301 1.5 5.16602 2.5 5.49902s2.5 0.5 4.5 0.5l15 -1c4 0 6 -2.66699 6 -8c0.666992 -16 2.66699 -33 6 -51s13.333 -39.667 30 -65
c15.333 -23.333 35.5 -41.5 60.5 -54.5s51.5 -19.5 79.5 -19.5c14.667 0 30.167 2.33301 46.5 7s31 12.167 44 22.5s23.833 23.5 32.5 39.5s13 35.333 13 58c0 26 -4.33301 48 -13 66s-20 33.5 -34 46.5s-30.333 23.833 -49 32.5s-38 16.667 -58 24
c-8 2.66699 -18 6.33398 -30 11.001s-24.833 10.334 -38.5 17.001s-27.334 14.334 -41.001 23.001s-25.834 18.667 -36.501 30c-16.667 16.667 -29.167 36.834 -37.5 60.501s-12.5 52.167 -12.5 85.5c0 25.333 6.5 49.333 19.5 72s27.167 41.334 42.5 56.001
c18 17.333 39 29.666 63 36.999s49.667 11 77 11c28.667 0 53.334 -3.16699 74.001 -9.5s35.334 -11.5 44.001 -15.5c8 -4 14.333 -3.66699 19 1l13 12c4.66699 4 9 6 13 6c2.66699 0 4.66699 -1.66699 6 -5s2 -7.33301 2 -12c0 -8.66699 0.666992 -20.834 2 -36.501
s2.83301 -31.667 4.5 -48s3.33398 -31.5 5.00098 -45.5s2.5 -23.667 2.5 -29c0 -4.66699 -1.66699 -7.33398 -5 -8.00098l-12 -3c-3.33301 -1.33301 -5.33301 -0.333008 -6 3c-4 14.667 -10.167 31.5 -18.5 50.5s-22.833 39.167 -43.5 60.5c-26.667 28.667 -63 43 -109 43
c-22 0 -40.833 -3.66699 -56.5 -11s-28.167 -16.833 -37.5 -28.5s-16.166 -24.334 -20.499 -38.001s-6.5 -26.834 -6.5 -39.501c0 -14 2 -28.667 6 -44s12.333 -29.666 25 -42.999c7.33301 -7.33301 16 -14.166 26 -20.499s20.333 -12 31 -17s21 -9.5 31 -13.5
s18.667 -7 26 -9c34.667 -11.333 65.667 -22.5 93 -33.5s50 -27.5 68 -49.5c13.333 -15.333 24 -33.5 32 -54.5s12 -48.167 12 -81.5c0 -29.333 -4.5 -57.333 -13.5 -84s-22 -50 -39 -70s-38.333 -35.833 -64 -47.5s-54.834 -17.5 -87.501 -17.5z" />
    <glyph glyph-name="T" unicode="T" horiz-adv-x="702" 
d="M297 672l-24.999 0.00488281h-32.5c-13.667 0 -28.167 -0.5 -43.5 -1.5s-30.333 -2.33301 -45 -4s-27 -3.83398 -37 -6.50098c-11.333 -3.33301 -21.666 -9.83301 -30.999 -19.5s-17.666 -20.334 -24.999 -32.001s-13.833 -23.334 -19.5 -35.001
s-10.167 -21.5 -13.5 -29.5c-2 -4 -5.33301 -5.66699 -10 -5l-18 5l-4 2c-1.33301 0.666992 -1.33301 2.66699 0 6c2.66699 8.66699 6.5 22.334 11.5 41.001l15 56.5l13.5 51.5l7 27c1.33301 6.66699 2.83301 11 4.5 13s3.5 3 5.5 3c4.66699 0 8.66699 -1.33301 12 -4l13 -9
c9.33301 -6.66699 17.5 -11 24.5 -13s17.833 -3.33301 32.5 -4l38.5 -2c12.333 -0.666992 25.833 -1.33398 40.5 -2.00098s30.834 -1.16699 48.501 -1.5s38.167 -0.5 61.5 -0.5h48c27.333 0 50.833 0.166992 70.5 0.5s37.167 0.833008 52.5 1.5
s29.166 1.33398 41.499 2.00098l36.5 2c11.333 0.666992 20.666 1.83398 27.999 3.50098s15.333 5.16699 24 10.5l19 12c4.66699 2.66699 8.66699 4 12 4c2.66699 0 4.5 -1 5.5 -3s2.16699 -6.33301 3.5 -13c0.666992 -3.33301 2.16699 -12.5 4.5 -27.5l8 -51l9 -57
c3 -19 5.5 -33.833 7.5 -44.5c0.666992 -4.66699 -1.33301 -7.33398 -6 -8.00098l-16 -4c-2 -0.666992 -3.5 -0.5 -4.5 0.5s-2.16699 3.16699 -3.5 6.5l-10 23c-4.66699 10.667 -10.167 22 -16.5 34s-13.333 23.167 -21 33.5s-15.5 17.5 -23.5 21.5
c-7.33301 4 -18.166 7 -32.499 9s-29.833 3.66699 -46.5 5s-33.5 2.16602 -50.5 2.49902s-31.5 0.5 -43.5 0.5h-28v-285v-27v-56v-71.5v-71.5c0 -22 0.166992 -41 0.5 -57s0.5 -25.333 0.5 -28c1.33301 -12.667 4.33301 -22.5 9 -29.5s13 -10.5 25 -10.5h63
c4.66699 0 7.5 -0.833008 8.5 -2.5s1.5 -4.16699 1.5 -7.5v-21c0 -2.66699 -0.5 -4.66699 -1.5 -6s-3.83301 -2 -8.5 -2c-2.66699 0 -6.83398 0.166992 -12.501 0.5s-13.834 0.666016 -24.501 0.999023s-24.334 0.666016 -41.001 0.999023s-37.334 0.5 -62.001 0.5
c-48 0 -83.5 -0.5 -106.5 -1.5s-38.167 -1.5 -45.5 -1.5c-4 0 -6.5 0.833008 -7.5 2.5s-1.5 4.16699 -1.5 7.5v19c0 6.66699 2.33301 10 7 10h68c10 0 17.833 2.5 23.5 7.5s8.83398 10.5 9.50098 16.5c0.666992 4.66699 1.16699 16.334 1.5 35.001s0.5 40.667 0.5 66
s0.166992 52.166 0.5 80.499s0.5 54.833 0.5 79.5v63v31v257z" />
    <glyph glyph-name="U" unicode="U" horiz-adv-x="746" 
d="M370 -15c-26 0 -50.834 1.67188 -74.501 5.00488s-43.834 8.66602 -60.501 15.999c-34 13.333 -60.333 31 -79 53s-32 49 -40 81c-3.33301 11.333 -6 24.166 -8 38.499s-3.5 31.166 -4.5 50.499s-1.83301 41.666 -2.5 66.999s-1 54.333 -1 87v238
c0 17.333 -2.5 30.166 -7.5 38.499s-15.167 12.5 -30.5 12.5h-47c-4.66699 0 -7 3 -7 9v22c0 3.33301 0.5 5.5 1.5 6.5s3.5 1.5 7.5 1.5c5.33301 0 19.666 -0.5 42.999 -1.5s54.666 -1.5 93.999 -1.5s70.666 0.5 93.999 1.5s37.666 1.5 42.999 1.5c4 0 6.5 -0.5 7.5 -1.5
s1.5 -2.5 1.5 -4.5v-26c0 -4.66699 -2.66699 -7 -8 -7h-50c-14.667 0 -26 -4 -34 -12s-12.667 -17.667 -14 -29c0 -2 -0.166992 -7.66699 -0.5 -17s-0.666016 -20.166 -0.999023 -32.499s-0.5 -25.666 -0.5 -39.999v-40.5v-66c0 -13.333 0.166992 -30.333 0.5 -51
s0.833008 -41.667 1.5 -63s1.33398 -41 2.00098 -59s1 -31 1 -39c0.666992 -23.333 3.33398 -46 8.00098 -68s12.667 -41.667 24 -59c18.667 -27.333 42.5 -46.166 71.5 -56.499s58.167 -15.5 87.5 -15.5c28.667 0 56.5 4.66699 83.5 14s49.167 23 66.5 41
c19.333 21.333 32.833 46.666 40.5 75.999s11.5 62.666 11.5 99.999v214c0 38 -0.5 70.833 -1.5 98.5s-2.16699 47.834 -3.5 60.501c-1.33301 13.333 -5.83301 24 -13.5 32s-18.167 12 -31.5 12h-44c-4.66699 0 -7 2.66699 -7 8v24c0 4.66699 2.33301 7 7 7
c5.33301 0 18.666 -0.5 39.999 -1.5s49 -1.5 83 -1.5c34.667 0 60.5 0.5 77.5 1.5s27.833 1.5 32.5 1.5s7.5 -0.833008 8.5 -2.5s1.5 -3.16699 1.5 -4.5v-22c0 -6.66699 -2 -10 -6 -10h-41c-9.33301 0 -16.666 -1.5 -21.999 -4.5s-9.5 -6.66699 -12.5 -11
s-5 -8.83301 -6 -13.5s-1.83301 -8.33398 -2.5 -11.001s-1.16699 -12.167 -1.5 -28.5s-0.5 -34 -0.5 -53v-54v-30.5v-19.5c0 -10.333 -0.166992 -22.833 -0.5 -37.5s-0.666016 -30.667 -0.999023 -48l-1 -50c-0.333008 -16 -0.666016 -30.5 -0.999023 -43.5
s-0.833008 -22.833 -1.5 -29.5c-3.33301 -41.333 -11.166 -77.833 -23.499 -109.5s-32.5 -59.5 -60.5 -83.5c-20 -18.667 -45.333 -33.334 -76 -44.001s-68 -16 -112 -16z" />
    <glyph glyph-name="V" unicode="V" horiz-adv-x="706" 
d="M28 704c0 4.66699 2.33594 7 7.00293 7c5.33301 0 17 -0.5 35 -1.5s46.667 -1.5 86 -1.5c42 0 74.333 0.5 97 1.5s36.334 1.5 41.001 1.5s7.5 -0.666992 8.5 -2s1.5 -3 1.5 -5v-23c0 -6 -2.66699 -9 -8 -9h-48c-28 0 -42 -8.66699 -42 -26
c0 -4 0.333008 -8.83301 1 -14.5s1.66699 -12.167 3 -19.5c1.33301 -9.33301 4.5 -22.833 9.5 -40.5l16.5 -57.5l18.5 -61.5l16.5 -51.5c2 -6.66699 5.16699 -16.5 9.5 -29.5l15 -44.5l18 -53l19 -55l17.5 -50.5c5.33301 -15.667 10 -28.5 14 -38.5h2l14.5 35.5l21 52
l23 59.5l22 57.5c7 17.667 12.833 33 17.5 46s7.66699 21.5 9 25.5c2.66699 6.66699 6.66699 18 12 34l17.5 52.5l18.5 55.5l15 44l10 32.5c2.66699 9 4 17.167 4 24.5c0 6 -2.16699 11.333 -6.5 16s-12.833 7 -25.5 7h-26c-3.33301 0 -5 3 -5 9v23c0 4.66699 2 7 6 7
c4.66699 0 17.5 -0.5 38.5 -1.5s47.5 -1.5 79.5 -1.5c36.667 0 62.5 0.5 77.5 1.5s24.833 1.5 29.5 1.5s7 -2.33301 7 -7v-25c0 -4.66699 -2.33301 -7 -7 -7h-27c-16.667 0 -30.334 -3.66699 -41.001 -11s-20.667 -16.666 -30 -27.999
c-4.66699 -5.33301 -10.334 -15 -17.001 -29l-22.5 -48.5l-25.5 -58.5l-24.5 -59l-20.5 -50.5c-6 -15 -10.333 -26.167 -13 -33.5l-14.5 -37.5l-27.5 -68.5l-33.5 -83l-33 -81.5l-26 -63c-7 -17 -10.833 -26.167 -11.5 -27.5c-4.66699 -8.66699 -9.33398 -13 -14.001 -13
c-4 0 -7.16699 2.16699 -9.5 6.5s-4.83301 9.83301 -7.5 16.5l-19.5 56l-24.5 69.5l-26 73.5l-24.5 69l-20 55.5c-5.66699 15.667 -9.5 26.5 -11.5 32.5l-10 34l-21.5 64.5l-24.5 74l-22.5 66.5c-7 20 -12.167 33.667 -15.5 41c-5.33301 11.333 -10.833 19.666 -16.5 24.999
s-13.834 8 -24.501 8h-26c-3.33301 0 -5 2.33301 -5 7v25z" />
    <glyph glyph-name="W" unicode="W" horiz-adv-x="1045" 
d="M336 130l2.00684 -0.000976562l8 24l18 53.5l24.5 73l28 83l28 84.5l24.5 76.5c7.33301 23 13.333 42.667 18 59s7.33398 27.166 8.00098 32.499c0.666992 4 -0.5 9.66699 -3.5 17s-6.83301 14 -11.5 20c-9.33301 12.667 -22.666 19 -39.999 19h-25c-4 0 -6 2.66699 -6 8
v24c0 4.66699 2.33301 7 7 7s16.334 -0.5 35.001 -1.5s47.667 -1.5 87 -1.5c42 0 73.167 0.5 93.5 1.5s33.166 1.5 38.499 1.5c4.66699 0 7 -2.33301 7 -7v-25c0 -4.66699 -2.33301 -7 -7 -7h-40c-12.667 0 -21.334 -4.33301 -26.001 -13s-5.33398 -17.667 -2.00098 -27
l156 -502h2c2 5.33301 7.16699 20.333 15.5 45l30 89l37 112c13 40 24.833 78 35.5 114s19.667 67.833 27 95.5s11 46.167 11 55.5c0 8 -2.5 15.167 -7.5 21.5s-14.167 9.5 -27.5 9.5h-27c-4.66699 0 -7 3 -7 9v23c0 4.66699 2.66699 7 8 7s16.666 -0.5 33.999 -1.5
s41.666 -1.5 72.999 -1.5c28 0 49.5 0.5 64.5 1.5s24.5 1.5 28.5 1.5c4.66699 0 7 -2.33301 7 -7v-25c0 -2 -0.333008 -3.66699 -1 -5s-2.66699 -2 -6 -2h-24c-8.66699 0 -16.334 -2.5 -23.001 -7.5s-12.334 -11.5 -17.001 -19.5c-1.33301 -2 -5.33301 -11.833 -12 -29.5
l-25.5 -69.5l-35.5 -97l-41 -111l-41.5 -112.5l-37.5 -101.5l-28.5 -77.5c-7.66699 -21 -12.834 -34.5 -15.501 -40.5l-8.5 -17c-3 -6 -7.16699 -9 -12.5 -9c-6 0 -10.5 1.83301 -13.5 5.5s-5.83301 9.16699 -8.5 16.5l-185 549h-2
c-1.33301 -3.33301 -5 -13.666 -11 -30.999l-23 -65l-31 -87.5l-34.5 -98.5l-34.5 -97.5l-30.5 -85.5l-22.5 -61.5c-6 -15.667 -9.33301 -24.167 -10 -25.5c-2.66699 -5.33301 -5.5 -9.83301 -8.5 -13.5s-6.83301 -5.5 -11.5 -5.5c-8.66699 0 -14.667 5.33301 -18 16
l-223 640c-5.33301 14 -11.5 23.5 -18.5 28.5s-15.167 7.5 -24.5 7.5h-34c-4 0 -6 2.66699 -6 8v24c0 4.66699 2.66699 7 8 7c4 0 14.333 -0.5 31 -1.5s42 -1.5 76 -1.5c36 0 64.167 0.5 84.5 1.5s33.166 1.5 38.499 1.5s8 -2 8 -6v-25c0 -5.33301 -2.66699 -8 -8 -8h-17
c-13.333 0 -22.333 -3.16699 -27 -9.5s-5.33398 -15.166 -2.00098 -26.499z" />
    <glyph glyph-name="X" unicode="X" horiz-adv-x="697" 
d="M229 6c0 -6 -2.66797 -9.00098 -8.00098 -9.00098s-18.166 0.5 -38.499 1.5s-50.833 1.5 -91.5 1.5c-30 0 -54.333 -0.5 -73 -1.5s-30.334 -1.5 -35.001 -1.5c-4 0 -6 3 -6 9v23c0 4.66699 2 7 6 7h39c8 0 17 2.66699 27 8s20 12.333 30 21
c15.333 13.333 33.5 33.333 54.5 60l63.5 84l61.5 84.5c19.667 27 35.5 47.833 47.5 62.5l-26 39l-38.5 57.5l-44.5 65l-43.5 62.5l-35.5 50c-10 14 -17 23 -21 27c-10 10 -25 15 -45 15h-44c-3.33301 0 -5 2.66699 -5 8v23c0 5.33301 1.66699 8 5 8
c5.33301 0 19.5 -0.5 42.5 -1.5s56.167 -1.5 99.5 -1.5c50 0 86.5 0.5 109.5 1.5s36.833 1.5 41.5 1.5c5.33301 0 8 -2.33301 8 -7v-23c0 -3.33301 -0.5 -5.66602 -1.5 -6.99902s-3.5 -2 -7.5 -2h-35c-11.333 0 -19.833 -1.5 -25.5 -4.5s-9.33398 -6.66699 -11.001 -11
s-1.66699 -9.33301 0 -15s4.16699 -11.167 7.5 -16.5c2 -4 8.66699 -15.167 20 -33.5l37 -61l39.5 -65c13 -21 22.5 -35.5 28.5 -43.5l20 26.5l29 39l33 45l31.5 43.5l24.5 35c6.66699 10 11 16.667 13 20c5.33301 10 6.66602 19.333 3.99902 28s-10.667 13 -24 13h-21
c-4 0 -6 3 -6 9v23c0 4.66699 2.33301 7 7 7c5.33301 0 17.666 -0.5 36.999 -1.5s43.333 -1.5 72 -1.5c28 0 50.5 0.5 67.5 1.5s28.167 1.5 33.5 1.5s8 -2.33301 8 -7v-23c0 -6 -2 -9 -6 -9h-42c-11.333 0 -20 -1.33301 -26 -4s-11.333 -5.66699 -16 -9
c-3.33301 -2 -10 -8.83301 -20 -20.5l-36 -43l-45 -56l-46.5 -59l-40.5 -52.5l-28 -37c2 -3.33301 8.5 -13.5 19.5 -30.5l40 -61l50 -76l49 -75.5l39 -59c11 -16 17.167 -24.667 18.5 -26c11.333 -10.667 22.833 -17.834 34.5 -21.501s22.167 -5.5 31.5 -5.5h33
c5.33301 0 8 -2.33301 8 -7v-24c0 -5.33301 -2.66699 -8 -8 -8c-4 0 -15.667 0.5 -35 1.5s-50 1.5 -92 1.5c-40 0 -72.667 -0.5 -98 -1.5s-39.666 -1.5 -42.999 -1.5c-5.33301 0 -8 2.33301 -8 7v25c0 4.66699 2 7 6 7h39c10 0 17.333 1.5 22 4.5
s5.33398 7.83301 2.00098 14.5c-1.33301 2.66699 -5.66602 10.334 -12.999 23.001l-27.5 46.5l-36 59.5l-37.5 60.5l-32 50.5c-9.33301 14.667 -15.666 24.334 -18.999 29.001l-25.5 -36l-33 -47.5l-35.5 -52l-33 -49l-25 -38.5
c-6.66699 -10.667 -10.667 -17.334 -12 -20.001c-5.33301 -14 -6.5 -25 -3.5 -33s10.5 -12 22.5 -12h39c5.33301 0 8 -2 8 -6v-24z" />
    <glyph glyph-name="Y" unicode="Y" horiz-adv-x="665" 
d="M369 186c0 -10 0.165039 -20.9951 0.498047 -32.9951l1 -35c0.333008 -11.333 0.833008 -21.333 1.5 -30s1 -14.334 1 -17.001c1.33301 -16 5.66602 -25.833 12.999 -29.5s17.666 -5.5 30.999 -5.5h39c3.33301 0 5.33301 -0.666992 6 -2s1 -3 1 -5v-23
c0 -3.33301 -0.333008 -5.66602 -1 -6.99902s-2.66699 -2 -6 -2c-6 0 -19.5 0.5 -40.5 1.5s-52.5 1.5 -94.5 1.5c-22.667 0 -41.667 -0.166992 -57 -0.5s-28.166 -0.666016 -38.499 -0.999023s-18.333 -0.666016 -24 -0.999023s-9.83398 -0.5 -12.501 -0.5
c-4 0 -6 2.66699 -6 8v24c0 4.66699 2.33301 7 7 7h49c13.333 0 22.333 2.33301 27 7s7.33398 10.667 8.00098 18c0 3.33301 0.166992 10.666 0.5 21.999s0.666016 25.166 0.999023 41.499s0.666016 35 0.999023 56s0.5 43.167 0.5 66.5v58c-2 4 -8 14.667 -18 32l-35.5 61
l-44.5 75l-46 76l-39.5 63c-11.667 18 -19.834 30 -24.501 36c-6.66699 7.33301 -15 13.166 -25 17.499s-19 6.5 -27 6.5h-25c-4.66699 0 -7 2.33301 -7 7v26c0 4 2.33301 6 7 6s17.667 -0.5 39 -1.5s47.333 -1.5 78 -1.5c26 0 47.833 0.166992 65.5 0.5
s32.334 0.666016 44.001 0.999023s20.5 0.666016 26.5 0.999023s10.333 0.5 13 0.5c4.66699 0 7 -1.66699 7 -5v-25c0 -6 -2.33301 -9 -7 -9h-33c-15.333 0 -24.666 -2.5 -27.999 -7.5s-4 -13.5 -2 -25.5c0.666992 -2.66699 4.16699 -10.334 10.5 -23.001
s14.5 -28.167 24.5 -46.5l33 -60l35 -63.5l31 -57l22 -40l26 39.5l36.5 55.5l40 62l38 58.5c11.667 17.667 21.167 32.667 28.5 45s11.333 20.166 12 23.499c0.666992 4 1.33398 8.33301 2.00098 13s0.166992 9 -1.5 13s-5 7.16699 -10 9.5s-12.833 3.5 -23.5 3.5h-27
c-4.66699 0 -7 3 -7 9v24c0 4 2.33301 6 7 6c5.33301 0 17.833 -0.5 37.5 -1.5s46.5 -1.5 80.5 -1.5c30 0 51.333 0.5 64 1.5s21.334 1.5 26.001 1.5c5.33301 0 8 -2 8 -6v-24c0 -6 -2.66699 -9 -8 -9h-25c-7.33301 0 -15.166 -1.66699 -23.499 -5s-16.833 -9 -25.5 -17
c-3.33301 -3.33301 -10.666 -12.5 -21.999 -27.5l-40 -55l-49.5 -70.5l-51.5 -73.5l-45 -64c-13.333 -19 -23 -33.167 -29 -42.5v-131z" />
    <glyph glyph-name="Z" unicode="Z" horiz-adv-x="702" 
d="M62 0c-4 0 -8.16895 0.334961 -12.502 1.00195s-6.5 3 -6.5 7c0 3.33301 0.333008 6.66602 1 9.99902s2.33398 6.33301 5.00098 9c6.66699 7.33301 18.334 22.166 35.001 44.499l60 81l76 103.5l82.5 113.5l80.5 112l69.5 97l49.5 69
c12.667 17.667 19.334 27.167 20.001 28.5h-271c-13.333 0 -26.666 -5.33301 -39.999 -16c-5.33301 -4 -13.833 -12.667 -25.5 -26l-36.5 -43.5l-36 -45.5c-11.333 -14.667 -19.333 -26 -24 -34c-2.66699 -3.33301 -5.66699 -3.66602 -9 -0.999023l-13 6l-3 3
c-0.666992 0.666992 -0.333984 2.66699 0.999023 6l63 180c2.66699 7.33301 6.66699 11 12 11c2 0 4.83301 -0.166992 8.5 -0.5s7.5 -0.833008 11.5 -1.5c12 -1.33301 28.833 -2.5 50.5 -3.5s45.5 -1.66699 71.5 -2s52.167 -0.5 78.5 -0.5h70.5c18 0 36 0.333008 54 1l54 2
c36 2 71.333 3 106 3c8 0 12.5 -2.33301 13.5 -7s-1.16699 -10.334 -6.5 -17.001c-2.66699 -2.66699 -11.167 -13.667 -25.5 -33l-54.5 -74l-74.5 -101.5l-84.5 -115l-84.5 -115.5l-74.5 -103l-54.5 -76c-14.333 -20 -22.833 -32 -25.5 -36h352
c9.33301 6 21.166 16.167 35.499 30.5l43.5 45.5c14.667 16 27.667 31 39 45l22 27c2.66699 2.66699 5.66699 3.33398 9 2.00098l14 -8c3.33301 -2 4 -5 2 -9c-3.33301 -6 -8.5 -17.167 -15.5 -33.5l-22 -52c-7.66699 -18.333 -14.667 -35.833 -21 -52.5
s-10.5 -28.334 -12.5 -35.001c-2 -7.33301 -6.33301 -11 -13 -11c-2 0 -5 0.333008 -9 1s-9.33301 1.66699 -16 3c-14 2 -33.5 3.66699 -58.5 5s-52 2.5 -81 3.5s-58.5 1.66699 -88.5 2s-57 0.5 -81 0.5h-211z" />
    <glyph glyph-name="bracketleft" unicode="[" horiz-adv-x="354" 
d="M306 747c4 0 6 -2 6 -6v-24c0 -5.33301 -2.66699 -8 -8 -8h-135c-6.66699 0 -10 -3.66699 -10 -11v-819c0 -9.33301 2.33301 -14 7 -14h148c5.33301 0 8 -3 8 -9v-21c0 -5.33301 -3 -8 -9 -8h-211c-7.33301 0 -11 3.66699 -11 11v900c0 6 3.33301 9 10 9h205z" />
    <glyph glyph-name="backslash" unicode="\" horiz-adv-x="350" 
d="M309 -15c-2 -0.666992 -3.83203 -0.331055 -5.49902 1.00195s-3.83398 5 -6.50098 11l-295 702c-2 5.33301 -1.33301 8.66602 2 9.99902l38 16c4 1.33301 7.33301 -0.333984 10 -5.00098l296 -708c2.66699 -6.66699 2 -10.667 -2 -12z" />
    <glyph glyph-name="bracketright" unicode="]" horiz-adv-x="354" 
d="M41 -173c-6 0 -9 2.66797 -9 8.00098v21c0 3.33301 0.333008 5.66602 1 6.99902s3 2 7 2h149c4 0 6 4 6 12v821c0 7.33301 -3 11 -9 11h-136c-5.33301 0 -8 2.66699 -8 8v24c0 4 2 6 6 6h205c6.66699 0 10 -3 10 -9v-900c0 -7.33301 -3.66699 -11 -11 -11h-211z" />
    <glyph glyph-name="asciicircum" unicode="^" 
d="M234 683h32l212 -423h-65l-164 328h-5l-159 -328h-62z" />
    <glyph glyph-name="underscore" unicode="_" 
d="M0 -75h500v-50h-500v50z" />
    <glyph glyph-name="grave" unicode="`" horiz-adv-x="334" 
d="M188 486c-2 -2 -3.99902 -2.00098 -5.99902 -0.000976562l-132 94c-9.33301 6.66699 -15.333 13.834 -18 21.501s-2.83398 14.834 -0.500977 21.501s6.5 12.167 12.5 16.5s12.667 6.5 20 6.5c10 0 18.167 -2.83301 24.5 -8.5s11.833 -11.167 16.5 -16.5l96 -119
c1.33301 -2.66699 1 -4.33398 -1 -5.00098z" />
    <glyph glyph-name="a" unicode="a" horiz-adv-x="427" 
d="M263 220c-9.33301 -6.66699 -21.5 -13.332 -36.5 -19.999s-29.667 -14.667 -44 -24s-26.833 -20.833 -37.5 -34.5s-16 -30.834 -16 -51.501c0 -18.667 4.83301 -32.5 14.5 -41.5s22.167 -13.5 37.5 -13.5c7.33301 0 15.666 2 24.999 6s18.333 9 27 15
s15.834 12.667 21.501 20s8.5 14.333 8.5 21v123zM336 119.002c0 -28.667 2.66309 -48.333 7.99609 -59s12.666 -16 21.999 -16c8 0 15.167 1.66699 21.5 5s10.833 6.66602 13.5 9.99902c4 4.66699 7.33301 6 10 4l10 -8c1.33301 -1.33301 2.33301 -3.33301 3 -6
s-0.666016 -6.66699 -3.99902 -12c-2 -4 -4.83301 -8.66699 -8.5 -14s-8.5 -10.666 -14.5 -15.999s-13.5 -9.83301 -22.5 -13.5s-19.833 -5.5 -32.5 -5.5c-18 0 -33.167 6 -45.5 18s-20.833 28.333 -25.5 49h-2c-22 -26 -55 -46.333 -99 -61
c-9.33301 -3.33301 -18.666 -5.16602 -27.999 -5.49902s-19.666 -0.5 -30.999 -0.5c-6 0 -12.5 1.33301 -19.5 4s-13.5 7.33398 -19.5 14.001s-11 15.167 -15 25.5s-6 23.5 -6 39.5c0 22.667 6.83301 44.167 20.5 64.5s40.167 39.166 79.5 56.499l67.5 31
c22.333 10.667 37.5 19.667 45.5 27v64c-1.33301 8.66699 -2.66602 18.5 -3.99902 29.5s-4.66602 19.833 -9.99902 26.5s-13 12 -23 16s-22.333 6 -37 6c-10 0 -21.5 -1.83301 -34.5 -5.5s-23.167 -8.83398 -30.5 -15.501s-10 -13.667 -8 -21s3 -15.666 3 -24.999
c0 -17.333 -3.66699 -31.166 -11 -41.499s-21.333 -15.5 -42 -15.5c-16 0 -24 10.667 -24 32c0 16 6.33301 32.667 19 50s29.334 32 50.001 44c21.333 12.667 41.333 21.667 60 27s39.334 8 62.001 8c23.333 0 40.666 -2.83301 51.999 -8.5s20.666 -11.834 27.999 -18.501
c10.667 -10.667 17 -21.834 19 -33.501s3 -24.167 3 -37.5v-153v-59z" />
    <glyph glyph-name="b" unicode="b" horiz-adv-x="504" 
d="M144 215c0 -20.667 0.168945 -38.334 0.501953 -53.001s1.16602 -27.5 2.49902 -38.5s2.83301 -20.667 4.5 -29s4.16699 -16.5 7.5 -24.5c2.66699 -6 7 -12 13 -18s13.333 -11.333 22 -16s18.167 -8.5 28.5 -11.5s20.833 -4.5 31.5 -4.5c14.667 0 30 2.83301 46 8.5
s30.5 15.167 43.5 28.5s23.667 31 32 53s12.5 49.333 12.5 82c0 24 -3.16699 47.5 -9.5 70.5s-15.833 43.167 -28.5 60.5s-28.167 31.333 -46.5 42s-39.833 16 -64.5 16c-18.667 0 -36.334 -3.16699 -53.001 -9.5s-30.667 -15.166 -42 -26.499v-130zM72.002 539
c0 16.667 -0.837891 30.3311 -2.50488 40.998s-4.16699 19.334 -7.5 26.001s-8.16602 11.834 -14.499 15.501s-13.833 7.16699 -22.5 10.5l-10 3c-5.33301 1.33301 -8.83301 2.66602 -10.5 3.99902s-2.5 2.66602 -2.5 3.99902v8c0 2.66699 2.66699 5.33398 8 8.00098
l25.5 12l29 14.5l28.5 15c9.33301 5 17 9.5 23 13.5c3.33301 2.66699 6.83301 4.83398 10.5 6.50098s7.16699 2.5 10.5 2.5c6 0 8.66699 -5.66699 8 -17c0 -2 -0.166992 -10 -0.5 -24s-0.5 -31.167 -0.5 -51.5v-66.5v-69v-116c16 15.333 36.833 27.5 62.5 36.5
s50.834 13.5 75.501 13.5c22 0 43.833 -4.5 65.5 -13.5s41.334 -22.333 59.001 -40s31.834 -39.834 42.501 -66.501s16 -58 16 -94c0 -29.333 -5.5 -57.666 -16.5 -84.999s-26 -51.5 -45 -72.5s-41 -37.833 -66 -50.5s-51.833 -19 -80.5 -19c-28 0 -51.833 2.5 -71.5 7.5
s-35.167 11.167 -46.5 18.5l-40 -22c-4 -2.66699 -8.33301 -3.66699 -13 -3l-12 3c-3.33301 0.666992 -4.66602 3.33398 -3.99902 8.00098c0.666992 3.33301 1.16699 10.666 1.5 21.999s0.5 25 0.5 41v52v55v369z" />
    <glyph glyph-name="c" unicode="c" horiz-adv-x="411" 
d="M228 397c-14 0 -28.1621 -3.16797 -42.4951 -9.50098s-27 -16 -38 -29s-20 -29.167 -27 -48.5s-10.5 -42 -10.5 -68c0 -27.333 5.16699 -54.833 15.5 -82.5s22.166 -50.834 35.499 -69.501c16.667 -21.333 34.667 -35.166 54 -41.499s37.666 -9.5 54.999 -9.5
c25.333 0 45.666 3.16699 60.999 9.5s31.666 17.5 48.999 33.5c2.66699 2.66699 5.33398 2.66699 8.00098 0l10 -10c4 -4 4 -8.33301 0 -13c-7.33301 -8 -16.666 -16.333 -27.999 -25s-24 -16.334 -38 -23.001s-29.167 -12.167 -45.5 -16.5s-32.833 -6.5 -49.5 -6.5
c-13.333 0 -26.666 1 -39.999 3s-26.666 5.5 -39.999 10.5s-26.333 12 -39 21s-24.667 20.833 -36 35.5c-18.667 24.667 -30.834 47.834 -36.501 69.501s-8.5 43.834 -8.5 66.501c0 29.333 5 58 15 86s24.167 53 42.5 75s40.666 39.833 66.999 53.5s56.166 20.5 89.499 20.5
c26 0 47.667 -3.16699 65 -9.5s31.333 -14 42 -23s18.167 -18 22.5 -27s6.5 -16.167 6.5 -21.5c-0.666992 -11.333 -4.33398 -20 -11.001 -26s-15.334 -9 -26.001 -9c-22 0 -40.333 13.333 -55 40c-11.333 20.667 -22.333 33.167 -33 37.5s-22 6.5 -34 6.5z" />
    <glyph glyph-name="d" unicode="d" horiz-adv-x="521" 
d="M363 292c0 7.33301 -0.333984 15.333 -1.00098 24s-3.33398 17 -8.00098 25c-7.33301 13.333 -19.166 25.666 -35.499 36.999s-39.5 17 -69.5 17c-15.333 0 -31 -2.66699 -47 -8s-30.667 -14.666 -44 -27.999c-19.333 -21.333 -31.833 -44 -37.5 -68
s-8.5 -45.667 -8.5 -65c0 -28 4.33301 -54 13 -78s19.667 -44.667 33 -62s28 -30.833 44 -40.5s31.333 -14.5 46 -14.5c28 0 51.833 5.83301 71.5 17.5s32.167 24.167 37.5 37.5c2.66699 7.33301 4.33398 13.5 5.00098 18.5s1 10.167 1 15.5v172zM362.999 609
c0 9.33301 -0.669922 17.3408 -2.00293 24.0078s-4.16602 12.167 -8.49902 16.5s-10.666 8 -18.999 11s-19.5 5.5 -33.5 7.5c-4.66699 0.666992 -7 3 -7 7v17c0 4 2.66699 6.33301 8 7l31 6l31.5 6c10.333 2 19.666 3.66699 27.999 5s14.833 2.66602 19.5 3.99902
c4.66699 0.666992 8.83398 1.33398 12.501 2.00098s7.16699 1 10.5 1c4.66699 0 6.33398 -6 5.00098 -18c-0.666992 -12.667 -1.33398 -30.5 -2.00098 -53.5s-1.16699 -49.167 -1.5 -78.5s-0.5 -60.333 -0.5 -93v-97v-221c0 -18.667 0.666992 -37.167 2 -55.5
s4 -30.166 8 -35.499c4.66699 -5.33301 11.334 -9.33301 20.001 -12s16.667 -4.33398 24 -5.00098s12.166 -1.33398 14.499 -2.00098s4.16602 -2.33398 5.49902 -5.00098l2 -8c0.666992 -5.33301 -1.66602 -9 -6.99902 -11l-113 -38c-6.66699 -2 -11 0.666992 -13 8l-13 44
c-8 -8 -17.833 -15.333 -29.5 -22s-24 -12.334 -37 -17.001s-26.5 -8.33398 -40.5 -11.001s-27.333 -4 -40 -4c-8 0 -16.5 0.166992 -25.5 0.5s-18.333 1.83301 -28 4.5s-19.834 7.16699 -30.501 13.5s-22 15.5 -34 27.5c-25.333 24.667 -42.166 49.5 -50.499 74.5
s-12.5 54.167 -12.5 87.5c0 31.333 5.83301 61.666 17.5 90.999s29.167 55.666 52.5 78.999c19.333 21.333 42 37.166 68 47.499s53 15.5 81 15.5c20.667 0 39.834 -1.33301 57.501 -4s34.167 -6.33398 49.5 -11.001v195z" />
    <glyph glyph-name="e" unicode="e" horiz-adv-x="426" 
d="M274 296c18 0 26.998 4.66699 26.998 14c0 6 -1 14 -3 24s-5.66699 19.833 -11 29.5s-13.166 18 -23.499 25s-23.5 10.5 -39.5 10.5c-22 0 -42.667 -7.83301 -62 -23.5s-33.666 -42.167 -42.999 -79.5h155zM114.998 266c-2 -9.33301 -2.99512 -25.335 -2.99512 -48.002
c0 -24.667 3.66699 -47.5 11 -68.5s17.333 -39.167 30 -54.5s27.667 -27.333 45 -36s36 -13 56 -13c30.667 0 56.334 7.16699 77.001 21.5s35.334 29.833 44.001 46.5c2 4.66699 5 6.33398 9 5.00098l13 -7c1.33301 -0.666992 2.33301 -2 3 -4s-0.333008 -5.66699 -3 -11
c-4.66699 -10 -11.334 -21.333 -20.001 -34s-19.667 -24.5 -33 -35.5s-28.833 -20.333 -46.5 -28s-37.5 -11.5 -59.5 -11.5c-28.667 0 -57.334 5 -86.001 15s-52.334 28.667 -71.001 56c-8.66699 12.667 -15.834 24.834 -21.501 36.501s-10.167 23.5 -13.5 35.5
s-5.66602 25 -6.99902 39s-2 29.667 -2 47c0 10 0.833008 21.333 2.5 34s4.66699 26 9 40s10.666 28.333 18.999 43s19.166 28.667 32.499 42c21.333 22 44.166 36.333 68.499 43s49.166 10 74.499 10c28.667 0 52.5 -5.83301 71.5 -17.5s34 -25.5 45 -41.5
s18.833 -32.167 23.5 -48.5s7 -29.5 7 -39.5c0 -7.33301 -2.66699 -11.833 -8 -13.5s-12 -2.5 -20 -2.5h-247z" />
    <glyph glyph-name="f" unicode="f" horiz-adv-x="310" 
d="M107 369l-69 -0.00195312c-4.66699 0 -6.33398 3.66699 -5.00098 11l4 30c0.666992 4.66699 4.66699 7 12 7h58v19c0 50 6.33301 91.667 19 125s28.667 61 48 83c26.667 29.333 53.667 49.833 81 61.5s55 17.5 83 17.5c12 0 23.333 -1.16699 34 -3.5
s20.334 -5.83301 29.001 -10.5s15.5 -10.5 20.5 -17.5s7.5 -15.167 7.5 -24.5c0 -12 -5 -22.167 -15 -30.5s-19 -12.5 -27 -12.5c-10.667 0 -20 2 -28 6c-4.66699 2.66699 -9.33398 6.5 -14.001 11.5s-8 8.83301 -10 11.5c-12.667 15.333 -28 23 -46 23
c-13.333 0 -26.333 -2.33301 -39 -7s-24.667 -14 -36 -28c-9.33301 -12 -16.333 -26 -21 -42s-8 -33.167 -10 -51.5s-3.16699 -37 -3.5 -56s-0.5 -37.167 -0.5 -54.5v-20h121c3.33301 0 5.5 -1.16699 6.5 -3.5s1.16699 -4.5 0.5 -6.5l-5 -33
c-0.666992 -3.33301 -5 -5 -13 -5h-110v-89v-82.5v-68c0 -19.667 0.166992 -35.667 0.5 -48s0.5 -19.833 0.5 -22.5c1.33301 -8.66699 3.33301 -15.167 6 -19.5s9.33398 -6.5 20.001 -6.5h57c7.33301 0 11 -2.66699 11 -8v-16c0 -8 -2.33301 -12 -7 -12
c-3.33301 0 -14.5 0.5 -33.5 1.5s-47.833 1.5 -86.5 1.5c-14 0 -27.333 -0.166992 -40 -0.5s-24.167 -0.666016 -34.5 -0.999023s-19 -0.666016 -26 -0.999023s-11.5 -0.5 -13.5 -0.5c-5.33301 0 -8 2.33301 -8 7v22c0 4.66699 3.33301 7 10 7h48c9.33301 0 15.5 3 18.5 9
s4.83301 14.667 5.5 26v188v113z" />
    <glyph glyph-name="g" unicode="g" horiz-adv-x="485" 
d="M253 -240c9.33301 0 22.166 1.83301 38.499 5.5s32.333 9.5 48 17.5s29.167 18.5 40.5 31.5s16.333 29.167 15 48.5c0 30 -11.667 54.5 -35 73.5s-60 26.833 -110 23.5l-96 -7c-8 -2 -16.667 -5.66699 -26 -11s-18 -12 -26 -20s-14.667 -17.5 -20 -28.5
s-8 -23.167 -8 -36.5c0 -12.667 4 -25.5 12 -38.5s17 -23.167 27 -30.5c16.667 -11.333 35.334 -18.833 56.001 -22.5s48.667 -5.5 84 -5.5zM212 143c16.667 0 30.832 4.66797 42.499 14.001s21 21.166 28 35.499s12 30 15 47s4.5 33.5 4.5 49.5c0 22 -2.16699 40 -6.5 54
s-11.166 26 -20.499 36c-6.66699 6.66699 -14.5 12 -23.5 16s-17.167 6 -24.5 6c-11.333 0 -23 -1.66699 -35 -5s-24 -11 -36 -23c-16 -17.333 -26 -36.5 -30 -57.5s-6 -41.167 -6 -60.5c0 -35.333 10.667 -64.333 32 -87c17.333 -16.667 37.333 -25 60 -25z
M217.998 -271.999c-24 0 -49.4922 2.00391 -76.4922 6.00391s-52.5 12.667 -76.5 26c-18 11.333 -31 23.5 -39 36.5s-12 27.833 -12 44.5c0 14 3.16699 27.167 9.5 39.5s14.666 23.5 24.999 33.5s21.666 19 33.999 27s24.5 14.667 36.5 20v4
c-21.333 4.66699 -37.833 13.667 -49.5 27s-17.5 27.666 -17.5 42.999c0 12 3 23.167 9 33.5s13.5 19.5 22.5 27.5s18.833 14.833 29.5 20.5s20.334 10.167 29.001 13.5v2c-10 4 -20.333 10 -31 18s-20.667 18.333 -30 31s-17 27.5 -23 44.5s-9 36.5 -9 58.5
c0 16 3.66699 32.667 11 50s18.166 33 32.499 47s32.166 25.5 53.499 34.5s46 13.5 74 13.5c18.667 0 35.334 -2.5 50.001 -7.5s27.167 -10.667 37.5 -17s18.666 -12.833 24.999 -19.5l13.5 -14c13.333 9.33301 28.166 18.166 44.499 26.499s32.833 12.5 49.5 12.5
s29 -4.5 37 -13.5s11.333 -18.5 10 -28.5c0 -9.33301 -3.66699 -17.833 -11 -25.5s-16.666 -11.5 -27.999 -11.5c-8.66699 0 -15.667 1.66699 -21 5s-10 6.66602 -14 9.99902l-10 6c-3.33301 2 -7 3 -11 3c-3.33301 0 -7.83301 -0.166992 -13.5 -0.5
s-11.834 -2.16602 -18.501 -5.49902c4 -10 7.5 -20.833 10.5 -32.5s4.5 -26.167 4.5 -43.5c0 -19.333 -2.83301 -38.333 -8.5 -57s-15.167 -35.667 -28.5 -51c-6.66699 -7.33301 -14.834 -14 -24.501 -20s-20 -11.333 -31 -16s-21.833 -8.16699 -32.5 -10.5
s-20 -3.5 -28 -3.5c-11.333 0 -20.833 0.333008 -28.5 1s-15.167 2 -22.5 4c-5.33301 -2 -11 -4.66699 -17 -8s-11.667 -7.5 -17 -12.5s-9.83301 -10.5 -13.5 -16.5s-5.5 -12.333 -5.5 -19c0 -10 3 -17.667 9 -23s14.167 -9 24.5 -11s22.666 -2.83301 36.999 -2.5
s29.833 1.16602 46.5 2.49902c41.333 2 75.333 0.333008 102 -5s50 -15.666 70 -30.999c10.667 -8 19.167 -16.333 25.5 -25s11.166 -17.334 14.499 -26.001s5.66602 -16.834 6.99902 -24.501s2 -14.5 2 -20.5c0 -23.333 -4.83301 -45 -14.5 -65s-27.167 -39.333 -52.5 -58
c-13.333 -9.33301 -34.5 -19.5 -63.5 -30.5s-64.833 -16.5 -107.5 -16.5z" />
    <glyph glyph-name="h" unicode="h" horiz-adv-x="539" 
d="M98 545c0 15.333 -0.826172 27.668 -2.49316 37.001s-4.33398 17 -8.00098 23s-8.66699 10.667 -15 14s-13.833 6.66602 -22.5 9.99902l-17 6c-4.66699 1.33301 -7 3.33301 -7 6v9c0 2 0.833008 3.5 2.5 4.5l9.5 5.5l104 55l11.5 5.5c3.66699 1.66699 7.5 2.5 11.5 2.5
c7.33301 0 10 -8.33301 8 -25c-0.666992 -2.66699 -1 -10.167 -1 -22.5s-0.166992 -27 -0.5 -44s-0.666016 -35.667 -0.999023 -56s-0.5 -40 -0.5 -59v-52v-36.5v-64h5c17.333 21.333 39 37.5 65 48.5s50 16.5 72 16.5c21.333 0 39.666 -3.33301 54.999 -10
s30 -16.667 44 -30c11.333 -10.667 20 -21.667 26 -33s10.167 -23.333 12.5 -36s3.66602 -25.5 3.99902 -38.5s0.5 -26.167 0.5 -39.5v-57c0 -14 0.166992 -28.167 0.5 -42.5s0.5 -27.666 0.5 -39.999s0.166992 -23.333 0.5 -33s0.5 -16.834 0.5 -21.501
c0 -6 3.5 -10 10.5 -12s15.833 -3 26.5 -3h17c7.33301 0 11 -3 11 -9v-15c0 -8 -2.66699 -12 -8 -12c-3.33301 0 -13 0.5 -29 1.5s-38.333 1.5 -67 1.5c-24.667 0 -45.334 -0.5 -62.001 -1.5s-27.334 -1.5 -32.001 -1.5c-6 0 -9 3.66699 -9 11v17c0 5.33301 2.33301 8 7 8
h23c8.66699 0 17 1 25 3s12.333 7.33301 13 16v16.5v26v29.5v27v81c0 28 -1.83301 52.167 -5.5 72.5s-12.834 37.166 -27.501 50.499c-19.333 18.667 -41.333 28 -66 28c-14.667 0 -30.334 -3 -47.001 -9s-32 -17 -46 -33c-4.66699 -5.33301 -9.16699 -12.5 -13.5 -21.5
s-6.5 -18.167 -6.5 -27.5v-218c0 -16 1.33301 -26.833 4 -32.5s8.66699 -8.5 18 -8.5h30c7.33301 0 11 -2.66699 11 -8v-17c0 -7.33301 -2.66699 -11 -8 -11c-4 0 -15 0.5 -33 1.5s-38.667 1.5 -62 1.5c-25.333 0 -46.666 -0.5 -63.999 -1.5s-28.333 -1.5 -33 -1.5
s-7 3.33301 -7 10v18c0 5.33301 5 8 15 8h21c8 0 15.167 1.16699 21.5 3.5s10.166 6.5 11.499 12.5c0.666992 4.66699 1.16699 14.334 1.5 29.001s0.666016 31.5 0.999023 50.5s0.5 38.833 0.5 59.5v55v302z" />
    <glyph glyph-name="i" unicode="i" horiz-adv-x="267" 
d="M112 544c-5.33301 0 -11.333 1.16699 -18 3.5s-12.667 5.83301 -18 10.5s-9.83301 10.167 -13.5 16.5s-5.5 13.5 -5.5 21.5c0 12.667 5.16699 24.5 15.5 35.5s25.5 16.5 45.5 16.5c17.333 0 30.333 -5.33301 39 -16s13 -21.667 13 -33
c0 -13.333 -4.66699 -25.833 -14 -37.5s-24 -17.5 -44 -17.5zM102 144l0.000976562 147c0 16.667 -3.16699 29.834 -9.5 39.501s-21.833 16.5 -46.5 20.5c-6 0.666992 -9 3 -9 7v9c0 2.66699 2.33301 5 7 7c16 6 33.167 13 51.5 21s37.166 17.333 56.499 28
c8 4 14.333 6 19 6s6.33398 -4 5.00098 -12c-1.33301 -8.66699 -2 -27.5 -2 -56.5v-106.5v-109v-53.5c0 -16.333 0.333008 -27.166 1 -32.499c1.33301 -9.33301 3 -16 5 -20s5.66699 -6 11 -6h46c6.66699 0 10 -3 10 -9v-17c0 -6.66699 -3 -10 -9 -10
c-2 0 -6.16699 0.166992 -12.5 0.5s-14 0.666016 -23 0.999023s-18.667 0.666016 -29 0.999023s-20.833 0.5 -31.5 0.5c-29.333 0 -53.333 -0.5 -72 -1.5s-30.667 -1.5 -36 -1.5s-8 2.66699 -8 8v20c0 5.33301 3.33301 8 10 8h49c5.33301 0 9.16602 1.33301 11.499 4
s3.83301 8 4.5 16c0.666992 15.333 1 30.5 1 45.5v45.5z" />
    <glyph glyph-name="j" unicode="j" horiz-adv-x="246" 
d="M114 544c-6 0 -12.5029 1.16602 -19.5029 3.49902s-13.5 6 -19.5 11s-11 11.333 -15 19s-6 16.834 -6 27.501c0 5.33301 1.5 11.333 4.5 18s7.33301 13 13 19s12.667 11.167 21 15.5s17.833 6.5 28.5 6.5c5.33301 0 11.333 -1.16699 18 -3.5s12.834 -6 18.501 -11
s10.334 -11.5 14.001 -19.5s5.5 -17.333 5.5 -28c0 -14 -5.66699 -27.167 -17 -39.5s-26.666 -18.5 -45.999 -18.5zM96.9971 72.999l-0.000976562 198.004c0 10.667 -0.666992 19.667 -2 27s-3.66602 13.5 -6.99902 18.5s-8.33301 9.33301 -15 13s-15 7.5 -25 11.5l-10 4
c-4 1.33301 -6 3.66602 -6 6.99902v9c0 2 2.66699 4.66699 8 8c16 5.33301 33.667 12.666 53 21.999s37.666 19.666 54.999 30.999c4 3.33301 7.33301 5.33301 10 6s5.66699 1 9 1c6 0 8 -5.66699 6 -17c-1.33301 -4.66699 -2.33301 -22.667 -3 -54s-1 -70 -1 -116v-125
c0 -14.667 -0.166992 -31.834 -0.5 -51.501s-1 -39.834 -2 -60.501s-2.5 -40.5 -4.5 -59.5s-4.33301 -35.5 -7 -49.5c-11.333 -57.333 -33 -99.666 -65 -126.999s-67.333 -41 -106 -41c-15.333 0 -28.833 4.16699 -40.5 12.5s-17.5 19.833 -17.5 34.5c0 8 3.33301 17 10 27
s15.334 15 26.001 15c11.333 0 21.333 -2.66699 30 -8s17.667 -13 27 -23s17 -15 23 -15c12.667 0 23.5 7 32.5 21s14.833 36.333 17.5 67c2 29.333 3.33301 63.333 4 102s1 76 1 112z" />
    <glyph glyph-name="k" unicode="k" horiz-adv-x="496" 
d="M95 574c0 10 -0.335938 18.832 -1.00293 26.499s-2.83398 14.167 -6.50098 19.5s-9 10 -16 14s-16.5 7.66699 -28.5 11c-9.33301 2.66699 -14 5 -14 7v9c0 3.33301 4.33301 6.66602 13 9.99902l102 44c4.66699 2 8.66699 3.83301 12 5.5s6.66602 2.5 9.99902 2.5
c4.66699 0 6.66699 -5.66699 6 -17c-1.33301 -12 -2.33301 -29.5 -3 -52.5s-1.16699 -49 -1.5 -78s-0.5 -59.5 -0.5 -91.5v-93v-158c6.66699 0 15 0.833008 25 2.5s17.667 4.5 23 8.5c4.66699 3.33301 12.5 10.333 23.5 21s22.167 22.167 33.5 34.5l31.5 34.5
c9.66699 10.667 15.5 17.667 17.5 21c6 11.333 6 19 0 23c-4 3.33301 -8.5 5.16602 -13.5 5.49902s-9.16699 0.5 -12.5 0.5c-5.33301 0 -8 3 -8 9v19c0 5.33301 2.33301 8 7 8c3.33301 0 13.333 -0.5 30 -1.5s37.667 -1.5 63 -1.5c24.667 0 43.5 0.5 56.5 1.5
s21.167 1.5 24.5 1.5c4 0 6 -3.33301 6 -10v-18c0 -5.33301 -2.66699 -8 -8 -8h-7c-10 0 -21.5 -2.16699 -34.5 -6.5s-24.5 -9.83301 -34.5 -16.5c-3.33301 -2 -10.5 -7.66699 -21.5 -17l-37 -32.5l-40.5 -37.5l-33 -31l21 -21l37.5 -37l45.5 -44.5l45 -43.5l36.5 -34
c10.333 -9.33301 16.833 -14.666 19.5 -15.999c9.33301 -4.66699 19 -8.16699 29 -10.5s17.667 -3.5 23 -3.5s8 -3 8 -9v-18c0 -6 -3 -9 -9 -9c-4 0 -13 0.5 -27 1.5s-32.667 1.5 -56 1.5c-30 0 -54.667 -0.5 -74 -1.5s-31 -1.5 -35 -1.5c-4.66699 0 -7 3.33301 -7 10v16
c0 5.33301 3.33301 8 10 8h7c4 0 7.16699 1.5 9.5 4.5s2.83301 6.83301 1.5 11.5c-0.666992 2 -7.16699 10 -19.5 24l-42 45.5l-44.5 46.5l-27 28c-5.33301 4.66699 -12.166 7.66699 -20.499 9s-15.833 2 -22.5 2v-44v-52c0 -17.333 0.333008 -34.666 1 -51.999
c0.666992 -14 7.33398 -21 20.001 -21h29c6 0 9 -2.66699 9 -8v-17c0 -7.33301 -2.66699 -11 -8 -11c-3.33301 0 -12.666 0.5 -27.999 1.5s-35.666 1.5 -60.999 1.5c-27.333 0 -49.333 -0.5 -66 -1.5s-26.667 -1.5 -30 -1.5s-5 3.33301 -5 10v17c0 6 3.33301 9 10 9h37
c6.66699 0 11.334 2.33301 14.001 7s4 10.334 4 17.001c0.666992 22 1.16699 47.5 1.5 76.5s0.5 65.5 0.5 109.5v331z" />
    <glyph glyph-name="l" unicode="l" horiz-adv-x="256" 
d="M168 298l-0.00488281 -54.499v-70.5c0 -24 0.166992 -46.167 0.5 -66.5s0.5 -34.5 0.5 -42.5c0.666992 -8.66699 2.5 -16 5.5 -22s9.83301 -9 20.5 -9h45c7.33301 0 11 -3 11 -9v-17c0 -6.66699 -2 -10 -6 -10c-3.33301 0 -15.166 0.5 -35.499 1.5
s-46.166 1.5 -77.499 1.5c-32 0 -57.667 -0.5 -77 -1.5s-31.333 -1.5 -36 -1.5s-7 3.33301 -7 10v17c0 3.33301 0.833008 5.66602 2.5 6.99902s5.16699 2 10.5 2h48c5.33301 0 10.166 1.83301 14.499 5.5s6.83301 10.167 7.5 19.5c0 8 0.166992 23.333 0.5 46
s0.5 47.5 0.5 74.5v79.5v61v63v56c0 19.333 -0.166992 37.666 -0.5 54.999s-0.666016 32.833 -0.999023 46.5s-0.833008 23.834 -1.5 30.501c-1.33301 17.333 -6 30.333 -14 39s-20 15.667 -36 21l-20 7c-4 1.33301 -6 3 -6 5v8c0 2.66699 3 5 9 7l57.5 26
c21 9.33301 40.833 20 59.5 32c8 5.33301 15 8 21 8s8.66699 -6 8 -18c0 -9.33301 -0.166992 -22.333 -0.5 -39s-0.666016 -35.167 -0.999023 -55.5s-0.666016 -41.833 -0.999023 -64.5s-0.666016 -44.167 -0.999023 -64.5s-0.5 -38.833 -0.5 -55.5v-39v-89z" />
    <glyph glyph-name="m" unicode="m" horiz-adv-x="806" 
d="M374 256c0 18.667 -0.829102 33.9951 -2.49609 45.9951s-3.83398 22 -6.50098 30s-5.83398 14.333 -9.50098 19s-7.5 9 -11.5 13c-6.66699 6 -16.167 10.5 -28.5 13.5s-24.166 4.5 -35.499 4.5c-13.333 0 -29.166 -4 -47.499 -12s-34.5 -23.333 -48.5 -46
c-6 -10 -9.83301 -20.167 -11.5 -30.5s-2.5 -22.5 -2.5 -36.5v-198c0 -17.333 6.66699 -26 20 -26h36c4.66699 0 7.5 -0.666992 8.5 -2s1.5 -3.66602 1.5 -6.99902v-16c0 -7.33301 -2.66699 -11 -8 -11c-4.66699 0 -14 0.5 -28 1.5s-35 1.5 -63 1.5
c-26.667 0 -47.834 -0.5 -63.501 -1.5s-25.5 -1.5 -29.5 -1.5c-5.33301 0 -8 3 -8 9v18c0 4 0.666992 6.5 2 7.5s4.66602 1.5 9.99902 1.5h34c4.66699 0 8.16699 1.83301 10.5 5.5s3.83301 10.167 4.5 19.5c0.666992 8.66699 1 17.334 1 26.001v26v178
c0 10 -1.66699 19.333 -5 28s-11 16.334 -23 23.001l-21 11c-4.66699 2.66699 -7 5.33398 -7 8.00098v8c0 1.33301 0.666992 2.83301 2 4.5s2.66602 2.83398 3.99902 3.50098l88 45c8 4 14.333 6 19 6c3.33301 0 5.66602 -1.5 6.99902 -4.5s2 -6.16699 2 -9.5l4 -58h3
c15.333 20.667 36.333 38.5 63 53.5s54.667 22.5 84 22.5c26 0 48.667 -7 68 -21s34.333 -32.667 45 -56h5c15.333 19.333 36.166 37 62.499 53s54.5 24 84.5 24c17.333 0 33.666 -2 48.999 -6s29 -12 41 -24c6 -6 11.833 -12.167 17.5 -18.5s10.667 -14 15 -23
s8 -20 11 -33s4.5 -29.167 4.5 -48.5v-223c0 -7.33301 2 -12.5 6 -15.5s9 -4.5 15 -4.5h27c7.33301 0 11 -3 11 -9v-17c0 -6.66699 -2.33301 -10 -7 -10c-3.33301 0 -12 0.5 -26 1.5s-33 1.5 -57 1.5c-25.333 0 -46.333 -0.5 -63 -1.5s-26.667 -1.5 -30 -1.5
c-5.33301 0 -8 3.33301 -8 10v17c0 3.33301 0.833008 5.66602 2.5 6.99902s5.16699 2 10.5 2h25c12.667 0 19.334 6.33301 20.001 19c1.33301 11.333 2 24.833 2 40.5v40.5v148c0 16.667 -2 31.834 -6 45.501s-11.667 25.167 -23 34.5c-18 14 -42.667 21 -74 21
c-15.333 0 -31.666 -5 -48.999 -15s-30 -22.333 -38 -37c-7.33301 -14.667 -11.5 -29.5 -12.5 -44.5s-1.5 -33.833 -1.5 -56.5v-173c0 -6.66699 1.5 -12.167 4.5 -16.5s8.16699 -6.5 15.5 -6.5h34c7.33301 0 11 -3 11 -9v-16c0 -7.33301 -2.33301 -11 -7 -11
c-3.33301 0 -12 0.5 -26 1.5s-35 1.5 -63 1.5c-27.333 0 -49 -0.5 -65 -1.5s-25.667 -1.5 -29 -1.5c-4.66699 0 -7 3.33301 -7 10v16c0 4 0.5 6.66699 1.5 8s3.83301 2 8.5 2h29c14.667 0 22 5.66699 22 17v206z" />
    <glyph glyph-name="n" unicode="n" horiz-adv-x="532" 
d="M448 54c0 -8 1.99805 -13.5029 5.99805 -16.5029s9.33301 -4.5 16 -4.5h32c7.33301 0 11 -3 11 -9v-16c0 -7.33301 -2.66699 -11 -8 -11c-3.33301 0 -12.833 0.5 -28.5 1.5s-37.834 1.5 -66.501 1.5c-25.333 0 -45.833 -0.5 -61.5 -1.5s-25.167 -1.5 -28.5 -1.5
c-5.33301 0 -8 3.66699 -8 11v16c0 6 4.33301 9 13 9h29c5.33301 0 9.83301 1.5 13.5 4.5s5.83398 9.16699 6.50098 18.5c0.666992 13.333 1.16699 27.333 1.5 42s0.5 28.667 0.5 42v132c0 20 -1.16699 37.333 -3.5 52s-10.833 27.334 -25.5 38.001
c-12 9.33301 -24 14.666 -36 15.999s-24.333 2 -37 2c-8 0 -19.667 -2.5 -35 -7.5s-30.666 -15.5 -45.999 -31.5c-10 -11.333 -16.333 -23.166 -19 -35.499s-4 -23.166 -4 -32.499v-207c0 -13.333 1.33301 -22.166 4 -26.499s9.33398 -6.5 20.001 -6.5h25
c6.66699 0 10 -3.33301 10 -10v-17c0 -6 -2.33301 -9 -7 -9c-3.33301 0 -12 0.5 -26 1.5s-34.333 1.5 -61 1.5c-25.333 0 -45.666 -0.5 -60.999 -1.5s-24.666 -1.5 -27.999 -1.5c-4.66699 0 -7 3 -7 9v18c0 6 3.33301 9 10 9h29c6.66699 0 11.667 1.16699 15 3.5
s5 7.83301 5 16.5v234c0 15.333 -3.66699 27.5 -11 36.5s-17.333 16.5 -30 22.5l-8 4c-3.33301 1.33301 -5.5 2.83301 -6.5 4.5s-1.5 3.16699 -1.5 4.5v5c0 4 3 7.33301 9 10l86 48c9.33301 4.66699 15.333 7 18 7c4 0 6.66699 -4 8 -12l7 -61h2
c7.33301 8.66699 16.166 17.5 26.499 26.5s21.666 16.833 33.999 23.5s25 12.167 38 16.5s25.833 6.5 38.5 6.5c15.333 0 30.333 -1.66699 45 -5s28 -9 40 -17c7.33301 -5.33301 14.333 -12 21 -20s12.5 -16.5 17.5 -25.5s9 -18 12 -27s4.5 -16.5 4.5 -22.5v-258z" />
    <glyph glyph-name="o" unicode="o" horiz-adv-x="498" 
d="M254 18c18.667 0 35.8311 5.33398 51.498 16.001s28.834 25.167 39.501 43.5s19 39.666 25 63.999s9 49.833 9 76.5c0 28 -4.5 53.167 -13.5 75.5s-20.167 41.333 -33.5 57s-27.666 27.667 -42.999 36s-29.333 12.5 -42 12.5c-13.333 0 -26.5 -2 -39.5 -6
s-25.5 -12.667 -37.5 -26c-19.333 -20 -33 -41.667 -41 -65s-12 -54 -12 -92c0 -28 2.33301 -52.5 7 -73.5s15 -43.167 31 -66.5c11.333 -16.667 24.833 -29.5 40.5 -38.5s35.167 -13.5 58.5 -13.5zM241.997 -11.999c-24 0 -50.001 5.16895 -78.001 15.502
s-52.667 28.166 -74 53.499c-11.333 14 -20.666 27 -27.999 39s-13 24.167 -17 36.5s-6.66699 25.5 -8 39.5s-2 30 -2 48c0 25.333 6.83301 52.666 20.5 81.999s35.5 55.666 65.5 78.999c26 20 50.667 33 74 39s43.333 9 60 9c28 0 54.5 -5.83301 79.5 -17.5
s45.167 -25.167 60.5 -40.5c22.667 -23.333 39.667 -48.166 51 -74.499s17 -55.833 17 -88.5c0 -27.333 -5.66699 -54.166 -17 -80.499s-27 -49.833 -47 -70.5s-43.5 -37.334 -70.5 -50.001s-55.833 -19 -86.5 -19z" />
    <glyph glyph-name="p" unicode="p" horiz-adv-x="514" 
d="M161 100c0 -11.333 1.16895 -21.332 3.50195 -29.999s8.16602 -16.334 17.499 -23.001c14 -10 29 -17 45 -21s34.333 -6 55 -6c14 0 28 2.83301 42 8.5s26.5 15.167 37.5 28.5s19.833 30.5 26.5 51.5s10 47.167 10 78.5c0 34.667 -3.66699 64.5 -11 89.5
s-17 45.333 -29 61s-25.833 27.167 -41.5 34.5s-31.834 11 -48.501 11c-21.333 0 -41.5 -5.66699 -60.5 -17s-34.5 -27 -46.5 -47v-219zM89.002 283.001c0 12 -2.33301 21.999 -7 29.999s-14.334 16 -29.001 24l-23 13c-3.33301 1.33301 -5.33301 2.83301 -6 4.5
s-1 3.16699 -1 4.5v8c0 2.66699 2.33301 5 7 7l96 48c4 2 8 3.83301 12 5.5s7.66699 2.5 11 2.5c4.66699 0 7 -6.66699 7 -20l4 -48h3c13.333 17.333 32.5 32.833 57.5 46.5s54.5 20.5 88.5 20.5c25.333 0 47 -4.83301 65 -14.5s34.333 -21.167 49 -34.5
c18.667 -19.333 32.334 -40.5 41.001 -63.5s13 -53.833 13 -92.5c0 -32.667 -5.33301 -63.334 -16 -92.001s-25.667 -53.667 -45 -75s-42.166 -38.166 -68.499 -50.499s-55.166 -18.5 -86.499 -18.5c-13.333 0 -29.5 1.16699 -48.5 3.5s-36.167 6.83301 -51.5 13.5v-211
c0 -14 1.83301 -23 5.5 -27s9.16699 -6 16.5 -6h44c4 0 6.5 -0.833008 7.5 -2.5s1.5 -4.16699 1.5 -7.5v-17c0 -6 -3 -9 -9 -9c-2.66699 0 -12.5 0.5 -29.5 1.5s-41.5 1.5 -73.5 1.5c-29.333 0 -52.5 -0.5 -69.5 -1.5s-27.5 -1.5 -31.5 -1.5c-6 0 -9 3 -9 9v18
c0 2.66699 0.666992 4.83398 2 6.50098s4.66602 2.5 9.99902 2.5h39c8.66699 0 14 2.33301 16 7s3.66699 10.667 5 18c1.33301 11.333 2.16602 30.833 2.49902 58.5s0.5 66.167 0.5 115.5v323z" />
    <glyph glyph-name="q" unicode="q" horiz-adv-x="508" 
d="M361 305c-2 17.333 -7.33105 32.001 -15.998 44.001s-18.667 21.5 -30 28.5s-23.166 12 -35.499 15s-23.5 4.5 -33.5 4.5c-22 0 -41.333 -5.83301 -58 -17.5s-30.5 -26 -41.5 -43s-19.167 -35 -24.5 -54s-8 -35.833 -8 -50.5c0 -24 1.66699 -44.5 5 -61.5
s7.66602 -31.667 12.999 -44s11.166 -23 17.499 -32s12.166 -16.833 17.499 -23.5c12 -14 26 -24.5 42 -31.5s31.333 -10.5 46 -10.5c23.333 0 44.5 4.66699 63.5 14s33.167 19.666 42.5 30.999v231zM433.002 -35.999c0 -15.333 0.166016 -31.832 0.499023 -49.499l1 -50.5
c0.333008 -16 0.833008 -30.667 1.5 -44s1.33398 -23.333 2.00098 -30c1.33301 -19.333 8.33301 -29 21 -29h31c6.66699 0 10 -2 10 -6v-22c0 -5.33301 -2.33301 -8 -7 -8s-15.667 0.5 -33 1.5s-38.666 1.5 -63.999 1.5c-32 0 -56.5 -0.5 -73.5 -1.5s-27.5 -1.5 -31.5 -1.5
c-5.33301 0 -8 3 -8 9v20c0 4.66699 3.66699 7 11 7h41c8.66699 0 14.5 1.66699 17.5 5s5.16699 8.66602 6.5 15.999c0.666992 4 1.16699 15 1.5 33s0.5 38.833 0.5 62.5v72v61.5v25h-2c-13.333 -10 -31.333 -20.5 -54 -31.5s-52.334 -16.5 -89.001 -16.5
c-18 0 -37.333 2.83301 -58 8.5s-40 16.334 -58 32.001s-33 37 -45 64s-18 62.167 -18 105.5c0 14 1.83301 29.333 5.5 46s9.16699 33.334 16.5 50.001s16.333 32.5 27 47.5s22.667 28.167 36 39.5c20.667 18 42.167 30.5 64.5 37.5s44.833 10.5 67.5 10.5
c20.667 0 40.334 -1.83301 59.001 -5.5s38.667 -9.16699 60 -16.5l53 22c4 1.33301 7 1 9 -1l9 -7c1.33301 -1.33301 2 -2.83301 2 -4.5s-0.666992 -5.16699 -2 -10.5c-1.33301 -4 -2.33301 -9.16699 -3 -15.5l-2 -19.5
c-0.666992 -6.66699 -1.33398 -12.834 -2.00098 -18.501s-1 -9.83398 -1 -12.501c-2 -22 -3 -71.333 -3 -148v-228z" />
    <glyph glyph-name="r" unicode="r" horiz-adv-x="341" 
d="M97 266c0 25.333 -2.50098 42.4961 -7.50098 51.4961s-14.5 17.167 -28.5 24.5l-19 10c-5.33301 2 -8 4.33301 -8 7v6c0 3.33301 2.66699 6.33301 8 9l99 51c5.33301 2.66699 10 4 14 4c3.33301 0 5.33301 -1.16699 6 -3.5s1 -5.16602 1 -8.49902l5 -69h4
c7.33301 11.333 15.666 22.333 24.999 33s19.333 20 30 28s21.5 14.333 32.5 19s21.833 7 32.5 7c17.333 0 30.166 -4.5 38.499 -13.5s12.5 -19.167 12.5 -30.5c0 -14.667 -4.66699 -26.5 -14 -35.5s-18.666 -13.5 -27.999 -13.5c-5.33301 0 -10.5 0.833008 -15.5 2.5
s-9.5 3.5 -13.5 5.5c-8.66699 5.33301 -19.667 8 -33 8c-8 0 -17.667 -3 -29 -9s-21.333 -17 -30 -33c-3.33301 -5.33301 -5.83301 -11.666 -7.5 -18.999s-2.5 -11.666 -2.5 -12.999v-210c0 -15.333 2 -26 6 -32s11.333 -9 22 -9h47c4.66699 0 7 -3 7 -9v-18
c0 -6 -1.66699 -9 -5 -9s-15 0.5 -35 1.5s-43.667 1.5 -71 1.5c-31.333 0 -56.666 -0.5 -75.999 -1.5s-30.666 -1.5 -33.999 -1.5c-4 0 -6 3.33301 -6 10v17c0 6 3.66699 9 11 9h39c14.667 0 22 6.33301 22 19c0.666992 16.667 1 34.334 1 53.001v67v94z" />
    <glyph glyph-name="s" unicode="s" horiz-adv-x="356" 
d="M166 -12c-24.667 0 -46.1689 3.66602 -64.502 10.999s-30.5 13.333 -36.5 18c-2.66699 1.33301 -4.16699 3.33301 -4.5 6s-0.833008 5.33398 -1.5 8.00098l-17 95c-0.666992 4 1.33301 6.66699 6 8l13 3c4 0.666992 7 -1.33301 9 -6l25 -49
c4.66699 -9.33301 9.5 -17.833 14.5 -25.5s10.667 -14.167 17 -19.5s13.833 -9.5 22.5 -12.5s19.667 -4.5 33 -4.5c8.66699 0 17.667 1.33301 27 4s17.833 6.83398 25.5 12.501s14 12.667 19 21s7.5 18.5 7.5 30.5c0 22.667 -6.83301 41 -20.5 55s-39.167 26.333 -76.5 37
c-14.667 4 -29.167 9.16699 -43.5 15.5s-27 14.5 -38 24.5s-19.833 22 -26.5 36s-10 31 -10 51c0 17.333 3.83301 33.333 11.5 48s17.834 27.5 30.501 38.5s27.5 19.667 44.5 26s34.833 9.5 53.5 9.5c24 0 43 -2.33301 57 -7s25.667 -9.33398 35 -14.001
c7.33301 -3.33301 12 -6.33301 14 -9s3.33301 -5.66699 4 -9l15 -70c0 -4 -2.33301 -7 -7 -9l-12 -4c-3.33301 -0.666992 -6.33301 1 -9 5l-34 46c-6 9.33301 -14.333 18.166 -25 26.499s-25.667 12.5 -45 12.5s-37 -5.66699 -53 -17s-24 -27.666 -24 -48.999
c0 -14.667 2.66699 -26.5 8 -35.5s12.5 -16.5 21.5 -22.5s19.333 -10.833 31 -14.5s23.5 -7.16699 35.5 -10.5c36.667 -10.667 65.667 -25 87 -43s32.333 -46.333 33 -85c0 -20 -4 -38.167 -12 -54.5s-18.833 -30.333 -32.5 -42s-29.667 -20.5 -48 -26.5
s-38.166 -9 -59.499 -9z" />
    <glyph glyph-name="t" unicode="t" horiz-adv-x="319" 
d="M169 125c0 -18.667 1.83398 -33.834 5.50098 -45.501s8.16699 -20.667 13.5 -27s11 -10.5 17 -12.5s11.333 -3 16 -3c11.333 0 23.333 1 36 3s22.667 5.33301 30 10c4.66699 2.66699 8.66699 2 12 -2l5 -9c2.66699 -3.33301 2 -7 -2 -11
c-2.66699 -2.66699 -7.16699 -6.16699 -13.5 -10.5s-14.166 -8.66602 -23.499 -12.999s-20.333 -8.16602 -33 -11.499s-26.334 -5 -41.001 -5c-12 0 -23.833 2.66699 -35.5 8s-22 12.166 -31 20.499s-16.333 17.5 -22 27.5s-8.5 19.667 -8.5 29c0 10 0.166992 22.5 0.5 37.5
l1 44c0.333008 14.333 0.666016 27.333 0.999023 39s0.5 19.167 0.5 22.5v22v21.5c0 9.66699 0.166992 20.667 0.5 33l1 37.5c0.333008 12.667 0.5 24.334 0.5 35.001h-61c-10 0 -15 4 -15 12c0 4 1.5 7.16699 4.5 9.5s7.5 5.16602 13.5 8.49902s14.667 10.166 26 20.499
s23 22 35 35s23 25.833 33 38.5s16.667 23.334 20 32.001c2.66699 6.66699 7.33398 10 14.001 10c4 0 6.66699 -1.5 8 -4.5s2 -6.5 2 -10.5l-5 -99h139c3.33301 0 5.66602 -1 6.99902 -3s1.33301 -4 0 -6l-10 -35c-1.33301 -5.33301 -4.33301 -8 -9 -8h-129
c-2 -46 -3 -92.667 -3 -140v-100z" />
    <glyph glyph-name="u" unicode="u" horiz-adv-x="506" 
d="M417 203l-0.000976562 -69.0029c0 -22 0.666992 -38.333 2 -49c1.33301 -15.333 4.5 -25 9.5 -29s10.5 -6 16.5 -6c3.33301 0 8.16602 0.166992 14.499 0.5s12.5 1.16602 18.5 2.49902c6.66699 2 10.667 0.666992 12 -4l3 -13c0.666992 -4.66699 -1 -7.66699 -5 -9
l-105 -35c-3.33301 -1.33301 -6.5 -2.33301 -9.5 -3s-6.5 -1 -10.5 -1c-2 0 -3.83301 0.666992 -5.5 2s-2.83398 4.66602 -3.50098 9.99902l-8 58h-2c-7.33301 -10 -16.166 -19.167 -26.499 -27.5s-21.5 -15.666 -33.5 -21.999s-24.5 -11.333 -37.5 -15
s-25.833 -5.5 -38.5 -5.5c-14 0 -29 2.33301 -45 7s-32.333 17.667 -49 39c-10 13.333 -17.667 25.833 -23 37.5s-9.16602 24.667 -11.499 39s-3.66602 31 -3.99902 50s-0.5 42.167 -0.5 69.5v116c-0.666992 14 -4.33398 23.5 -11.001 28.5s-15.667 8.16699 -27 9.5
c-8.66699 0.666992 -14.5 1.33398 -17.5 2.00098s-4.5 2.33398 -4.5 5.00098v18c0 5.33301 3.66699 8 11 8h89c3.33301 0 6 0.166992 8 0.5s4 0.833008 6 1.5c2 0 4 0.166992 6 0.5s3.66699 0.5 5 0.5c8.66699 0 12.334 -4 11.001 -12
c-0.666992 -4.66699 -1.5 -17.5 -2.5 -38.5s-1.5 -46.5 -1.5 -76.5v-71c0 -10 -0.333008 -21.333 -1 -34s-0.666992 -25.667 0 -39s2.66699 -26.666 6 -39.999s9 -25.666 17 -36.999c12.667 -18 25.834 -28.833 39.501 -32.5s27.167 -5.5 40.5 -5.5c6.66699 0 14 1.5 22 4.5
s16 6.83301 24 11.5s15.5 10 22.5 16s12.833 12 17.5 18c2 2.66699 4.16699 6.66699 6.5 12s3.5 10.333 3.5 15v238c-1.33301 14 -5.66602 23 -12.999 27s-17.333 6.66699 -30 8c-8.66699 0 -14.5 0.5 -17.5 1.5s-4.5 2.83301 -4.5 5.5v17c0 4 0.666992 6.5 2 7.5
s4.66602 1.5 9.99902 1.5h93c3.33301 0 6.33301 0.166992 9 0.5s5.33398 0.833008 8.00098 1.5c2.66699 0 5 0.166992 7 0.5s3.66699 0.5 5 0.5c7.33301 0 10.333 -3.33301 9 -10c0 -2 -0.333008 -5.5 -1 -10.5s-1.33398 -12.5 -2.00098 -22.5s-1.33398 -23 -2.00098 -39
s-1 -36.333 -1 -61v-74z" />
    <glyph glyph-name="v" unicode="v" horiz-adv-x="433" 
d="M171 247c1.33301 -4.66699 4.66699 -14.333 10 -29l18 -47.5l19 -48c6 -15 10.333 -25.167 13 -30.5h3l20.5 50l30 74.5l28.5 74.5c8.66699 23.333 14.334 40 17.001 50c7.33301 28.667 1.33301 43 -18 43h-20c-2.66699 0 -4 3.33301 -4 10v18c0 5.33301 2 8 6 8
c7.33301 0 17 -0.5 29 -1.5s29 -1.5 51 -1.5c19.333 0 35 0.5 47 1.5s20.333 1.5 25 1.5c4 0 6.5 -0.5 7.5 -1.5s1.5 -3.5 1.5 -7.5v-17c0 -6.66699 -1.66699 -10 -5 -10h-19c-6 0 -11.5 -0.666992 -16.5 -2s-9.83301 -4.33301 -14.5 -9
c-4 -3.33301 -9.66699 -11.833 -17 -25.5s-15 -29 -23 -46l-23 -50l-17 -38.5c-2 -5.33301 -5.5 -13.833 -10.5 -25.5l-17 -39.5l-20.5 -46l-20 -44.5l-15 -34c-4 -9 -6.33301 -14.167 -7 -15.5c-4 -7.33301 -7.66699 -13 -11 -17s-7.66602 -6 -12.999 -6s-9.5 2 -12.5 6
s-5.83301 9 -8.5 15c-0.666992 0.666992 -2.83398 6 -6.50098 16l-14 37l-18 47.5l-18 47.5l-14.5 37.5c-4 10.333 -6.33301 16.166 -7 17.499c-0.666992 2 -3.33398 9.5 -8.00098 22.5l-16 43.5l-16.5 45c-5 14 -8.5 23 -10.5 27
c-6.66699 14.667 -12.834 24.5 -18.501 29.5s-13.167 7.5 -22.5 7.5h-20c-4 0 -6 3.33301 -6 10v18c0 5.33301 3.66699 8 11 8c5.33301 0 13.666 -0.5 24.999 -1.5s31 -1.5 59 -1.5c26.667 0 47 0.5 61 1.5s23.667 1.5 29 1.5c6.66699 0 10 -2.66699 10 -8v-18
c0 -6.66699 -2.33301 -10 -7 -10h-20c-5.33301 0 -9.66602 -1.5 -12.999 -4.5s-5 -7.83301 -5 -14.5c0 -4.66699 1.33301 -12.667 4 -24s5.83398 -23.166 9.50098 -35.499l11 -35.5z" />
    <glyph glyph-name="w" unicode="w" horiz-adv-x="686" 
d="M491 109l4 -0.000976562l81 220c6.66699 17.333 8.33398 30.833 5.00098 40.5s-10 14.5 -20 14.5h-14c-4 0 -6 2.66699 -6 8v21c0 4.66699 2.33301 7 7 7c3.33301 0 11.833 -0.5 25.5 -1.5s30.834 -1.5 51.501 -1.5c21.333 0 37.333 0.5 48 1.5s19 1.5 25 1.5
c4.66699 0 7 -2.33301 7 -7v-21c0 -5.33301 -2.33301 -8 -7 -8h-25c-6 0 -12 -1.66699 -18 -5s-10.667 -7.33301 -14 -12c-2 -3.33301 -6.83301 -14 -14.5 -32l-27.5 -65l-34 -82.5l-33.5 -84l-27.5 -68.5c-8 -19.333 -13 -31.666 -15 -36.999s-4.66699 -8.83301 -8 -10.5
s-7 -2.5 -11 -2.5c-8 0 -14 6.33301 -18 19l-98 285h-5l-123 -288c-4.66699 -10.667 -11.667 -16 -21 -16c-6.66699 0 -12.334 6.66699 -17.001 20l-131 352c-3.33301 9.33301 -8.16602 16.166 -14.499 20.499s-15.5 6.5 -27.5 6.5h-22c-4.66699 0 -7 3 -7 9v19
c0 5.33301 2 8 6 8c7.33301 0 17.166 -0.5 29.499 -1.5s32.833 -1.5 61.5 -1.5c22.667 0 40.5 0.5 53.5 1.5s23.167 1.5 30.5 1.5c5.33301 0 8 -2.66699 8 -8v-20c0 -5.33301 -2.66699 -8 -8 -8h-9c-5.33301 0 -9.5 -2.16699 -12.5 -6.5s-2.83301 -11.166 0.5 -20.499
l79 -265h4l102 244c-1.33301 8 -2.33301 14.333 -3 19s-2.66699 9 -6 13c-4.66699 6.66699 -13.667 10 -27 10h-15c-4.66699 0 -7 2.33301 -7 7v21c0 5.33301 3 8 9 8c4 0 13.667 -0.5 29 -1.5s35.666 -1.5 60.999 -1.5c23.333 0 40.833 0.5 52.5 1.5s19.5 1.5 23.5 1.5
c6 0 9 -2.33301 9 -7v-21c0 -5.33301 -2.33301 -8 -7 -8h-21c-5.33301 0 -9.5 -2.5 -12.5 -7.5s-3.5 -11.167 -1.5 -18.5z" />
    <glyph glyph-name="x" unicode="x" horiz-adv-x="438" 
d="M152 5c0 -5.33301 -2.33301 -8.00293 -7 -8.00293s-13.5 0.5 -26.5 1.5s-30.167 1.5 -51.5 1.5c-25.333 0 -43.166 -0.5 -53.499 -1.5s-18.166 -1.5 -23.499 -1.5c-4 0 -6.5 0.833008 -7.5 2.5s-1.5 3.83398 -1.5 6.50098v18c0 6 2.66699 9 8 9h26c11.333 0 20 1 26 3
s11 5 15 9c4.66699 4 13.167 13.833 25.5 29.5l39.5 50l39.5 50c12.333 15.667 20.5 25.834 24.5 30.501l-31 47l-33.5 48l-30.5 42c-9.33301 12.667 -17 22 -23 28c-4 5.33301 -9.16699 9 -15.5 11s-13.166 3 -20.499 3h-28c-4.66699 0 -7 2.33301 -7 7v20
c0 6 2.66699 9 8 9c4 0 12.833 -0.5 26.5 -1.5s32.167 -1.5 55.5 -1.5s43.5 0.5 60.5 1.5s27.833 1.5 32.5 1.5c4 0 6 -3 6 -9v-19c0 -5.33301 -2 -8 -6 -8h-9c-8 0 -12.167 -3.33301 -12.5 -10s2.5 -14.667 8.5 -24l62 -98l76 100c4.66699 6 6.16699 12.833 4.5 20.5
s-6.83398 11.5 -15.501 11.5h-12c-4 0 -6 2.33301 -6 7v21c0 5.33301 1.66699 8 5 8c6 0 14.667 -0.5 26 -1.5s31.333 -1.5 60 -1.5c20 0 33.667 0.5 41 1.5s12.666 1.5 15.999 1.5c4 0 6.5 -0.833008 7.5 -2.5s1.5 -4.16699 1.5 -7.5v-18c0 -5.33301 -2.66699 -8 -8 -8h-16
c-9.33301 0 -16.833 -1 -22.5 -3s-11.167 -5 -16.5 -9c-4 -3.33301 -11.833 -11.666 -23.5 -24.999l-37 -43l-37 -45l-25.5 -32l60.5 -89c20.333 -29.333 41.5 -57.333 63.5 -84c12 -14 26.667 -21 44 -21h16c3.33301 0 5 -2.66699 5 -8v-20c0 -5.33301 -2.33301 -8 -7 -8
s-12.5 0.5 -23.5 1.5s-28.833 1.5 -53.5 1.5c-28.667 0 -50.834 -0.5 -66.501 -1.5s-26.167 -1.5 -31.5 -1.5s-8 3 -8 9v17c0 6.66699 2.66699 10 8 10h15c5.33301 0 9 3.16699 11 9.5s0.333008 13.833 -5 22.5l-72 115c-3.33301 -5.33301 -9.5 -14 -18.5 -26l-27.5 -38
l-26 -37.5c-8 -11.667 -13 -19.5 -15 -23.5c-2.66699 -5.33301 -3 -10.333 -1 -15s6 -7 12 -7h21c3.33301 0 5 -2.66699 5 -8v-20z" />
    <glyph glyph-name="y" unicode="y" horiz-adv-x="436" 
d="M56 -272c-19.333 0 -33.668 4.66699 -43.001 14s-14 21.666 -14 36.999c0 10.667 4.66699 19.834 14 27.501s20 11.5 32 11.5c9.33301 0 18.166 -1.5 26.499 -4.5s14.833 -5.16699 19.5 -6.5c8.66699 -1.33301 15.667 0.666992 21 6c4 4.66699 9.66699 14.334 17 29.001
l23.5 48.5c8.33301 17.667 16.166 35.167 23.499 52.5s12.666 31 15.999 41c-0.666992 4 -4 15.167 -10 33.5l-21.5 65.5l-27 81.5l-27.5 81l-22 64.5c-6 18 -9.66699 28.667 -11 32c-6 12.667 -12 22.834 -18 30.501s-15.667 11.5 -29 11.5h-26c-5.33301 0 -8 3 -8 9v20
c0 4.66699 2.66699 7 8 7c4.66699 0 13.667 -0.5 27 -1.5s35 -1.5 65 -1.5c25.333 0 45.833 0.5 61.5 1.5s26.167 1.5 31.5 1.5c4 0 6.5 -0.666992 7.5 -2s1.5 -3 1.5 -5v-21c0 -5.33301 -2 -8 -6 -8h-19c-10.667 0 -15 -7.33301 -13 -22
c0.666992 -4 2.83398 -12.667 6.50098 -26l13.5 -47.5c5.33301 -18.333 11.333 -37.833 18 -58.5l18.5 -58.5c5.66699 -18.333 10.834 -34.333 15.501 -48s8 -22.167 10 -25.5h4l10.5 22c5.66699 12 12.167 26.5 19.5 43.5l23 55l22.5 55.5l18.5 46
c5.33301 13.333 8.33301 22 9 26c3.33301 12.667 3.16602 22.167 -0.500977 28.5s-9.16699 9.5 -16.5 9.5h-16c-4.66699 0 -7 2.66699 -7 8v20c0 5.33301 2 8 6 8c6.66699 0 16 -0.5 28 -1.5s30 -1.5 54 -1.5c13.333 0 25.5 0.5 36.5 1.5s19.167 1.5 24.5 1.5
c3.33301 0 5.16602 -0.833008 5.49902 -2.5s0.5 -3.5 0.5 -5.5v-19c0 -6 -1.66699 -9 -5 -9h-16c-5.33301 0 -11.166 -1.33301 -17.499 -4s-12.166 -7.33398 -17.499 -14.001s-13.333 -20.667 -24 -42l-37 -77.5l-45.5 -101.5l-50.5 -115l-64.5 -148
c-18.333 -42.667 -32.166 -72.334 -41.499 -89.001c-3.33301 -6.66699 -7.16602 -13.834 -11.499 -21.501s-9.83301 -14.667 -16.5 -21s-14.5 -11.666 -23.5 -15.999s-20.167 -6.5 -33.5 -6.5z" />
    <glyph glyph-name="z" unicode="z" horiz-adv-x="434" 
d="M51 0c-5.33301 0 -8.8291 1.16797 -10.4961 3.50098s-0.166992 6.83301 4.5 13.5l257 370h-106c-16 0 -29.333 -0.833008 -40 -2.5s-21.334 -6.16699 -32.001 -13.5s-22.5 -18.333 -35.5 -33s-29.5 -34.667 -49.5 -60c-4 -5.33301 -7.66699 -6.66602 -11 -3.99902l-13 6
c-3.33301 2 -4 5.33301 -2 10l66 140c6 -2 13.333 -3.66699 22 -5l26 -4c9.33301 -0.666992 17.833 -1.33398 25.5 -2.00098s16.167 -1.16699 25.5 -1.5s20.166 -0.5 32.499 -0.5h47.5h138c5.33301 0 8.83301 -1.5 10.5 -4.5s1.16699 -6.16699 -1.5 -9.5l-265 -372h142
c6 0 13.667 1.5 23 4.5s19.666 8.5 30.999 16.5s24 18.833 38 32.5s29 31.5 45 53.5c3.33301 5.33301 7.66602 6.33301 12.999 3l10 -7c4 -2.66699 4.66699 -6 2 -10l-77 -136c-9.33301 3.33301 -21.5 5.66602 -36.5 6.99902s-32.833 2.33301 -53.5 3
c-20 1.33301 -38.667 2 -56 2h-32h-138z" />
    <glyph glyph-name="braceleft" unicode="{" horiz-adv-x="354" 
d="M42 297c0 12.667 4.33105 18.998 12.998 18.998c11.333 0 23 2 35 6c10.667 3.33301 18.834 11.5 24.501 24.5s8.5 27.167 8.5 42.5c0 16.667 -1.83301 33 -5.5 49l-11.5 50c-4.66699 17.333 -8.83398 34.5 -12.501 51.5s-5.5 34.5 -5.5 52.5c0 24 5.33301 45.333 16 64
s24.5 34.334 41.5 47.001s35.833 22.5 56.5 29.5s41.334 11.167 62.001 12.5c10.667 1.33301 20 2 28 2h19c11.333 0 17 -4.66699 17 -14c0 -12 -4 -18 -12 -18h-15c-6 0 -11.667 -0.333008 -17 -1c-34 -4.66699 -62.167 -16.667 -84.5 -36s-33.5 -46 -33.5 -80
c0 -18 0.666992 -35.333 2 -52s3.33301 -32.667 6 -48l5.5 -44c1.66699 -14 2.5 -27.667 2.5 -41c0 -18.667 -3 -34.5 -9 -47.5s-12.333 -22.833 -19 -29.5c-9.33301 -11.333 -17.166 -19.333 -23.499 -24s-9.5 -9.66699 -9.5 -15s3.16699 -10.5 9.5 -15.5
s14.833 -14.167 25.5 -27.5c6 -6.66699 11.833 -16.5 17.5 -29.5s8.5 -28.5 8.5 -46.5c0 -11.333 -0.833008 -24.166 -2.5 -38.499l-5.5 -45.5c-2.66699 -16 -4.66699 -32.5 -6 -49.5s-2 -33.167 -2 -48.5c0 -24 4.16699 -43.833 12.5 -59.5s18.5 -28.5 30.5 -38.5
s24.833 -17.667 38.5 -23s26.167 -9.33301 37.5 -12c8.66699 -2 16 -3.16699 22 -3.5s10.667 -0.5 14 -0.5c4.66699 0 7 -6 7 -18c0 -9.33301 -2.33301 -14 -7 -14h-14c-6 0 -12.333 0.333008 -19 1c-17.333 0.666992 -37.5 3.66699 -60.5 9s-44.833 14 -65.5 26
s-38.167 28.167 -52.5 48.5s-21.5 46.166 -21.5 77.499c0 17.333 1.83301 34.5 5.5 51.5s7.83398 33.833 12.501 50.5l11.5 49.5c3.66699 15.667 5.5 30.834 5.5 45.501c0 16 -2.16699 31.833 -6.5 47.5s-12.833 27.5 -25.5 35.5c-6 4 -11.833 6.66699 -17.5 8
s-11.834 2.33301 -18.501 3c-8.66699 1.33301 -13 7 -13 17z" />
    <glyph glyph-name="bar" unicode="|" horiz-adv-x="350" 
d="M155 -260c-4 0 -6 3.33301 -6 10v1003c0 6 2 9 6 9h40c4.66699 0 7 -4 7 -12v-1000c0 -6.66699 -1.66699 -10 -5 -10h-42z" />
    <glyph glyph-name="braceright" unicode="}" horiz-adv-x="354" 
d="M312 297c0 -12.667 -4.66895 -18.9932 -14.002 -18.9932c-10.667 0 -22 -2 -34 -6c-10.667 -3.33301 -18.834 -11.5 -24.501 -24.5s-8.5 -27.167 -8.5 -42.5c0 -14 1.83301 -28.5 5.5 -43.5s7.83398 -31.167 12.501 -48.5c4 -16.667 7.83301 -34.167 11.5 -52.5
s5.5 -37.833 5.5 -58.5c0 -26.667 -5.33301 -50.334 -16 -71.001s-24.5 -38.334 -41.5 -53.001s-36 -26 -57 -34s-41.833 -13 -62.5 -15c-10 -1.33301 -19 -2 -27 -2h-19c-11.333 0 -17 5 -17 15c0 11.333 4 17 12 17h15c6 0 11.667 0.333008 17 1
c34 4 62.167 17.833 84.5 41.5s33.5 55.167 33.5 94.5c0 21.333 -0.833008 40.666 -2.5 57.999s-3.5 33.666 -5.5 48.999l-5.5 42c-1.66699 12.667 -2.5 24.667 -2.5 36c0 18.667 3 34.5 9 47.5s12 22.833 18 29.5c10 11.333 18.167 19.333 24.5 24s9.5 9.66699 9.5 15
s-3.16699 10.5 -9.5 15.5s-15.166 14.167 -26.499 27.5c-5.33301 6.66699 -10.833 16.5 -16.5 29.5s-8.5 28.5 -8.5 46.5c0 8.66699 0.833008 19.334 2.5 32.001l5.5 42c2 15.333 3.83301 31 5.5 47s2.5 31.667 2.5 47c0 20 -4.16699 37.667 -12.5 53
s-18.5 28.166 -30.5 38.499s-24.833 18.5 -38.5 24.5s-26.167 10 -37.5 12c-7.33301 1.33301 -14.166 2.16602 -20.499 2.49902s-10.833 0.5 -13.5 0.5c-6 0 -9 5.33301 -9 16s2.66699 16 8 16h13.5c5.66699 0 11.834 -0.333008 18.501 -1
c17.333 -0.666992 37.5 -3.83398 60.5 -9.50098s44.833 -14.5 65.5 -26.5s38.167 -27.667 52.5 -47s21.5 -43.333 21.5 -72c0 -16.667 -1.83301 -33.334 -5.5 -50.001s-7.5 -32.667 -11.5 -48c-4.66699 -16 -8.83398 -31.167 -12.501 -45.5s-5.5 -27.5 -5.5 -39.5
c0 -16 2.16699 -31.833 6.5 -47.5s12.833 -27.5 25.5 -35.5c6 -4 11.833 -6.66699 17.5 -8s11.5 -2.33301 17.5 -3c9.33301 -1.33301 14 -7 14 -17z" />
    <glyph glyph-name="asciitilde" unicode="~" 
d="M443 309c0 -44 -10 -78.335 -30 -103.002s-43 -37 -69 -37c-15.333 0 -29.5 3.16699 -42.5 9.5s-26.5 14.166 -40.5 23.499l-39 27c-12.667 8 -24 13.667 -34 17s-20.667 5 -32 5c-4.66699 0 -9.66699 -1.33301 -15 -4s-10.333 -7.16699 -15 -13.5
s-8.5 -14.666 -11.5 -24.999s-4.5 -22.833 -4.5 -37.5h-53c0 44 10 78.333 30 103s43 37 69 37c14.667 0 28 -1.66699 40 -5s25.333 -9.66602 40 -18.999l42 -28c9.33301 -5.33301 19.333 -11.666 30 -18.999s21.667 -11 33 -11c12.667 0 24 6 34 18s15 32.667 15 62h53z
" />
    <glyph glyph-name="uni00A0" unicode="&#xa0;" horiz-adv-x="254" 
 />
    <glyph glyph-name="exclamdown" unicode="&#xa1;" horiz-adv-x="254" 
d="M131 -272c-13.333 0 -25.332 4.50293 -35.999 13.5029s-15.334 24.167 -14.001 45.5c0 3.33301 0.833008 13.666 2.5 30.999s3.83398 38.666 6.50098 63.999l8.5 83c3 30 5.83301 59.667 8.5 89s5 56.666 7 81.999s3 46 3 62c0 4.66699 2.33301 7 7 7h18
c4.66699 0 7 -3.33301 7 -10c0 -16 0.833008 -36.167 2.5 -60.5s3.66699 -50.5 6 -78.5l7 -85.5c2.33301 -29 4.66602 -56 6.99902 -81s4.16602 -46.667 5.49902 -65s2 -30.833 2 -37.5c0 -15.333 -4.66699 -29 -14 -41s-20.666 -18 -33.999 -18zM131.001 314.003
c-5.33301 0 -11.667 0.833008 -19 2.5s-14.333 4.83398 -21 9.50098s-12.167 10.667 -16.5 18s-6.5 17 -6.5 29c0 4 1 9.16699 3 15.5s5.33301 12.5 10 18.5s11 11.167 19 15.5s18.333 6.5 31 6.5c14 0 26.833 -5.33301 38.5 -16s17.5 -25.334 17.5 -44.001
c0 -16.667 -5.5 -30 -16.5 -40s-24.167 -15 -39.5 -15z" />
    <glyph glyph-name="cent" unicode="&#xa2;" 
d="M231 -15c-4.66699 0 -6.67188 5.33398 -6.00488 16.001l5 108c-21.333 2.66699 -44 9 -68 19s-46 27.667 -66 53c-18 23.333 -30.333 45.5 -37 66.5s-10 42.833 -10 65.5c0 28 4.16699 55 12.5 81s21 49.5 38 70.5s37.833 38.5 62.5 52.5s53.667 23 87 27l5 99
c0 6.66699 2.33301 10 7 10h26c4 0 6 -4.66699 6 -14l-4 -92c28 -0.666992 51 -4.33398 69 -11.001s32.333 -14.167 43 -22.5s18.167 -17 22.5 -26s6.5 -15.833 6.5 -20.5c-0.666992 -10.667 -4.33398 -18.667 -11.001 -24s-15.334 -8 -26.001 -8
c-21.333 0 -39 13.333 -53 40c-7.33301 12.667 -15.166 21.5 -23.499 26.5s-18.166 8.16699 -29.499 9.5l-16 -354c6.66699 -1.33301 12.334 -2 17.001 -2h13c14 0 26.5 0.833008 37.5 2.5s21 4.33398 30 8.00098s17.333 8.5 25 14.5s15.834 13 24.501 21
c2.66699 2.66699 5.33398 2.66699 8.00098 0l10 -10c4 -4 4 -8.33301 0 -13c-7.33301 -8 -16.666 -16.333 -27.999 -25s-24.166 -16.334 -38.499 -23.001s-30 -12.167 -47 -16.5s-34.833 -6.5 -53.5 -6.5l-5 -108c-0.666992 -9.33301 -3 -14 -7 -14h-26zM247.995 511.001
c-17.333 -1.33301 -33.5 -5.83301 -48.5 -13.5s-28.167 -18.167 -39.5 -31.5s-20.333 -29 -27 -47s-10 -37.667 -10 -59s1.33301 -40 4 -56s6.33398 -30 11.001 -42s10.167 -22.5 16.5 -31.5s13.166 -17.833 20.499 -26.5c14.667 -18 34 -30.667 58 -38z" />
    <glyph glyph-name="sterling" unicode="&#xa3;" 
d="M116 262c4 8 9.6709 22.3379 17.0039 43.0049s15 43.667 23 69l24.5 76c8.33301 25.333 15.5 46 21.5 62c8.66699 23.333 20.167 45.333 34.5 66s30.5 38.834 48.5 54.501s37.5 28 58.5 37s42.5 13.5 64.5 13.5c18.667 0 34.834 -2.5 48.501 -7.5s25.167 -11 34.5 -18
s16.333 -14.333 21 -22s7 -14.5 7 -20.5c0 -11.333 -4 -20.333 -12 -27s-16.667 -10.334 -26 -11.001c-13.333 0 -25 2.83301 -35 8.5s-18.333 15.167 -25 28.5c-1.33301 2 -2.5 5 -3.5 9s-2.83301 8 -5.5 12s-6.33398 7.5 -11.001 10.5s-11.334 4.5 -20.001 4.5
c-11.333 0 -22 -2.66699 -32 -8s-19.5 -14.166 -28.5 -26.499s-17.5 -28.666 -25.5 -48.999s-15.667 -45.5 -23 -75.5c-4.66699 -18 -11.834 -39.333 -21.501 -64s-19.667 -48.5 -30 -71.5l-28.5 -61c-8.66699 -17.667 -14.334 -28.5 -17.001 -32.5h140c6 0 9 -2 9 -6v-23
c0 -4.66699 -3.33301 -7 -10 -7h-156c-4 -7.33301 -9 -15.5 -15 -24.5s-12.333 -18 -19 -27l-19 -25.5c-6 -8 -11.333 -14.667 -16 -20l1 -2c24.667 2.66699 46.167 3.33398 64.5 2.00098s35.166 -4.83301 50.499 -10.5s29.833 -13.834 43.5 -24.501
s28.167 -24.334 43.5 -41.001c8.66699 -9.33301 18.834 -17.166 30.501 -23.499s25.167 -9.5 40.5 -9.5c11.333 0 21 3.66699 29 11s13.333 13.666 16 18.999c3.33301 8 4.16602 13.167 2.49902 15.5s-7.5 3.5 -17.5 3.5c-17.333 0 -30.5 3.5 -39.5 10.5
s-13.5 14.167 -13.5 21.5c0 3.33301 0.666992 7.33301 2 12s3.83301 9 7.5 13s8.66699 7.5 15 10.5s14.166 4.5 23.499 4.5c18 0 34.167 -5.83301 48.5 -17.5s21.5 -27.167 21.5 -46.5c0 -7.33301 -2.16699 -16.333 -6.5 -27s-11.5 -20.834 -21.5 -30.501
s-23.5 -17.834 -40.5 -24.501s-37.833 -10 -62.5 -10c-54.667 0 -101 22.667 -139 68c-17.333 21.333 -35 35.166 -53 41.499s-38 8.83301 -60 7.5c-4 -6.66699 -9 -15.834 -15 -27.501s-13 -23 -21 -34s-17 -20.5 -27 -28.5s-20.333 -12 -31 -12
c-6.66699 0 -11.334 1.66699 -14.001 5s-4 7 -4 11c0 8.66699 2.83301 18.167 8.5 28.5s12.834 20.5 21.501 30.5s18.167 19.167 28.5 27.5s19.833 14.833 28.5 19.5c3.33301 3.33301 7.5 9.16602 12.5 17.499s10 17.833 15 28.5l14.5 31.5
c4.66699 10.333 8.33398 19.166 11.001 26.499h-73c-6 0 -9 2.33301 -9 7v23c0 4 2.33301 6 7 6h88z" />
    <glyph glyph-name="currency" unicode="&#xa4;" 
d="M252 207c32.667 0 60.167 11.666 82.5 34.999s33.5 55 33.5 95c0 38 -10.667 69 -32 93s-49.333 36 -84 36c-20.667 0 -38.334 -3.83301 -53.001 -11.5s-26.667 -17.667 -36 -30s-16.166 -26.166 -20.499 -41.499s-6.5 -30.666 -6.5 -45.999
c0 -16.667 2.33301 -32.834 7 -48.501s11.667 -29.5 21 -41.5s21.333 -21.667 36 -29s32 -11 52 -11zM479 546.999c3.33301 -4 3.33398 -7.66113 0.000976562 -10.9941l-94 -89c11.333 -11.333 20.833 -26.833 28.5 -46.5s11.834 -38.834 12.501 -57.501
c-2 -44.667 -15.333 -82.334 -40 -113.001l93 -87c4 -4 4.66699 -7.66699 2 -11l-21 -24c-3.33301 -3.33301 -6.33301 -3.33301 -9 0l-99 90c-14 -10 -30.5 -17.833 -49.5 -23.5s-37.5 -8.5 -55.5 -8.5c-19.333 0 -38.333 3.16699 -57 9.5s-34.334 15.166 -47.001 26.499
l-91 -91c-4.66699 -4.66699 -8.33398 -5.33398 -11.001 -2.00098l-22 23c-2.66699 4 -2 8 2 12l92 90c-10.667 13.333 -19 28.166 -25 44.499s-9 33.833 -9 52.5c0 21.333 3.66699 42.166 11 62.499s17.333 36.833 30 49.5l-98 93c-3.33301 2.66699 -3 6 1 10l19 20
c3.33301 4 6.66602 4.33301 9.99902 1l100 -94c13.333 12 29.666 20.667 48.999 26s39 8 59 8c16.667 0 33.834 -2.83301 51.501 -8.5s31.834 -13.167 42.501 -22.5l97 90c2.66699 4 5.66699 4.33301 9 1z" />
    <glyph glyph-name="yen" unicode="&#xa5;" 
d="M208 184l-150.001 0.000976562c-6.66699 0 -10 2 -10 6v23c0 4.66699 3.33301 7 10 7h151v71h-152c-6 0 -9 2.66699 -9 8v21c0 4.66699 3.33301 7 10 7h150l-20 36l-29.5 52.5l-34.5 59.5l-34 58l-29 48c-8.66699 14 -15 23.667 -19 29
c-3.33301 4.66699 -8.66602 9.5 -15.999 14.5s-14.666 7.5 -21.999 7.5h-21c-4.66699 0 -7 2.33301 -7 7v25c0 4.66699 2.33301 7 7 7s15.667 -0.5 33 -1.5s38.666 -1.5 63.999 -1.5c36 0 64.333 0.5 85 1.5s33.667 1.5 39 1.5c4.66699 0 7 -1.66699 7 -5v-25
c0 -6 -2.33301 -9 -7 -9h-21c-22 0 -35.5 -4.16699 -40.5 -12.5s-4.83301 -18.166 0.5 -29.499c2 -4.66699 6 -13.167 12 -25.5l21 -42l26 -49.5l26 -49.5c8 -15.667 15.333 -29.334 22 -41.001l14 -24.5c2.66699 5.33301 7.66699 14.166 15 26.499l24.5 42.5l28.5 50.5
l28 50l22 40.5c6 11.333 9.66699 19 11 23c5.33301 14.667 4.83301 25.167 -1.5 31.5s-15.833 9.5 -28.5 9.5h-26c-4.66699 0 -7 3 -7 9v23c0 4.66699 2.66699 7 8 7c3.33301 0 13.833 -0.5 31.5 -1.5s41.167 -1.5 70.5 -1.5c21.333 0 38 0.5 50 1.5s20.333 1.5 25 1.5
c5.33301 0 8 -2 8 -6v-24c0 -6 -2.66699 -9 -8 -9h-21c-8.66699 0 -15.667 -1.83301 -21 -5.5s-10 -8.16699 -14 -13.5c-2.66699 -3.33301 -7.5 -10.833 -14.5 -22.5l-25.5 -42l-32.5 -54.5l-35.5 -60l-35 -58l-30 -49h139c7.33301 0 11 -2.33301 11 -7v-23
c0 -4 -4 -6 -12 -6h-143v-71h144c7.33301 0 11 -2.33301 11 -7v-23c0 -4 -3.33301 -6 -10 -6h-144v-119c0 -13.333 2.33301 -21.5 7 -24.5s12.667 -4.5 24 -4.5h39c5.33301 0 8 -2.33301 8 -7v-23c0 -6 -2.66699 -9 -8 -9c-6 0 -15.833 0.5 -29.5 1.5s-38.5 1.5 -74.5 1.5
c-36.667 0 -62.5 -0.5 -77.5 -1.5s-25.167 -1.5 -30.5 -1.5c-4 0 -6.33301 0.666992 -7 2s-1 3.33301 -1 6v24c0 4.66699 2.33301 7 7 7h47c14.667 0 22 8.33301 22 25v123z" />
    <glyph glyph-name="brokenbar" unicode="&#xa6;" horiz-adv-x="350" 
d="M155 325c-4 0 -6 3.33301 -6 10v331c0 6 2 9 6 9h40c4.66699 0 7 -4 7 -12v-328c0 -6.66699 -3 -10 -9 -10h-38zM196 175c4 0 6 -3.33301 6 -10v-330c0 -6.66699 -3 -10 -9 -10h-38c-4 0 -6 3.33301 -6 10v330c0 6.66699 3 10 9 10h38z" />
    <glyph glyph-name="section" unicode="&#xa7;" horiz-adv-x="540" 
d="M334 343l-65.5 43.999l-47 31.5c-13 9 -23.5 16.833 -31.5 23.5s-14.667 13.667 -20 21c-11.333 -7.33301 -20.166 -17.666 -26.499 -30.999s-9.5 -30.333 -9.5 -51c0 -19.333 4.5 -37.666 13.5 -54.999s24.167 -35 45.5 -53c42.667 -35.333 78.5 -62.333 107.5 -81
s47.5 -33.334 55.5 -44.001c12 5.33301 23 15.833 33 31.5s15 30.834 15 45.501c0 6 -0.5 13.333 -1.5 22s-3.66699 18.167 -8 28.5s-11.333 21.166 -21 32.499s-22.834 23 -39.501 35zM321 722.999c29.333 0 53.6621 -6.17188 72.9951 -18.5049s29 -27.166 29 -44.499
c0 -12 -4.16699 -21 -12.5 -27s-16.5 -9 -24.5 -9c-14.667 0 -25.5 3.33301 -32.5 10s-15.167 16.667 -24.5 30c-12 18 -27.333 27 -46 27c-12 0 -23.5 -2.16699 -34.5 -6.5s-20.833 -10.666 -29.5 -18.999s-15.5 -18 -20.5 -29s-7.5 -22.833 -7.5 -35.5
c0 -22 3.83301 -40.667 11.5 -56s18.334 -29.166 32.001 -41.499s30.167 -24.5 49.5 -36.5l64 -40c77.333 -49.333 115.333 -104.666 114 -165.999c0 -20.667 -2.66699 -38.667 -8 -54s-12.166 -28.5 -20.499 -39.5s-17.5 -20 -27.5 -27s-19.667 -12.833 -29 -17.5
c20.667 -24.667 31 -57.334 31 -98.001c0 -22.667 -4 -43.667 -12 -63s-19.667 -36.666 -35 -51.999c-17.333 -17.333 -37.5 -29.166 -60.5 -35.499s-44.833 -9.5 -65.5 -9.5c-16 0 -31.333 1.33301 -46 4s-27.5 6.5 -38.5 11.5s-19.667 11 -26 18s-9.5 14.833 -9.5 23.5
c0 11.333 3.66699 20.833 11 28.5s16.333 11.5 27 11.5c11.333 0 21 -2.66699 29 -8s15.667 -13 23 -23c6 -8.66699 13.5 -15.834 22.5 -21.501s18.833 -8.5 29.5 -8.5c8 0 17.167 1 27.5 3s20 6.33301 29 13s16.5 16 22.5 28s9 28 9 48
c0 25.333 -5.16699 46.833 -15.5 64.5s-24 33.834 -41 48.501s-36.167 28.834 -57.5 42.501s-42.666 29.167 -63.999 46.5c-31.333 24.667 -53.833 50.334 -67.5 77.001s-20.5 54 -20.5 82c0 19.333 2.33301 36.333 7 51s10.834 27.5 18.501 38.5s15.834 20.167 24.501 27.5
s17 13.666 25 18.999c-5.33301 10.667 -9.5 23.667 -12.5 39s-4.5 31.666 -4.5 48.999s3.66699 34 11 50s16.333 30 27 42c20 22 41.5 36.333 64.5 43s50.167 10 81.5 10z" />
    <glyph glyph-name="dieresis" unicode="&#xa8;" horiz-adv-x="325" 
d="M251 637c11.333 0 21.5 -4.33203 30.5 -12.999s13.5 -20.667 13.5 -36c0 -13.333 -4.5 -24 -13.5 -32s-19.167 -12 -30.5 -12c-4.66699 0 -10 0.666992 -16 2s-11.667 3.83301 -17 7.5s-9.83301 8.66699 -13.5 15s-5.5 14.166 -5.5 23.499
c0 3.33301 0.833008 7.5 2.5 12.5s4.5 10 8.5 15s9.33301 9.16699 16 12.5s15 5 25 5zM81 637.001c11.333 0 21.666 -4.33203 30.999 -12.999s14 -20.667 14 -36c0 -13.333 -4.5 -24 -13.5 -32s-19.5 -12 -31.5 -12c-4.66699 0 -9.83398 0.666992 -15.501 2
s-11.167 3.83301 -16.5 7.5s-9.83301 8.66699 -13.5 15s-5.5 14.166 -5.5 23.499c0 3.33301 0.833008 7.5 2.5 12.5s4.33398 10 8.00098 15s8.83398 9.16699 15.501 12.5s15 5 25 5z" />
    <glyph glyph-name="copyright" unicode="&#xa9;" horiz-adv-x="825" 
d="M413 21c56.667 0 104.998 10.667 144.998 32s72.333 48.166 97 80.499s42.667 68.166 54 107.499s17 77 17 113c0 58.667 -10.333 109 -31 151s-46.667 76.5 -78 103.5s-65.333 46.833 -102 59.5s-70.667 19 -102 19c-43.333 0 -84 -8.16699 -122 -24.5
s-71.167 -39.166 -99.5 -68.499s-50.666 -64.5 -66.999 -105.5s-24.5 -85.833 -24.5 -134.5c0 -60.667 10.167 -112.167 30.5 -154.5s46 -76.666 77 -102.999s64.833 -45.5 101.5 -57.5s71.334 -18 104.001 -18zM412.998 723c52.667 0 101.5 -9.00098 146.5 -27.001
s83.667 -43.167 116 -75.5s57.666 -71.166 75.999 -116.499s27.5 -95.333 27.5 -150c0 -52 -8.66699 -100.333 -26 -145s-42 -83.667 -74 -117s-70.5 -59.5 -115.5 -78.5s-95.167 -28.5 -150.5 -28.5c-56 0 -106.5 9.5 -151.5 28.5s-83.5 45.167 -115.5 78.5
s-56.5 72.5 -73.5 117.5s-25.5 93.167 -25.5 144.5c0 52.667 9.5 101.5 28.5 146.5s45 84 78 117s71.833 58.833 116.5 77.5s92.334 28 143.001 28zM419.998 133.999c-32 0 -61.832 4.83789 -89.499 14.5049s-50.834 23.167 -69.501 40.5c-22 22 -38.667 46.5 -50 73.5
s-17 58.5 -17 94.5c0 28 5.16699 55.667 15.5 83s26.5 52.666 48.5 75.999c16 16 37.667 30 65 42s58 18 92 18c14 0 27.333 -1.33301 40 -4s24.167 -5.83398 34.5 -9.50098s19 -7.33398 26 -11.001s12.167 -6.16699 15.5 -7.5c6.66699 -4.66699 11 -4.66699 13 0l4 16
c0.666992 2.66699 5.66699 4 15 4c4.66699 0 7.5 -0.5 8.5 -1.5s1.5 -3.83301 1.5 -8.5c0 -2.66699 0.666992 -9.33398 2 -20.001s3 -22.334 5 -35.001s3.83301 -24.834 5.5 -36.501s2.83398 -19.5 3.50098 -23.5c0 -4 -1 -6 -3 -6l-12 -3
c-3.33301 -1.33301 -6 -0.666016 -8 2.00098c-4.66699 9.33301 -10.334 20 -17.001 32s-16.334 24 -29.001 36c-13.333 13.333 -29.333 24.333 -48 33s-38.334 13 -59.001 13c-25.333 0 -47.333 -5.5 -66 -16.5s-34 -25 -46 -42s-20.833 -35.667 -26.5 -56
s-8.5 -40.166 -8.5 -59.499c0 -9.33301 0.833008 -19.833 2.5 -31.5s4.5 -24 8.5 -37s9.5 -26 16.5 -39s16.167 -25.167 27.5 -36.5c18.667 -19.333 37.667 -33 57 -41s39 -12 59 -12c18 0 34.833 2.33301 50.5 7s30 10.667 43 18s24.5 15.666 34.5 24.999s18.667 19 26 29
c1.33301 1.33301 4 0.333008 8 -3l8 -6c2.66699 -2.66699 2.33398 -6 -0.999023 -10c-19.333 -26.667 -44.166 -50.167 -74.499 -70.5s-67.5 -30.5 -111.5 -30.5z" />
    <glyph glyph-name="ordfeminine" unicode="&#xaa;" horiz-adv-x="330" 
d="M195 419l-27.501 -10.501c-11 -4.33301 -21.5 -9.83301 -31.5 -16.5s-18.667 -14.5 -26 -23.5s-11 -19.5 -11 -31.5c0 -11.333 3 -20.166 9 -26.499s12.333 -9.5 19 -9.5c11.333 0 24.333 3.5 39 10.5s24.334 14.167 29.001 21.5v86zM258.999 394.999
l0.000976562 -24.001c0 -30 2.16699 -49.667 6.5 -59s9.16602 -14 14.499 -14c6 0 10.833 1.83301 14.5 5.5s6.5 7.5 8.5 11.5c0.666992 3.33301 3 4.66602 7 3.99902l13 -5c2.66699 -0.666992 3.33398 -2.66699 2.00098 -6s-3.5 -7.5 -6.5 -12.5
s-7.16699 -9.83301 -12.5 -14.5s-12 -8.66699 -20 -12s-17.333 -5 -28 -5c-15.333 0 -28 4 -38 12s-17.333 17.667 -22 29h-1c-10.667 -8.66699 -22.334 -17 -35.001 -25s-25.667 -12.667 -39 -14c-6 -1.33301 -12.333 -2 -19 -2h-18c-6.66699 0 -13.5 1.83301 -20.5 5.5
s-13.167 8.5 -18.5 14.5s-9.83301 12.667 -13.5 20s-5.5 14.666 -5.5 21.999c0 14.667 5.33301 29.334 16 44.001s31.667 28.667 63 42c15.333 6.66699 30.166 12.667 44.499 18l43.5 16v37c0 6 -1 12.5 -3 19.5s-5.66699 14.167 -11 21.5
c-3.33301 3.33301 -8.66602 6.33301 -15.999 9s-15.666 4 -24.999 4c-6.66699 0 -14.334 -1.5 -23.001 -4.5s-15.667 -6.83301 -21 -11.5c-6 -5.33301 -8.16699 -10.666 -6.5 -15.999s2.5 -10.666 2.5 -15.999c0 -6.66699 -3 -13 -9 -19s-17 -9 -33 -9
c-9.33301 0 -16.333 2.83301 -21 8.5s-7 12.167 -7 19.5s3.33301 16 10 26s20.667 20.667 42 32c32.667 14.667 63 22 91 22c24.667 0 41.667 -2.33301 51 -7s16.333 -9 21 -13c10.667 -8.66699 17 -20.5 19 -35.5s3 -28.167 3 -39.5v-79z" />
    <glyph glyph-name="guillemotleft" unicode="&#xab;" horiz-adv-x="412" 
d="M345 374c2.66699 2.66699 4.66797 4 6.00098 4c0.666992 0 2 -1 4 -3l14 -14c2 -2 3 -3.66699 3 -5c0 -2 -1.33301 -4.33301 -4 -7l-91 -137l92 -138c2 -3.33301 3 -5.66602 3 -6.99902s-1 -3 -3 -5l-15 -14c-0.666992 -0.666992 -1.33398 -1 -2.00098 -1
s-1 -0.333008 -1 -1c-0.666992 0 -3 1.33301 -7 4l-156 156c-2.66699 2.66699 -4 4.66699 -4 6s1.66699 3.66602 5 6.99902zM186.001 374c2.66699 2.66699 4.66602 4 5.99902 4s3 -1 5 -3l14 -14c2 -2 3 -3.66699 3 -5c0 -2 -1.33301 -4.33301 -4 -7l-91 -137l92 -138
c2 -3.33301 3 -5.66602 3 -6.99902s-1 -3 -3 -5l-15 -14c-1.33301 -1.33301 -2.66602 -2 -3.99902 -2c-0.666992 0 -3 1.33301 -7 4l-155 156c-2.66699 2.66699 -4 4.66699 -4 6s1.66699 3.66602 5 6.99902z" />
    <glyph glyph-name="logicalnot" unicode="&#xac;" 
d="M56 347h388v-225h-60v169h-328v56z" />
    <glyph glyph-name="uni00AD" unicode="&#xad;" horiz-adv-x="404" 
d="M52 287c0 4.66699 3 7 9 7h280c7.33301 0 11 -3.66699 11 -11v-38c0 -4.66699 -4 -7 -12 -7h-279c-6 -0.666992 -9 1 -9 5v44z" />
    <glyph glyph-name="registered" unicode="&#xae;" horiz-adv-x="566" 
d="M283 296c35.333 0 65.3311 6.16602 89.998 18.499s44.834 28 60.501 47s27 40.167 34 63.5s10.5 46 10.5 68c0 36.667 -6.5 67.5 -19.5 92.5s-29.167 45.333 -48.5 61s-40.333 27 -63 34s-44 10.5 -64 10.5c-27.333 0 -52.833 -4.66699 -76.5 -14
s-44.167 -22.5 -61.5 -39.5s-31.166 -37.667 -41.499 -62s-15.5 -51.833 -15.5 -82.5c0 -37.333 6.33301 -68.666 19 -93.999s28.667 -45.5 48 -60.5s40.5 -25.833 63.5 -32.5s44.5 -10 64.5 -10zM282.998 722.999c35.333 0 67.668 -5.66895 97.001 -17.002
s54.5 -27 75.5 -47s37.167 -44.167 48.5 -72.5s17 -59.5 17 -93.5c0 -32 -5.5 -62 -16.5 -90s-26.667 -52.167 -47 -72.5s-45.333 -36.5 -75 -48.5s-62.834 -18 -99.501 -18c-37.333 0 -70.833 5.83301 -100.5 17.5s-54.667 27.834 -75 48.501s-35.833 45 -46.5 73
s-16 58 -16 90c0 32.667 6 63 18 91s28.5 52.333 49.5 73s46.167 36.834 75.5 48.501s61 17.5 95 17.5zM244 498.997c2.66699 -0.666992 11.3301 -1 25.9971 -1c14 0 25.333 2.5 34 7.5s15.334 10.833 20.001 17.5s7.83398 13.334 9.50098 20.001s2.5 11.667 2.5 15
c0 7.33301 -2 14.833 -6 22.5s-8.66699 13.167 -14 16.5c-8.66699 5.33301 -16.667 9.16602 -24 11.499s-16.666 3.5 -27.999 3.5h-9.5c-3.66699 0 -7.16699 -0.333008 -10.5 -1v-112zM197.996 534.997l0.000976562 59.999c-0.666992 6 -2.5 10.5 -5.5 13.5
s-8.5 4.5 -16.5 4.5h-6c-2 0 -3 1 -3 3v12c0 2 1 3 3 3c0.666992 0 3.33398 -0.166992 8.00098 -0.5s9.66699 -0.5 15 -0.5s10.5 -0.166992 15.5 -0.5s8.5 -0.5 10.5 -0.5s6.33301 0.166992 13 0.5s13.667 0.5 21 0.5s14.333 0.166992 21 0.5s11 0.5 13 0.5
c18.667 0 34.5 -2.16699 47.5 -6.5s23.167 -9.83301 30.5 -16.5c7.33301 -6 12.5 -12.833 15.5 -20.5s4.5 -15.167 4.5 -22.5c0 -12 -2.16699 -22.5 -6.5 -31.5s-10 -16.5 -17 -22.5s-14.5 -10.667 -22.5 -14s-15.667 -5.66602 -23 -6.99902v-2
c4 -1.33301 7.33301 -3.16602 10 -5.49902s4.66699 -4.5 6 -6.5c1.33301 -1.33301 3.5 -4.16602 6.5 -8.49902l10 -14c3.66699 -5 7 -9.83301 10 -14.5s5.16699 -8.33398 6.5 -11.001c3.33301 -5.33301 8.66602 -12.666 15.999 -21.999s13.333 -15.333 18 -18
c4.66699 -3.33301 9.5 -5.33301 14.5 -6s10.167 -1 15.5 -1c2.66699 0 4 -1 4 -3v-11c0 -2 -1.33301 -3 -4 -3c-1.33301 0 -5.33301 0.166992 -12 0.5s-13 0.5 -19 0.5s-12.5 -0.166992 -19.5 -0.5s-14.167 -0.5 -21.5 -0.5c-2 1.33301 -5 4.5 -9 9.5
s-6.66699 8.83301 -8 11.5c-0.666992 0.666992 -2.33398 3 -5.00098 7l-8.5 13l-9 13.5c-3 4.33301 -4.83301 7.5 -5.5 9.5c-2 4 -6 10.5 -12 19.5s-10.667 15.167 -14 18.5c-2.66699 3.33301 -6.33398 6.66602 -11.001 9.99902s-9.66699 5 -15 5h-16v-19v-39
c0 -14.667 0.333008 -23.667 1 -27c0.666992 -4 1.66699 -7.5 3 -10.5s4.66602 -4.5 9.99902 -4.5h16c2 0 3 -1 3 -3v-11c0 -2 -1 -3 -3 -3h-8.5c-4.33301 0 -9.16602 0.166992 -14.499 0.5s-10.833 0.5 -16.5 0.5h-14.5c-8 0 -17.833 -0.166992 -29.5 -0.5
s-18.5 -0.5 -20.5 -0.5c-3.33301 0 -5 1.33301 -5 4v9c0 2.66699 1 4 3 4h9c6.66699 0 11.834 1.16699 15.501 3.5s5.5 8.16602 5.5 17.499v133z" />
    <glyph glyph-name="macron" unicode="&#xaf;" horiz-adv-x="297" 
d="M30 551c0 4.66699 2.66699 7 8 7h220c6 0 9 -2.33301 9 -7v-32c0 -4.66699 -3.66699 -7 -11 -7h-218c-5.33301 0 -8 2.33301 -8 7v32z" />
    <glyph glyph-name="degree" unicode="&#xb0;" horiz-adv-x="300" 
d="M150 691c-16.667 0 -32 -6.33301 -46 -19s-21 -29.334 -21 -50.001c0 -21.333 7 -38.666 21 -51.999s29.333 -20 46 -20c17.333 0 33 6.66699 47 20s21 30.666 21 51.999c0 20.667 -7 37.334 -21 50.001s-29.667 19 -47 19zM150 723c36 0 63.667 -9.33301 83 -28
s29 -43 29 -73c0 -28 -10.167 -52.167 -30.5 -72.5s-47.5 -30.5 -81.5 -30.5c-36 0 -63.5 9.66699 -82.5 29s-28.5 44 -28.5 74c0 28 10 51.833 30 71.5s47 29.5 81 29.5z" />
    <glyph glyph-name="plusminus" unicode="&#xb1;" 
d="M444 65v-56h-388v56h388zM221 147v142h-165v56h165v137h60v-137h163v-56h-163v-142h-60z" />
    <glyph glyph-name="twosuperior" unicode="&#xb2;" horiz-adv-x="335" 
d="M203 402l-141.002 0.000976562c-10.667 0 -22 -0.333008 -34 -1s-19.667 -1 -23 -1s-5.33301 2.16699 -6 6.5s0.333008 7.5 3 9.5l59 50c25.333 22 51.333 47.667 78 77c22.667 24.667 40.5 48.667 53.5 72s19.5 47.333 19.5 72c0 13.333 -2.16699 24.666 -6.5 33.999
s-9.83301 17 -16.5 23s-13.667 10.333 -21 13s-14.333 4 -21 4c-12 0 -22.833 -1.66699 -32.5 -5s-18 -7.5 -25 -12.5s-13.167 -10.167 -18.5 -15.5s-9.66602 -10.333 -12.999 -15c-3.33301 -5.33301 -7 -7 -11 -5l-13 7c-2 0.666992 -2.66699 3 -2 7
c2.66699 6.66699 7.16699 15 13.5 25s15 19.833 26 29.5s24.5 18 40.5 25s35 10.5 57 10.5c14 0 27.667 -2.16699 41 -6.5s25.333 -10.666 36 -18.999s19.167 -19.166 25.5 -32.499s9.5 -29 9.5 -47c0 -24 -6 -48 -18 -72s-32.333 -51 -61 -81
c-23.333 -24.667 -44.833 -45.667 -64.5 -63s-33.5 -29 -41.5 -35v-2h111c20 0 35 3.66699 45 11s18.667 16.666 26 27.999c2.66699 3.33301 5.16699 5 7.5 5s5.5 -0.666992 9.5 -2c8 -2.66699 10.667 -7 8 -13l-41 -89c-1.33301 -4 -5.66602 -6 -12.999 -6
c-3.33301 0 -6 0.166992 -8 0.5s-4 2.16602 -6 5.49902s-5.16699 5.5 -9.5 6.5s-11.833 1.5 -22.5 1.5z" />
    <glyph glyph-name="threesuperior" unicode="&#xb3;" horiz-adv-x="335" 
d="M23 440c0 11.333 2.49805 20.335 7.49805 27.002s11.167 10 18.5 10c6 0 10.667 -1.33301 14 -4s6 -5.83398 8 -9.50098s3.66699 -7.33398 5 -11.001s2.66602 -6.5 3.99902 -8.5c2 -2.66699 6.66699 -6.66699 14 -12s20.666 -8 39.999 -8c13.333 0 25.5 2.5 36.5 7.5
s20.333 11.167 28 18.5s13.5 15.666 17.5 24.999s6 18.666 6 27.999c0 25.333 -8 47.166 -24 65.499s-36 29.5 -60 33.5c-9.33301 2 -14 6.66699 -14 14c1.33301 6.66699 5 10.334 11 11.001c8.66699 0.666992 17.334 3 26.001 7s16.5 9.5 23.5 16.5s12.833 15.333 17.5 25
s7 20.167 7 31.5c0 14.667 -5.5 28.334 -16.5 41.001s-25.167 19 -42.5 19c-19.333 0 -35.666 -5.16699 -48.999 -15.5s-23.333 -24.5 -30 -42.5c-2 -6 -5.33301 -8.33301 -10 -7l-13 3c-4 0.666992 -5.33301 4 -4 10c2 10 5.66699 20.833 11 32.5s12.833 22.167 22.5 31.5
s22 17.166 37 23.499s33.5 9.5 55.5 9.5c18.667 0 34.334 -2.66699 47.001 -8s22.834 -12 30.501 -20s13.167 -16.667 16.5 -26s5 -17.666 5 -24.999c0 -13.333 -2.16699 -25.333 -6.5 -36s-9.83301 -20.334 -16.5 -29.001s-14.334 -16.334 -23.001 -23.001
s-17 -12.334 -25 -17.001c10.667 -2 21.5 -6.16699 32.5 -12.5s21 -14 30 -23s16.333 -19.167 22 -30.5s8.5 -23.666 8.5 -36.999c0 -20 -4.16699 -38.167 -12.5 -54.5s-19.833 -30.166 -34.5 -41.499s-32 -20.166 -52 -26.499s-41.333 -9.5 -64 -9.5
c-21.333 0 -38.666 1.66699 -51.999 5s-24 7.33301 -32 12s-13.5 9.83398 -16.5 15.501s-4.5 10.5 -4.5 14.5z" />
    <glyph glyph-name="acute" unicode="&#xb4;" horiz-adv-x="330" 
d="M130 496c-2 2 -2.00098 3.99902 -0.000976562 5.99902l96 119c5.33301 6.66699 11.333 12.5 18 17.5s14.667 7.5 24 7.5c6.66699 0 12.834 -2.16699 18.501 -6.5s9.5 -9.66602 11.5 -15.999s1.83301 -13.5 -0.5 -21.5s-8.5 -15.333 -18.5 -22l-131 -94c-2 -2 -4 -2 -6 0z
" />
    <glyph glyph-name="mu" unicode="&#xb5;" horiz-adv-x="520" 
d="M351 329c0 13.333 -0.666992 26.5068 -2 39.5068s-2 23.167 -2 30.5c0 5.33301 0.5 9.66602 1.5 12.999s4.16699 5 9.5 5h50c12.667 0 19 -4.33301 19 -13c0 -4.66699 -0.666992 -18.334 -2 -41.001s-2 -51.334 -2 -86.001v-74v-69c0 -22 0.333008 -38.333 1 -49
c0.666992 -17.333 3.66699 -29.333 9 -36s11.333 -10 18 -10c5.33301 0 11.5 1.16699 18.5 3.5s12.167 5.16602 15.5 8.49902c2.66699 2.66699 4.83398 3.5 6.50098 2.5s3.16699 -2.5 4.5 -4.5l6 -11c2 -4 0.333008 -8 -5 -12c-12 -12 -24.5 -21.333 -37.5 -28
s-28.167 -10 -45.5 -10c-10.667 0 -19.5 2.5 -26.5 7.5s-13 11.167 -18 18.5s-8.83301 15.333 -11.5 24s-4.66699 17 -6 25h-2c-7.33301 -10.667 -16 -20.667 -26 -30s-21 -17.333 -33 -24s-24.333 -11.834 -37 -15.501s-25 -5.5 -37 -5.5
c-10.667 0 -22.834 2.83301 -36.501 8.5s-25.834 16.5 -36.501 32.5h-2c0 -36 0.5 -70 1.5 -102s2.33301 -60.333 4 -85l4 -61c1 -16 1.5 -26 1.5 -30c0 -5.33301 -3.33301 -8.66602 -10 -9.99902l-53 -13c-6 0 -9 2 -9 6l-1 546c0 28 -0.5 53.167 -1.5 75.5
s-1.5 36.5 -1.5 42.5c0 12.667 4.33301 19 13 19h51c9.33301 0 14 -6.33301 14 -19c0 -4.66699 -0.333008 -16.167 -1 -34.5s-1 -43.5 -1 -75.5v-62c0 -26 0.333008 -51.833 1 -77.5s4.66699 -46.834 12 -63.501c6 -12.667 15.167 -24.334 27.5 -35.001s29.5 -16 51.5 -16
c18.667 0 36.834 5.66699 54.501 17s31.5 23.666 41.5 36.999c2 2.66699 4.16699 6.66699 6.5 12s3.5 10 3.5 14v215z" />
    <glyph glyph-name="mu" unicode="&#x3bc;" horiz-adv-x="520" 
d="M351 329c0 13.333 -0.666992 26.5068 -2 39.5068s-2 23.167 -2 30.5c0 5.33301 0.5 9.66602 1.5 12.999s4.16699 5 9.5 5h50c12.667 0 19 -4.33301 19 -13c0 -4.66699 -0.666992 -18.334 -2 -41.001s-2 -51.334 -2 -86.001v-74v-69c0 -22 0.333008 -38.333 1 -49
c0.666992 -17.333 3.66699 -29.333 9 -36s11.333 -10 18 -10c5.33301 0 11.5 1.16699 18.5 3.5s12.167 5.16602 15.5 8.49902c2.66699 2.66699 4.83398 3.5 6.50098 2.5s3.16699 -2.5 4.5 -4.5l6 -11c2 -4 0.333008 -8 -5 -12c-12 -12 -24.5 -21.333 -37.5 -28
s-28.167 -10 -45.5 -10c-10.667 0 -19.5 2.5 -26.5 7.5s-13 11.167 -18 18.5s-8.83301 15.333 -11.5 24s-4.66699 17 -6 25h-2c-7.33301 -10.667 -16 -20.667 -26 -30s-21 -17.333 -33 -24s-24.333 -11.834 -37 -15.501s-25 -5.5 -37 -5.5
c-10.667 0 -22.834 2.83301 -36.501 8.5s-25.834 16.5 -36.501 32.5h-2c0 -36 0.5 -70 1.5 -102s2.33301 -60.333 4 -85l4 -61c1 -16 1.5 -26 1.5 -30c0 -5.33301 -3.33301 -8.66602 -10 -9.99902l-53 -13c-6 0 -9 2 -9 6l-1 546c0 28 -0.5 53.167 -1.5 75.5
s-1.5 36.5 -1.5 42.5c0 12.667 4.33301 19 13 19h51c9.33301 0 14 -6.33301 14 -19c0 -4.66699 -0.333008 -16.167 -1 -34.5s-1 -43.5 -1 -75.5v-62c0 -26 0.333008 -51.833 1 -77.5s4.66699 -46.834 12 -63.501c6 -12.667 15.167 -24.334 27.5 -35.001s29.5 -16 51.5 -16
c18.667 0 36.834 5.66699 54.501 17s31.5 23.666 41.5 36.999c2 2.66699 4.16699 6.66699 6.5 12s3.5 10 3.5 14v215z" />
    <glyph glyph-name="paragraph" unicode="&#xb6;" horiz-adv-x="575" 
d="M358 -121c0 -9.33301 -2.33398 -14.002 -7.00098 -14.002h-25c-4.66699 0 -7 5.33301 -7 16v355c-23.333 1.33301 -50.5 4.83301 -81.5 10.5s-60.333 16.5 -88 32.5s-51.167 39 -70.5 69s-29 70 -29 120c0 48.667 9 88.667 27 120s43.667 55.833 77 73.5
s73.833 29.834 121.5 36.501s101.167 10 160.5 10h95c7.33301 0 11 -2.33301 11 -7v-17c0 -3.33301 -0.666992 -5.5 -2 -6.5s-4.66602 -1.5 -9.99902 -1.5h-59v-803c0 -5.33301 -2.33301 -8 -7 -8h-25c-3.33301 0 -5.33301 0.833008 -6 2.5s-1 5.83398 -1 12.501v794
c-3.33301 0 -8.33301 -0.166992 -15 -0.5s-13.667 -0.833008 -21 -1.5s-14.5 -1.16699 -21.5 -1.5s-12.5 -0.833008 -16.5 -1.5v-790z" />
    <glyph glyph-name="periodcentered" unicode="&#xb7;" horiz-adv-x="254" 
d="M130 297c-5.33301 0 -11.6699 0.833008 -19.0029 2.5s-14.166 4.83398 -20.499 9.50098s-11.666 10.667 -15.999 18s-6.5 17 -6.5 29c0 4 0.833008 9.16699 2.5 15.5s4.83398 12.5 9.50098 18.5s11 11.167 19 15.5s18.333 6.5 31 6.5c14.667 0 27.667 -5.33301 39 -16
s17 -25.334 17 -44.001c0 -16.667 -5.5 -30 -16.5 -40s-24.167 -15 -39.5 -15z" />
    <glyph glyph-name="cedilla" unicode="&#xb8;" horiz-adv-x="326" 
d="M199 0l-58 -68c15.333 -4.66699 29.5 -13.334 42.5 -26.001s19.5 -26.667 19.5 -42c0 -16 -5 -30.167 -15 -42.5s-22.5 -22.666 -37.5 -30.999s-31.5 -14.833 -49.5 -19.5s-35 -7 -51 -7c-8 0 -13.333 2 -16 6s-4 8.66699 -4 14c0 6 3.16699 9.83301 9.5 11.5
s13.833 2.5 22.5 2.5c8 0 16.667 1.16699 26 3.5s18 5.83301 26 10.5s14.833 10.5 20.5 17.5s8.5 15.167 8.5 24.5c0 26 -22 43 -66 51l78 95h44z" />
    <glyph glyph-name="onesuperior" unicode="&#xb9;" horiz-adv-x="335" 
d="M209 627v-157.999c0 -7.33301 0.5 -13.333 1.5 -18s3 -8.33398 6 -11.001s7.5 -4.33398 13.5 -5.00098s14.333 -1 25 -1h23c4 0 6 -2 6 -6v-24c0 -3.33301 -2.33301 -5 -7 -5c-1.33301 0 -6 0.166992 -14 0.5s-17.5 0.666016 -28.5 0.999023l-33.5 1
c-11.333 0.333008 -20.666 0.5 -27.999 0.5c-6.66699 0 -15.667 -0.166992 -27 -0.5l-34 -1c-11.333 -0.333008 -21.333 -0.666016 -30 -0.999023s-13.334 -0.5 -14.001 -0.5c-4.66699 0 -7 1.66699 -7 5v26c0 2.66699 3 4 9 4h29c10.667 0 19 0.333008 25 1
s10.5 2.33398 13.5 5.00098s5 6 6 10s1.5 9.66699 1.5 17v17.5c0 9.66699 0.166992 20.834 0.5 33.501s0.5 25.5 0.5 38.5v32.5v30v15.5c0 7 -0.166992 14.667 -0.5 23l-1 24.5c-0.333008 8 -0.5 15 -0.5 21c-0.666992 7.33301 -2 13.166 -4 17.499s-5.66699 6.5 -11 6.5
c-6.66699 0 -15.334 -2 -26.001 -6l-39 -16c-5.33301 -2.66699 -8.66602 -3 -9.99902 -1l-11 20c-1.33301 2 0 4 4 6l138 75c8.66699 4.66699 14.667 7 18 7c5.33301 0 8 -3 8 -9c0 -2 -0.166992 -8.83301 -0.5 -20.5s-0.5 -25.667 -0.5 -42s-0.166992 -34.5 -0.5 -54.5
s-0.5 -39.667 -0.5 -59z" />
    <glyph glyph-name="ordmasculine" unicode="&#xba;" horiz-adv-x="370" 
d="M183 294c31.333 0 54.335 10.8311 69.002 32.498s22 47.5 22 77.5c0 22.667 -2.5 42.5 -7.5 59.5s-11.667 31 -20 42s-17.833 19.333 -28.5 25s-21.334 8.5 -32.001 8.5c-6 0 -14.167 -1 -24.5 -3s-20.5 -7 -30.5 -15c-12.667 -10 -22.167 -22.833 -28.5 -38.5
s-9.5 -30.167 -9.5 -43.5c0 -27.333 2.16699 -49.166 6.5 -65.499s10.166 -30.166 17.499 -41.499c10 -14.667 21.5 -24.667 34.5 -30s23.5 -8 31.5 -8zM178.002 263.998c-20.667 0 -41.833 4.16699 -63.5 12.5s-40.5 20.5 -56.5 36.5c-11.333 12 -20.333 26.833 -27 44.5
s-10 37.834 -10 60.501c0 16 3.66699 34.667 11 56s20.666 40 39.999 56c21.333 17.333 41.833 28.166 61.5 32.499s37.834 6.5 54.501 6.5c26 0 48.833 -3.83301 68.5 -11.5s35.167 -16.5 46.5 -26.5c15.333 -14 26.833 -30.5 34.5 -49.5s11.5 -39.167 11.5 -60.5
c0 -23.333 -4.33301 -44.666 -13 -63.999s-20.5 -35.833 -35.5 -49.5s-33 -24.334 -54 -32.001s-43.833 -11.5 -68.5 -11.5z" />
    <glyph glyph-name="guillemotright" unicode="&#xbb;" horiz-adv-x="412" 
d="M226 50c-2.66699 -2.66699 -4.66504 -4.00098 -5.99805 -4.00098s-3 1 -5 3l-14 13c-2 2 -3 3.66699 -3 5c0 2 1.33301 4.33301 4 7l91 138l-92 137c-2 2.66699 -3 5 -3 7c0 1.33301 1 3 3 5l15 15c1.33301 1.33301 2.66602 2 3.99902 2s3.66602 -1.66699 6.99902 -5
l155 -155c2.66699 -2.66699 4 -4.66699 4 -6s-1.66699 -3.66602 -5 -6.99902zM67.002 49.999c-2.66699 -2.66699 -4.66504 -4.00098 -5.99805 -4.00098s-3 1 -5 3l-13 13c-2 2 -3 3.66699 -3 5c0 2 1.33301 4.33301 4 7l91 138l-92 137c-2 2.66699 -3 5 -3 7
c0 1.33301 1 3 3 5l14 15c1.33301 1.33301 2.66602 2 3.99902 2s3.66602 -1.66699 6.99902 -5l156 -155c2.66699 -2.66699 4 -4.66699 4 -6s-1.66699 -3.66602 -5 -6.99902z" />
    <glyph glyph-name="onequarter" unicode="&#xbc;" horiz-adv-x="742" 
d="M190 340c0 -7.33301 0.5 -13.332 1.5 -17.999s3 -8.33398 6 -11.001s7.5 -4.33398 13.5 -5.00098s14.333 -1 25 -1h23c4 0 6 -2 6 -6v-24c0 -3.33301 -2.33301 -5 -7 -5c-1.33301 0 -6 0.166992 -14 0.5s-17.5 0.666016 -28.5 0.999023l-33.5 1
c-11.333 0.333008 -20.666 0.5 -27.999 0.5c-6.66699 0 -15.667 -0.166992 -27 -0.5l-34 -1c-11.333 -0.333008 -21.333 -0.666016 -30 -0.999023s-13.334 -0.5 -14.001 -0.5c-4.66699 0 -7 1.66699 -7 5v26c0 2.66699 3 4 9 4h29c10.667 0 19 0.333008 25 1
s10.5 2.33398 13.5 5.00098s5 6 6 10s1.5 9.66699 1.5 17v17.5c0 9.66699 0.166992 20.834 0.5 33.501s0.5 25.5 0.5 38.5v32.5v30v15.5c0 7 -0.166992 14.667 -0.5 23l-1 24.5c-0.333008 8 -0.5 15 -0.5 21c-0.666992 7.33301 -2 13.166 -4 17.499s-5.66699 6.5 -11 6.5
c-6.66699 0 -15.334 -2 -26.001 -6l-39 -16c-5.33301 -2.66699 -8.66602 -3 -9.99902 -1l-11 20c-1.33301 2 0 4 4 6l138 75c8.66699 4.66699 14.667 7 18 7c5.33301 0 8 -3 8 -9c0 -2 -0.166992 -8.83301 -0.5 -20.5s-0.5 -25.667 -0.5 -42s-0.166992 -34.5 -0.5 -54.5
s-0.5 -39.667 -0.5 -59v-158zM197 -1.99902c-4.66699 -8.66699 -8.00195 -12.9971 -10.002 -12.9971c-1.33301 0 -3.16602 0.5 -5.49902 1.5s-6.5 3.16699 -12.5 6.5s-9.83301 5.66602 -11.5 6.99902s-2.5 3 -2.5 5c0 2.66699 1.66699 6.66699 5 12l406 658
c2.66699 5.33301 5.33398 8 8.00098 8c1.33301 0 3 -0.333008 5 -1s5.66699 -2.33398 11 -5.00098c8 -4.66699 12.833 -7.83398 14.5 -9.50098s2.5 -3.16699 2.5 -4.5c0 -0.666992 -1.33301 -3.66699 -4 -9zM578.998 294.004c0 5.33301 -1.49902 8.83301 -4.49902 10.5
s-6.16699 0.166992 -9.5 -4.5l-113 -132c-4.66699 -5.33301 -6.33398 -9.33301 -5.00098 -12s4.33301 -4 9 -4h123v142zM586.999 0.00390625c-3.33301 0 -5.5 0.5 -6.5 1.5s-1.5 3.83301 -1.5 8.5v95h-193c-6 0 -9 3.66699 -9 11c0 5.33301 2.33301 10.333 7 15l223 267
l7.5 7.5c3 3 6.5 4.5 10.5 4.5c10 0 15 -7.66699 15 -23v-235h65c4.66699 0 7 -3 7 -9v-30c0 -5.33301 -3.33301 -8 -10 -8h-62v-94c0 -7.33301 -3.33301 -11 -10 -11h-43z" />
    <glyph glyph-name="onehalf" unicode="&#xbd;" horiz-adv-x="742" 
d="M183 340c0 -7.33301 0.5 -13.332 1.5 -17.999s3 -8.33398 6 -11.001s7.5 -4.33398 13.5 -5.00098s14.333 -1 25 -1h23c4 0 6 -2 6 -6v-24c0 -3.33301 -2.33301 -5 -7 -5c-1.33301 0 -6 0.166992 -14 0.5s-17.5 0.666016 -28.5 0.999023l-33.5 1
c-11.333 0.333008 -20.666 0.5 -27.999 0.5c-6.66699 0 -15.667 -0.166992 -27 -0.5l-34 -1c-11.333 -0.333008 -21.333 -0.666016 -30 -0.999023s-13.334 -0.5 -14.001 -0.5c-4.66699 0 -7 1.66699 -7 5v26c0 2.66699 3 4 9 4h29c10.667 0 19 0.333008 25 1
s10.5 2.33398 13.5 5.00098s5 6 6 10s1.5 9.66699 1.5 17v17.5c0 9.66699 0.166992 20.834 0.5 33.501s0.5 25.5 0.5 38.5v32.5v30v15.5c0 7 -0.166992 14.667 -0.5 23l-1 24.5c-0.333008 8 -0.5 15 -0.5 21c-0.666992 7.33301 -2 13.166 -4 17.499s-5.66699 6.5 -11 6.5
c-6.66699 0 -15.334 -2 -26.001 -6l-39 -16c-5.33301 -2.66699 -8.66602 -3 -9.99902 -1l-11 20c-1.33301 2 0 4 4 6l138 75c8.66699 4.66699 14.667 7 18 7c5.33301 0 8 -3 8 -9c0 -2 -0.166992 -8.83301 -0.5 -20.5s-0.5 -25.667 -0.5 -42s-0.166992 -34.5 -0.5 -54.5
s-0.5 -39.667 -0.5 -59v-158zM461 0.000976562c-10.667 0 -22.002 -0.332031 -34.002 -0.999023s-19.667 -1 -23 -1c-4.66699 0 -7 2 -7 6c0 3.33301 1.33301 6 4 8l59 52c25.333 22 51.333 47.667 78 77c22.667 24.667 40.5 48.667 53.5 72s19.5 47.333 19.5 72
c0 13.333 -2.16699 24.666 -6.5 33.999s-9.83301 17 -16.5 23s-13.667 10.333 -21 13s-14.333 4 -21 4c-12 0 -22.833 -1.66699 -32.5 -5s-18 -7.5 -25 -12.5s-13.167 -10.167 -18.5 -15.5s-9.66602 -10.333 -12.999 -15c-3.33301 -5.33301 -7 -7 -11 -5l-13 7
c-2 0.666992 -2.66699 3 -2 7c2.66699 6.66699 7.16699 15 13.5 25s15 19.833 26 29.5s24.5 18 40.5 25s35 10.5 57 10.5c14 0 27.667 -2.16699 41 -6.5s25.333 -10.666 36 -18.999s19.167 -19.166 25.5 -32.499s9.5 -29 9.5 -47c0 -24 -6 -48 -18 -72s-32.333 -51 -61 -81
c-23.333 -24.667 -44.833 -45.667 -64.5 -63s-33.5 -29 -41.5 -35v-2h111c20 0 35 3.66699 45 11s18.667 16.666 26 27.999c2.66699 3.33301 5.16699 5 7.5 5s5.5 -0.666992 9.5 -2c8 -2.66699 10.667 -7 8 -13l-41 -89c-1.33301 -4 -5.66602 -6 -12.999 -6
c-3.33301 0 -6 0.166992 -8 0.5s-4 2.16602 -6 5.49902s-5.16699 5.5 -9.5 6.5s-11.833 1.5 -22.5 1.5h-141zM174.998 -1.99805c-4.66699 -8.66699 -8.00195 -12.9971 -10.002 -12.9971c-1.33301 0 -3.16602 0.5 -5.49902 1.5s-6.5 3.16699 -12.5 6.5
s-9.83301 5.66602 -11.5 6.99902s-2.5 3 -2.5 5c0 2.66699 1.66699 6.66699 5 12l406 658c2.66699 5.33301 5.33398 8 8.00098 8c1.33301 0 3 -0.333008 5 -1s5.66699 -2.33398 11 -5.00098c8 -4.66699 12.833 -7.83398 14.5 -9.50098s2.5 -3.16699 2.5 -4.5
c0 -0.666992 -1.33301 -3.66699 -4 -9z" />
    <glyph glyph-name="threequarters" unicode="&#xbe;" horiz-adv-x="742" 
d="M569 294c0 5.33301 -1.49902 8.83301 -4.49902 10.5s-6.16699 0.166992 -9.5 -4.5l-113 -132c-4.66699 -5.33301 -6.33398 -9.33301 -5.00098 -12s4.33301 -4 9 -4h123v142zM577.001 0c-3.33301 0 -5.5 0.5 -6.5 1.5s-1.5 3.83301 -1.5 8.5v95h-193
c-6 0 -9 3.66699 -9 11c0 5.33301 2.33301 10.333 7 15l223 267l7.5 7.5c3 3 6.5 4.5 10.5 4.5c10 0 15 -7.66699 15 -23v-235h65c4.66699 0 7 -3 7 -9v-30c0 -5.33301 -3.33301 -8 -10 -8h-62v-94c0 -7.33301 -3.33301 -11 -10 -11h-43zM26.001 311
c0 11.333 2.49805 20.335 7.49805 27.002s11.167 10 18.5 10c6 0 10.667 -1.33301 14 -4s6 -5.83398 8 -9.50098s3.66699 -7.33398 5 -11.001s2.66602 -6.5 3.99902 -8.5c2 -2.66699 6.66699 -6.66699 14 -12s20.666 -8 39.999 -8c13.333 0 25.5 2.5 36.5 7.5
s20.333 11.167 28 18.5s13.5 15.666 17.5 24.999s6 18.666 6 27.999c0 25.333 -8 47.166 -24 65.499s-36 29.5 -60 33.5c-9.33301 2 -14 6.66699 -14 14c1.33301 6.66699 5 10.334 11 11.001c8.66699 0.666992 17.334 3 26.001 7s16.5 9.5 23.5 16.5s12.833 15.333 17.5 25
s7 20.167 7 31.5c0 14.667 -5.5 28.334 -16.5 41.001s-25.167 19 -42.5 19c-19.333 0 -35.666 -5.16699 -48.999 -15.5s-23.333 -24.5 -30 -42.5c-2 -6 -5.33301 -8.33301 -10 -7l-13 3c-4 0.666992 -5.33301 4 -4 10c2 10 5.66699 20.833 11 32.5s12.833 22.167 22.5 31.5
s22 17.166 37 23.499s33.5 9.5 55.5 9.5c18.667 0 34.334 -2.66699 47.001 -8s22.834 -12 30.501 -20s13.167 -16.667 16.5 -26s5 -17.666 5 -24.999c0 -13.333 -2.16699 -25.333 -6.5 -36s-9.83301 -20.334 -16.5 -29.001s-14.334 -16.334 -23.001 -23.001
s-17 -12.334 -25 -17.001c10.667 -2 21.5 -6.16699 32.5 -12.5s21 -14 30 -23s16.333 -19.167 22 -30.5s8.5 -23.666 8.5 -36.999c0 -20 -4.16699 -38.167 -12.5 -54.5s-19.833 -30.166 -34.5 -41.499s-32 -20.166 -52 -26.499s-41.333 -9.5 -64 -9.5
c-21.333 0 -38.666 1.66699 -51.999 5s-24 7.33301 -32 12s-13.5 9.83398 -16.5 15.501s-4.5 10.5 -4.5 14.5zM194.999 -1.99805c-4.66699 -8.66699 -8.00195 -12.9971 -10.002 -12.9971c-1.33301 0 -3.16602 0.5 -5.49902 1.5s-6.5 3.16699 -12.5 6.5
s-9.83301 5.66602 -11.5 6.99902s-2.5 3 -2.5 5c0 2.66699 1.66699 6.66699 5 12l406 658c2.66699 5.33301 5.33398 8 8.00098 8c1.33301 0 3 -0.333008 5 -1s5.66699 -2.33398 11 -5.00098c8 -4.66699 12.833 -7.83398 14.5 -9.50098s2.5 -3.16699 2.5 -4.5
c0 -0.666992 -1.33301 -3.66699 -4 -9z" />
    <glyph glyph-name="questiondown" unicode="&#xbf;" horiz-adv-x="370" 
d="M233 322c-14.667 0 -27.334 4.83398 -38.001 14.501s-16 22.167 -16 37.5s5 28.333 15 39s23.667 16 41 16c14 0 26.667 -5.33301 38 -16s17 -23.334 17 -38.001c0 -13.333 -5.16699 -25.5 -15.5 -36.5s-24.166 -16.5 -41.499 -16.5zM264 -271.999
c-20.667 0 -44.5039 7.83301 -71.5039 23.5s-52.667 36 -77 61s-44.833 53 -61.5 84s-25 61.833 -25 92.5c0 31.333 6.83301 55.333 20.5 72s30.167 28.667 49.5 36s39.5 11.666 60.5 12.999s38.5 2.33301 52.5 3c5.33301 0 8 2.66699 8 8v107c0 4.66699 2.33301 7 7 7h19
c4.66699 0 7 -2.33301 7 -7v-189c0 -5.33301 -0.833008 -8.5 -2.5 -9.5s-4.5 -0.833008 -8.5 0.5c-11.333 2 -22.833 3 -34.5 3h-31.5c-8 0 -18 -1.16699 -30 -3.5s-23.5 -6.5 -34.5 -12.5s-20.5 -14 -28.5 -24s-12 -23 -12 -39c0 -20 5.5 -37.167 16.5 -51.5
s23.5 -27.166 37.5 -38.499c12.667 -10 23.834 -18.167 33.501 -24.5s18.834 -11.333 27.501 -15s17.334 -6 26.001 -7s18.334 -1.5 29.001 -1.5c20.667 0 37.667 -4.83301 51 -14.5s20 -21.167 20 -34.5c0 -2 -0.5 -5 -1.5 -9s-3.33301 -8.33301 -7 -13
s-8.66699 -8.66699 -15 -12s-14.5 -5 -24.5 -5z" />
    <glyph glyph-name="Agrave" unicode="&#xc0;" horiz-adv-x="743" 
d="M397 769c-2 -2 -4.66797 -2 -8.00098 0l-167 82c-10 5.33301 -17.333 11.5 -22 18.5s-7 14.167 -7 21.5c0 9.33301 3.33301 17.5 10 24.5s15.334 10.5 26.001 10.5c7.33301 0 14 -1.66699 20 -5s13 -8.33301 21 -15l139 -114c2.66699 -2.66699 2.66699 -5.66699 0 -9z
M452.999 314c-1.33301 4.66699 -4.50098 15 -9.50098 31l-18 55.5l-21.5 66.5l-21 65.5l-17 51.5c-4.66699 14 -7.33398 22.333 -8.00098 25c-1.33301 3.33301 -2.66602 6.5 -3.99902 9.5s-2.66602 4.5 -3.99902 4.5c-2 0 -4 -1.5 -6 -4.5s-3.66699 -6.5 -5 -10.5
c-0.666992 -2 -3.66699 -10.167 -9 -24.5l-19.5 -52l-24.5 -66l-24.5 -67l-19.5 -55l-10 -29.5h221zM218.998 278c-2.66699 -6 -7.50195 -18.834 -14.502 -38.501l-22.5 -62c-8 -21.667 -15.167 -42 -21.5 -61s-10.166 -31.167 -11.499 -36.5
c-0.666992 -3.33301 -1.33398 -7.16602 -2.00098 -11.499s-1 -7.83301 -1 -10.5c0 -14.667 11.333 -22 34 -22h47c6.66699 0 10 -2.33301 10 -7v-23c0 -6 -2.66699 -9 -8 -9c-7.33301 0 -20.666 0.5 -39.999 1.5s-44 1.5 -74 1.5c-18 -0 -33.167 -0.166992 -45.5 -0.5
s-22.666 -0.666016 -30.999 -0.999023s-15 -0.666016 -20 -0.999023s-9.16699 -0.5 -12.5 -0.5c-4.66699 0 -7 2.66699 -7 8v24c0 4.66699 2.66699 7 8 7h35c15.333 0 27 3.66699 35 11s15.667 19 23 35c2 4 7.33301 17.167 16 39.5l30 77.5l34.5 89.5l28.5 76.5
c1.33301 3.33301 4.33301 11.5 9 24.5l17 46.5l21.5 57.5l22 58l18 48c5 13.667 8.16699 22.834 9.5 27.501c1.33301 5.33301 2.66602 11 3.99902 17s0.333008 11.667 -3 17l-4.5 6.5c-1.66699 2.33301 -2.5 4.5 -2.5 6.5c0 4 3 7 9 9c6.66699 1.33301 14.334 4 23.001 8
s17 8.5 25 13.5s15.167 10.167 21.5 15.5s10.833 9.66602 13.5 12.999l6.5 6.5c1.66699 1.66699 3.83398 2.5 6.50098 2.5c3.33301 0 5.66602 -1.5 6.99902 -4.5s2.66602 -7.16699 3.99902 -12.5c4.66699 -16 12.5 -40.167 23.5 -72.5l34.5 -102.5l34.5 -103
c11 -32.667 18.833 -57 23.5 -73l24 -74.5l30.5 -90.5l29 -81c9 -24 15.167 -39.667 18.5 -47c8.66699 -16.667 19 -28.334 31 -35.001s24.333 -10 37 -10h33c5.33301 0 8 -2.33301 8 -7v-25c0 -4.66699 -3.33301 -7 -10 -7c-4.66699 0 -9.66699 0.166992 -15 0.5
s-12.5 0.666016 -21.5 0.999023s-20.167 0.666016 -33.5 0.999023s-30 0.5 -50 0.5c-41.333 0 -72.333 -0.5 -93 -1.5s-36.667 -1.5 -48 -1.5c-5.33301 0 -8 3 -8 9v23c0 4.66699 3 7 9 7h25c14 0 23.333 2.83301 28 8.5s5.33398 15.5 2.00098 29.5
c-2 8.66699 -5.83301 22.334 -11.5 41.001l-18 59.5l-19 60l-14.5 43.5h-246z" />
    <glyph glyph-name="Aacute" unicode="&#xc1;" horiz-adv-x="743" 
d="M319 785c-2.66699 2.66699 -2.00098 5.33301 1.99902 8l137 113c8 6.66699 15 11.667 21 15s12.667 5 20 5c10.667 0 19.334 -3.5 26.001 -10.5s10 -15.167 10 -24.5c0 -7.33301 -2.33301 -14.5 -7 -21.5s-12 -13.167 -22 -18.5l-168 -82c-2.66699 -2 -5 -2 -7 0z
M452.999 313.999c-1.33301 4.66699 -4.50098 15 -9.50098 31l-18 55.5l-21.5 66.5l-21 65.5l-17 51.5c-4.66699 14 -7.33398 22.333 -8.00098 25c-1.33301 3.33301 -2.66602 6.5 -3.99902 9.5s-2.66602 4.5 -3.99902 4.5c-2 0 -4 -1.5 -6 -4.5s-3.66699 -6.5 -5 -10.5
c-0.666992 -2 -3.66699 -10.167 -9 -24.5l-19.5 -52l-24.5 -66l-24.5 -67l-19.5 -55l-10 -29.5h221zM218.998 277.999c-2.66699 -6 -7.50195 -18.834 -14.502 -38.501l-22.5 -62c-8 -21.667 -15.167 -42 -21.5 -61s-10.166 -31.167 -11.499 -36.5
c-0.666992 -3.33301 -1.33398 -7.16602 -2.00098 -11.499s-1 -7.83301 -1 -10.5c0 -14.667 11.333 -22 34 -22h47c6.66699 0 10 -2.33301 10 -7v-23c0 -6 -2.66699 -9 -8 -9c-7.33301 0 -20.666 0.5 -39.999 1.5s-44 1.5 -74 1.5c-18 0 -33.167 -0.166992 -45.5 -0.5
s-22.666 -0.666016 -30.999 -0.999023s-15 -0.666016 -20 -0.999023s-9.16699 -0.5 -12.5 -0.5c-4.66699 0 -7 2.66699 -7 8v24c0 4.66699 2.66699 7 8 7h35c15.333 0 27 3.66699 35 11s15.667 19 23 35c2 4 7.33301 17.167 16 39.5l30 77.5l34.5 89.5l28.5 76.5
c1.33301 3.33301 4.33301 11.5 9 24.5l17 46.5l21.5 57.5l22 58l18 48c5 13.667 8.16699 22.834 9.5 27.501c1.33301 5.33301 2.66602 11 3.99902 17s0.333008 11.667 -3 17l-4.5 6.5c-1.66699 2.33301 -2.5 4.5 -2.5 6.5c0 4 3 7 9 9c6.66699 1.33301 14.334 4 23.001 8
s17 8.5 25 13.5s15.167 10.167 21.5 15.5s10.833 9.66602 13.5 12.999l6.5 6.5c1.66699 1.66699 3.83398 2.5 6.50098 2.5c3.33301 0 5.66602 -1.5 6.99902 -4.5s2.66602 -7.16699 3.99902 -12.5c4.66699 -16 12.5 -40.167 23.5 -72.5l34.5 -102.5l34.5 -103
c11 -32.667 18.833 -57 23.5 -73l24 -74.5l30.5 -90.5l29 -81c9 -24 15.167 -39.667 18.5 -47c8.66699 -16.667 19 -28.334 31 -35.001s24.333 -10 37 -10h33c5.33301 0 8 -2.33301 8 -7v-25c0 -4.66699 -3.33301 -7 -10 -7c-4.66699 0 -9.66699 0.166992 -15 0.5
s-12.5 0.666016 -21.5 0.999023s-20.167 0.666016 -33.5 0.999023s-30 0.5 -50 0.5c-41.333 0 -72.333 -0.5 -93 -1.5s-36.667 -1.5 -48 -1.5c-5.33301 0 -8 3 -8 9v23c0 4.66699 3 7 9 7h25c14 0 23.333 2.83301 28 8.5s5.33398 15.5 2.00098 29.5
c-2 8.66699 -5.83301 22.334 -11.5 41.001l-18 59.5l-19 60l-14.5 43.5h-246z" />
    <glyph glyph-name="Acircumflex" unicode="&#xc2;" horiz-adv-x="743" 
d="M378 827l-118.999 -56.999c-4.66699 -2 -8 -2 -10 0l-8 10c-1.33301 2.66699 -0.333008 5.66699 3 9l123 111c2.66699 2 5.16699 4 7.5 6s4.16602 3 5.49902 3c2 0 4.16699 -1 6.5 -3s4.83301 -4 7.5 -6l127 -112c2.66699 -2.66699 3 -5.33398 1 -8.00098l-7 -9
c-2 -2.66699 -5 -3 -9 -1zM453.001 314.001c-1.33301 4.66699 -4.50098 15 -9.50098 31l-18 55.5l-21.5 66.5l-21 65.5l-17 51.5c-4.66699 14 -7.33398 22.333 -8.00098 25c-1.33301 3.33301 -2.66602 6.5 -3.99902 9.5s-2.66602 4.5 -3.99902 4.5c-2 0 -4 -1.5 -6 -4.5
s-3.66699 -6.5 -5 -10.5c-0.666992 -2 -3.66699 -10.167 -9 -24.5l-19.5 -52l-24.5 -66l-24.5 -67l-19.5 -55l-10 -29.5h221zM219 278.001c-2.66699 -6 -7.50195 -18.834 -14.502 -38.501l-22.5 -62c-8 -21.667 -15.167 -42 -21.5 -61s-10.166 -31.167 -11.499 -36.5
c-0.666992 -3.33301 -1.33398 -7.16602 -2.00098 -11.499s-1 -7.83301 -1 -10.5c0 -14.667 11.333 -22 34 -22h47c6.66699 0 10 -2.33301 10 -7v-23c0 -6 -2.66699 -9 -8 -9c-7.33301 0 -20.666 0.5 -39.999 1.5s-44 1.5 -74 1.5c-18 0 -33.167 -0.166992 -45.5 -0.5
s-22.666 -0.666016 -30.999 -0.999023s-15 -0.666016 -20 -0.999023s-9.16699 -0.5 -12.5 -0.5c-4.66699 0 -7 2.66699 -7 8v24c0 4.66699 2.66699 7 8 7h35c15.333 0 27 3.66699 35 11s15.667 19 23 35c2 4 7.33301 17.167 16 39.5l30 77.5l34.5 89.5l28.5 76.5
c1.33301 3.33301 4.33301 11.5 9 24.5l17 46.5l21.5 57.5l22 58l18 48c5 13.667 8.16699 22.834 9.5 27.501c1.33301 5.33301 2.66602 11 3.99902 17s0.333008 11.667 -3 17l-4.5 6.5c-1.66699 2.33301 -2.5 4.5 -2.5 6.5c0 4 3 7 9 9c6.66699 1.33301 14.334 4 23.001 8
s17 8.5 25 13.5s15.167 10.167 21.5 15.5s10.833 9.66602 13.5 12.999l6.5 6.5c1.66699 1.66699 3.83398 2.5 6.50098 2.5c3.33301 0 5.66602 -1.5 6.99902 -4.5s2.66602 -7.16699 3.99902 -12.5c4.66699 -16 12.5 -40.167 23.5 -72.5l34.5 -102.5l34.5 -103
c11 -32.667 18.833 -57 23.5 -73l24 -74.5l30.5 -90.5l29 -81c9 -24 15.167 -39.667 18.5 -47c8.66699 -16.667 19 -28.334 31 -35.001s24.333 -10 37 -10h33c5.33301 0 8 -2.33301 8 -7v-25c0 -4.66699 -3.33301 -7 -10 -7c-4.66699 0 -9.66699 0.166992 -15 0.5
s-12.5 0.666016 -21.5 0.999023s-20.167 0.666016 -33.5 0.999023s-30 0.5 -50 0.5c-41.333 0 -72.333 -0.5 -93 -1.5s-36.667 -1.5 -48 -1.5c-5.33301 0 -8 3 -8 9v23c0 4.66699 3 7 9 7h25c14 0 23.333 2.83301 28 8.5s5.33398 15.5 2.00098 29.5
c-2 8.66699 -5.83301 22.334 -11.5 41.001l-18 59.5l-19 60l-14.5 43.5h-246z" />
    </font>
</defs>
</svg>
